/* XPM */
static char *de6eaa19f5704d17f7e9d8e3d89e158acVmTN6JiA91CgGEX[] = {
/* columns rows colors chars-per-pixel */
"64 64 231 2 ",
"   c #1C190C",
".  c #2B0C01",
"X  c #210B02",
"o  c #350E03",
"O  c #3B0700",
"+  c #2A1405",
"@  c #25140D",
"#  c #2B120A",
"$  c #2B1B0D",
"%  c #281908",
"&  c #351304",
"*  c #3A1303",
"=  c #3E1A04",
"-  c #35150C",
";  c #3B130B",
":  c #341A0C",
">  c #3B1A0C",
",  c #2B1512",
"<  c #2D1A15",
"1  c #2D1B1C",
"2  c #261A17",
"3  c #351511",
"4  c #3A1712",
"5  c #341B13",
"6  c #3C1C13",
"7  c #361C1A",
"8  c #3C1B1A",
"9  c #39171D",
"0  c #3C210E",
"q  c #34230D",
"w  c #2F2516",
"e  c #3B2114",
"r  c #3A2A17",
"t  c #3E231C",
"y  c #352518",
"u  c #2D210A",
"i  c #3C1F20",
"p  c #3E2124",
"a  c #2D2328",
"s  c #420800",
"d  c #441404",
"f  c #491504",
"g  c #441B03",
"h  c #4A1C04",
"j  c #43150C",
"k  c #431B0C",
"l  c #4C1C0B",
"z  c #4C1509",
"x  c #521C0A",
"c  c #511907",
"v  c #451613",
"b  c #441C14",
"n  c #4A1D14",
"m  c #441519",
"M  c #4A1719",
"N  c #431E1C",
"B  c #4C1B1A",
"V  c #531D12",
"C  c #4B210C",
"Z  c #46230A",
"A  c #53220F",
"S  c #58310F",
"D  c #442112",
"F  c #4C2214",
"G  c #4E2814",
"H  c #44231A",
"J  c #4C221E",
"K  c #4E2D1D",
"L  c #432A1A",
"P  c #542314",
"I  c #5C2314",
"U  c #5B2B15",
"Y  c #53251C",
"T  c #542B1D",
"R  c #5D2C1B",
"E  c #5A2719",
"W  c #55321E",
"Q  c #583118",
"!  c #602A16",
"~  c #6B2B15",
"^  c #622C1C",
"/  c #6A2C1C",
"(  c #672619",
")  c #712E1D",
"_  c #762716",
"`  c #6C321D",
"'  c #63351C",
"]  c #73321E",
"[  c #7A3B1E",
"{  c #431D21",
"}  c #4E1E20",
"|  c #4D2A25",
" . c #472623",
".. c #522621",
"X. c #542C23",
"o. c #5B2D24",
"O. c #552D28",
"+. c #5C2D2A",
"@. c #5A2522",
"#. c #4B3224",
"$. c #4D342A",
"%. c #573125",
"&. c #5A3124",
"*. c #54332B",
"=. c #5B332C",
"-. c #583829",
";. c #5B3234",
":. c #593138",
">. c #632B24",
",. c #622C2B",
"<. c #6A2C22",
"1. c #742F22",
"2. c #633425",
"3. c #6C3324",
"4. c #633924",
"5. c #64352A",
"6. c #6B352A",
"7. c #6B3A2D",
"8. c #653B2D",
"9. c #733423",
"0. c #793725",
"q. c #753A25",
"w. c #7A3B26",
"e. c #71332B",
"r. c #743B2B",
"t. c #7C3D2D",
"y. c #6C3B31",
"u. c #633731",
"i. c #733D33",
"p. c #7E3E31",
"a. c #7E3F39",
"s. c #7D422D",
"d. c #79492A",
"f. c #6D4231",
"g. c #764335",
"h. c #7E4433",
"j. c #7B4934",
"k. c #76443A",
"l. c #7D443A",
"z. c #7D4A3B",
"x. c #764A36",
"c. c #7E4C41",
"v. c #7A4745",
"b. c #823F2D",
"n. c #853F29",
"m. c #833F3D",
"M. c #843E33",
"N. c #83432D",
"B. c #8A462D",
"V. c #854A2D",
"C. c #8B4A2D",
"Z. c #8A4226",
"A. c #924A2C",
"S. c #99492C",
"D. c #82502D",
"F. c #854534",
"G. c #8A4634",
"H. c #864935",
"J. c #8A4935",
"K. c #84463A",
"L. c #8B463A",
"P. c #844A3B",
"I. c #8B4B3B",
"U. c #914535",
"Y. c #924C33",
"T. c #91453A",
"R. c #914D3B",
"E. c #8D5135",
"W. c #84513B",
"Q. c #8C513D",
"!. c #875337",
"~. c #9A5233",
"^. c #92503C",
"/. c #8D4743",
"(. c #844C41",
"). c #8C4D41",
"_. c #89494B",
"`. c #934D41",
"'. c #845241",
"]. c #8C5242",
"[. c #925142",
"{. c #995848",
"}. c #935E51",
"|. c #985F53",
" X c #865C55",
".X c #A05B50",
"XX c #A85A45",
"oX c #95614E",
"OX c #8E6654",
"+X c #89685C",
"@X c #9D6554",
"#X c #956B53",
"$X c #9A6951",
"%X c #9A6A55",
"&X c #9C6B55",
"*X c #9C675B",
"=X c #9D6B5A",
"-X c #956756",
";X c #9F7157",
":X c #95705A",
">X c #9D715B",
",X c #A4654D",
"<X c #A6644D",
"1X c #A26655",
"2X c #A26B55",
"3X c #A2665B",
"4X c #A16A58",
"5X c #A26A5A",
"6X c #AD6C5A",
"7X c #AA6A54",
"8X c #B16F5B",
"9X c #A07057",
"0X c #A47055",
"qX c #AD715D",
"wX c #BB7659",
"eX c #B36A4C",
"rX c #936F60",
"tX c #9A7162",
"yX c #A36E61",
"uX c #A57462",
"iX c #AC7263",
"pX c #A47860",
"aX c #B67E6F",
"sX c #B47369",
"dX c #C47B64",
"fX c #C67E6D",
"gX c #B68A78",
"hX c #C98B78",
"jX c #CA8D74",
"kX c #C09083",
"lX c #D99785",
/* pixels */
"h h h h h h h h h h h h h h k Z 0 0 k D D : % u & Z = g = = g g g g g g g g k g g h h h h h h h z z g . = Z * z h g g g g g g g ",
"2X2X2X2X9X9X9X9X9X9X9X9X>X>X>X>X:XtXtXtXgXK + % Q &XqX#X&X&X&X&X&X&X&X&X&X&X&X&X$X$X$X$X&X&X$X&XiXiXgXG #XuX&X5X$X$X$X$X$X$X$X$X",
"P.P.P.P.P.P.P.P.I.I.P.P.I.I.I.P.P.(.(.(.aXgXK = 2.I.I.J.Q.Q.I.I.I.I.I.I.P.P.P.I.I.I.I.I.I.I.I.I.`.K.iXx 2.P.L.L.Q.Q.Q.Q.Q.Q.Q.Q.",
"H.H.H.H.H.H.H.F.G.G.G.G.G.G.G.G.F.K.L.L.I.aXgXl 9.R.J.G.F.F.G.G.G.G.G.G.G.G.G.G.F.F.F.F.F.F.F.G.G.L.1Xc I P.L.G.G.G.G.G.G.G.G.F.",
"G.G.G.G.G.G.G.G.G.G.G.G.G.G.U.G.G.L.T.T.R.[.&Xh ~ U.U.T.G.G.G.G.G.G.G.G.R.J.G.G.H.H.H.H.H.H.H.H.G.L.4Xl R P.L.G.J.H.H.H.H.H.H.H.",
"G.G.G.G.G.G.G.G.G.G.G.G.G.G.U.G.G.G.T.T.R.[.&Xh ~ U.U.T.G.G.U.U.L.L.G.G.G.G.G.F.H.H.H.H.H.H.H.H.G.L.4Xl R P.I.G.J.H.H.H.H.H.H.H.",
"G.G.G.G.G.G.G.G.G.G.G.G.G.G.G.G.J.J.J.J.I.Q.#Xh ~ G.G.R.G.G.G.L.I.I.K.3./ 9.p.P.H.H.H.H.H.H.H.G.G.L.4Xc R P.L.G.J.J.J.J.J.J.H.H.",
"G.G.G.G.G.G.G.G.G.G.G.F.F.F.H.H.K.H.J.L.I.].$Xh ^ J.I.L.L.L.L.I.t.` 3.j.F.F.P.P.J.J.J.J.J.J.J.G.G.R.5Xx ! I.L.G.G.I.J.J.J.J.J.J.",
"G.G.G.L.L.L.L.R.I.K.K.K.j.j.x.j.z.K.L.G.M.I.4XP ^ P.P.).e.e.e.e.3.F.F.H.H.H.H.J.H.H.H.H.J.J.J.J.G.I.4Xl R P.I.L.I.I.J.J.J.J.J.H.",
"F.F.F.G.I.I.K.K.I.].].(.z.f.-.T 2.i.L.R.`.[.@Xz z 3.3.e.K.K.K.K.F.9.F.H.J.J.J.H.H.H.H.H.J.J.J.J.G.I.4Xl R P.I.G.L.F.H.J.J.J.J.J.",
"V.V.V.H.J.H.t.q.t.].'.g.5.X.F k F 7.K.K.t.P.=XP I F.F.K.).).I.I.H.F.9.F.J.H.J.H.H.H.I.I.I.J.J.J.G.R.5Xc ! I.L.G.I.9.F.F.J.J.J.J.",
"V.V.V.V.Q.F.0.3.^ k.k.o.b b 6 6 D 8.k.6.k.z.OXd ^ L.F.I.I.I.I.I.I.I./ t.J.I.I.I.L.K.I.I.I.I.J.I.K.I.4Xx R P.I.F.R.( F.F.J.I.I.I.",
"R.R.R.L.L.L.L./.i.5.X.m N 8 5 # # 8 =.v.v.u.H > R K.W.s.h.h.h.h.J.J.J.J.J.J.J.J.J.J.L.I.L.L.L.I.P.g.OXD D T 5.r.r.F.J.F.J.I.I.I.",
"K.K.K.K.K.m.m.l.@.J N N t 7 < , @ 5  .| | t $ + 2.x.'.z.z.z.z.z.P.P.P.P.P.P.P.P.P.P.P.P.P.P.P.z.5.X.L : : 6 H Y z.P.P.P.P.P.P.P.",
";.;.;.;.;.;.;.;.{ N { { t 7 < 2 2 1 7 i 8 5 @ @ e ..=.X.%.%.%.%.&.&.o.o.Q Q o.o.&.&.&.T T T T T 6 5 @ $ @ $ 5 6 %.o.X.X.X.X.X.X.",
"7 7 7 7 i p p  .J B m m 8 8 < < < 5 6 4 6 6 e e > b b k b b k k k k k k g k 6 6 k k k k k k k k > > e % q 0 > > k k k b b b b b ",
"# # # # 5 X 5 +XqX<XR.l.u.+.{ 8 b P 7.}.*X*X=Xg.@X@X@X@X@X1X1X@X4X6XjX~ s O j  X*X3X3X3X3X3X3X4X7X1X&X2X2X1X&X1X1X7X1X5X5X1X1X1X",
"t t t t t 5 # &.B.S.XX7XK.,.} B 3.9.t.P.I.I.I.w.^.^.^.^.R.R.R.R.L.Y.eXdX0.x k +.].`.[.[.`.`.`.R.Y.Y.Y.Y.Y.Y.U.U.Y.Y.I.^.R.Y.Y.Y.",
"$.$.$.$.6 5 : X.B.S.Y.^.e.>.+.@.g.F.F.t.F.t.9.N.F.F.J.J.J.J.R.R.^.n.Z.wXjXhXF +.K.G.G.G.G.G.J.J.J.C.C.J.J.J.J.J.J.J.J.Y.J.J.J.J.",
"*.*.*.*.*.H - &.F.B.B.F.K.6.i.c.3.j.I.F.).p./ I.J.J.J.J.J.J.J.J.I.Z.~.~.wXqXF T P.G.J.J.J.J.J.J.J.J.V.J.J.F.F.F.F.B.B.J.G.G.G.G.",
"*.*.*.*.O.b - o.F.U.J.F.h.l.P.).P.P.P.P.I.( F.I.J.J.J.J.J.J.J.J.J.J.A.A.J.1Xn o.P.J.J.J.N.J.J.] J.Q.F.J.I.H.I.H.F.F.G.J.G.G.G.G.",
"*.*.*.*.O.b - o.F.J.J.F.F.F.P.I.P.P.P.P.F.^ J.F.J.J.J.J.J.J.J.J.J.C.A.A.J.1Xn o.P.J.J.J.9.L.t.J.I.N.I.H.I.H.I.H.J.G.G.G.G.G.J.J.",
"+.+.+.+.O.b ; o.j.I.J.J.I.J.F.F.F.K.P.P.3.F./ J.J.J.J.J.J.J.J.J.J.C.A.A.J.1Xn o.H.J.J.J.N.] J.H.H.I.I./ ` F.9.F.H.G.J.J.J.G.F.J.",
"+.+.+.+.O.b ; o.j.I.J.J.L.J.F.F.H.J.F.F.( F.` s.J.J.J.J.J.J.J.J.J.V.C.A.U.1Xn X.H.J.J.J.I.N.] F.F.s.9.F.h.q.K.F.F.G.G.J.G.G.G.F.",
"+.+.+.+.O.b - &.j.J.J.J.J.J.F.J.J.I.F.F.F.F.F.F.H.H.V.H.J.J.J.J.F.N.[ [ Y.1Xv X.P.J.J.J.J.J.w.w.H.` F.I.P.s.9.P.H.H.J.J.G.G.H.H.",
",.+.+.+.O.b - &.F.J.J.G.G.G.G.J.J.J.F.F.F.F.F.F.H.J.J.J.J.J.J.J.J.F.s.[ Y.1Xv ..P.J.J.J.J.J.N.t.s.q.F.I.F.I.I.9.J.J.J.J.G.G.H.H.",
",.,.+.+.O.b - &.F.U.G.G.G.G.G.G.G.F.I.I.K.F.F.F.G.G.G.G.G.G.G.R.R.L.V.Z._ `.j +.).R.R.R.G.R.G.w.9.F.J.F.I.F.I.p.P.P.P.P.K.K.K.K.",
",.,.+.+.O.b - &.K.T.G.G.G.L.L.G.F.F.L.L.I.F.F.F.G.G.G.G.G.G.G.R.`.R.C.B.XX8XB ..K.G.G.G.G.L.L.F.1.L.F.I.L.I.F.I.P.P.P.P.K.K.K.K.",
",.,.+.+.X.H : %.K./.M.L.L.L.L.L.L.K.I.I.).).).).).I.I.L.R.L.L.F.G.J.C.C.U..XB O.K.`.R.M.L.F.`.( L.I.I.I.I.I.I.I.I.I.I.I.I.I.I.I.",
",.,.+.+.*.H 6 F 6.a.l.[.).).I.I.I.I.).I.I.K.K.K.K.P.).).l.K.K.P.I.J.!.E.{.iX6 | >.l.).).P.K.P.3.P.P.P.P.I.P.P.P.I.I.I.I.P.P.P.P.",
",.,.+.+.=.J 6 - l o.5.z.(.(.P.P.(.(.I.P.P.K.K.K.k.z.y.Y o.7.z.z.x.d.d.d.Q.-X5 y b 5.z.c.z.k.7.6.P.K.K.K.P.K.K.K.P.P.P.P.z.z.z.z.",
">.>.>.o.=.J k * o l l R E E E E E E R R ^ ^ ^ R P &.T * j F o.&.R S S S ' Q : X & F &.&.8.2.l R R R o.o.o.o.R R ^ ^ ^ ^ R R R R ",
"/ / / / / <./ I z l l A l h d C k k k g g k * > g g d d f l l g h h h h h g g g l h h h h h d C d o : $ > > = g h l l l l l l l ",
"6X6X6X6X6X8X6X1X4X=X&X&XoXP.$XuX=X=X=X&XuXgXG = OX=X=X5X@X5X=X=X&X&X4X&X5X&X&X1X5X1X2X2X2X2X0XjXU * q r +XrX:X:X=X5XyXyX5X5X=X=X",
"I.I.I.R.I.R.I.F.].W.K.K.` Q.W.W.I.I.I.J.^.qXgXl 2.P.P.).I.I.P.P.I.I.L.I.I.I.I.L.I.L.L.I.I.I.^.8XlXI & > y.c.z.j.P.P.(.(.(.(.(.(.",
"F.F.G.G.F.J.F.t.I.F.w.9.F.F.I.s.J.J.C.C.J.J.0Xf U j.F.L.F.K.P.K.F.G.G.G.G.G.G.G.G.G.G.G.G.G.b.J.fXhXF ; ,.p.K.s.P.P.P.P.K.K.K.K.",
"J.J.J.J.R.b.L.F.F.` 9.I.H.H.H.H.H.H.V.C.C.E.&Xf ! I.L.L.R.F.P.P.P.I.I.I.K.K.H.H.H.H.H.H.J.J.J.J.dXhX&.o >.K.I.F.P.P.(.(.P.P.P.P.",
"J.J.J.J.R.^.G.R.] G.R.G.G.G.G.G.G.J.C.C.C.E.&Xf ! P.L.L.L.L.P.h.P.P.P.P.P.P.H.H.H.H.H.H.H.H.H.J.R.6XkXn >.K.L.F.].'.(.P.z.g.6.^ ",
"J.J.J.J.R.G.) ) N.G.R.G.G.G.G.G.G.G.C.C.A.Y.2Xf R P.I.I.I.P.j.r.P.P.P.P.P.F.F.H.H.H.H.H.H.H.H.J.M.R.yXd >.L.L.F.P.z.i.7.6.>.P l ",
"I.I.I.I.b.0.G.G.9.F.L.R.G.G.J.J.G.G.G.G.J.I.4Xf R P.P.H.H.J.h.` H.P.P.P.P.F.F.F.H.H.H.H.J.J.J.J.U.G.@XP ( K.L.F.t.3.R V l l l l ",
"F.K.I.K.t.F.P.I./ t.I.P.P.P.P.J.J.G.G.G.L.).=Xj E P.H.H.C.C.` J.J.I.I.I.I.F.H.J.F.J.J.I.J.J.J.J.B.L.1Xl ! h.I.F.I.F.r.3.I c f f ",
"Q.H./ 9.h.F.K.H.s.w.h.].H.H.H.H.J.G.G.G.L.).=Xj R z.H.H.Y.n.~ F.J.J.J.J.I.H.q.F.I.J.J.J.J.J.G.G.F.I.2Xh U j.H.N.I.I.K.s.w.3./ ! ",
"s.` s.N.H.V.N.s.J.N.N.E.J.J.J.J.J.G.G.L.I.I.=Xd R P.P.G.G.] F.I.I.I.J.J.H.H.I.9.F.F.F.G.J.G.G.G.F.I.=Xl U j.H.N.J.J.H.H.H.H.s.w.",
"q.J.J.E.E.H.s.w.J.^.E.V.J.J.J.J.G.L.L.I.P.'.:Xk @.(.I.J.G.R.G.I.I.I.J.J.F.I.J.G.) 9.N.G.I.I.L.L.F.I.=Xl U j.H.N.I.I.J.J.I.J.V.N.",
"L.L.L.L.L.L.L.I.I.I.I.I.I.I.I.I.J.L.I.P.c.*.t 4 X.k.I.F.G.G.G.G.G.G.G.G.L.G.J.J.J.L.0.F.G.G.G.G.I.H.$XU U q.H.G.J.J.J.J.C.B.C.C.",
"l.l.l.l.K.K.l.K.K.z.P.P.P.P.P.P.P.P.P.(.u.H , 5 m 5.P.I.G.G.P.P.P.P.P.P.P.K.P.P.P.P.g.P.P.P.P.P.l.z.R * 4.x.W.P.F.F.F.F.F.b.F.F.",
"o.o.o.&.*.=.+.X.X.T K T T T T T X.X.X.O.| 8 , @ 7 H X.o.o.o.o.o.o.o.+.+.o.X.o.X...%.%.%.%.&.&.&.&.-.+ % r #.*.Y ,.,.,.,.+.+.,.+.",
"- : - 4 5 7 7 5 > > k k k k k k b b b n b m 6 6 6 8 m n k k k b b b b b j ; 4 4 ; b H b b b b b b 6 : 5 e L H v m B B M M m M M ",
"- & - 3 , , 2 , F (.uXyX|.3.}.@X4X4X4X4X1X4X1X4X5X5X@X3X4X4X4X4X1X1X4X1XjX^ ; o P }.4X4X4X4X4X4X@X@XoX=X&X=X=X@X1X1X1X3X3X3X3X3X",
"F F H  .t 5 < 5 k r.].].K.t.w.[.R.R.R.R.R.R.R.R.R.^.I.I.R.R.R.R.E.E.Q.^.wXjXn v K.[.F.I.^.^.^.^.R.I.J.^.R.[.^.I.I.R.R.R.R.I.[.[.",
"@XiX*Xk.u.N 4 J y.l.).[.F.I.) N.F.V.N.N.B.B.B.B.F.G.N.F.F.F.F.F.V.V.N.V.Y.,Xn ..l.F.t.I.J.J.J.J.J.G.F.I.J.I.J.F.F.J.J.J.J.G.L.I.",
"[.I.[.yXv.Y v Y z.l.K.I.I.J.N.w.J.J.J.J.G.J.G.G.J.L.G.J.I.I.I.L.J.J.J.J.~.,Xj =.K.[.F.F.J.J.J.J.G.F.N.J.G.L.J.F.F.H.H.F.J.F.I.J.",
"U.J.J.I.|.d n >.l.K.P.I.J.J.G.0.F.G.G.G.G.G.G.G.J.J.L.I.J.F.G.G.J.J.J.J.A.,Xn o.).J.F.I.I.I.F.N.G.G.F.F.G.G.G.G.G.G.G.F.9./ G.L.",
"A.J.J.J.1XR d 2.l.P.P.I.I.J.) G.F.G.G.G.G.G.G.G.G.L.J.F.F.F.G.G.C.J.J.J.A.,Xn o.P.F.G.I.L.J.G.F.G.G.G.F.G.G.G.G.G.G.G.G.J.G.~ F.",
"C.C.J.H.W.#XF l z.P.I.I.F.F.[.] F.F.G.G.G.G.G.G.G.R.F.9.F.F.G.G.J.J.J.J.Y.,Xn o.K.G.J.J.F.J.J.L.J.G.F.F.G.G.G.G.G.G.G.J.L.I.F.) ",
"V.V.V.D.D.>XC R z.(.).F.I.K.r.h.F.F.J.G.J.J.J.G.F.R.F.( F.G.G.G.J.J.H.J.Y.,Xn X.P.J.J.F.F.F.I.^.H.H.H.H.H.J.G.G.G.G.G.J.F.F.L.F.",
"J.H.V.D.H.9XZ W P././.K.r.3.^ r.3.F.I.J.J.I.J.H.F.F.F.F.K.F.I.J.J.J.H.H.Y.,Xn X.'.P.K.K./ h.H.P.H.P.P.P.P.K.K.L.F.F.F.F.K.P.P.P.",
"I.J.V.V.J.0XZ W P././.K.<.P l r.3.F.I.I.J.I.J.H.F.F.F.F.H.H.J.J.J.J.H.J.Y.,Xn X.z.].K.` s.` H.P.H.H.H.H.H.H.J.J.H.H.H.H.H.H.H.H.",
"/.I.J.C.U.7XC W P.L.I.h.g.' h l 9.F.R.L.L.L.J.G.G.G.B.B.C.C.J.J.J.J.J.J.Y.<Xn o.r.F.s./ s.F.9.I.G.G.J.J.G.G.G.G.G.G.G.G.G.G.G.G.",
"/.).I.J.U.6XC &.K.L.L.F.3.j.4.A 9.F.R.L.L.L.L.G.G.B.B.B.B.C.C.J.J.J.I.J.Y.7Xn +.>.<.9.h.t.F.G.0.G.G.G.G.G.G.B.B.B.B.B.B.B.B.B.B.",
"_._.(.I.{.iX* X.L.T.L.L.I.F.r.r.K.F.F.F.K.K.L.G.F.F.N.V.B.B.B.G.G.F.F.F.U.6Xm m V e.P.].F.K.F.F.I.L.L.L.I.L.I.J.U.U.I.I.I.J.U.U.",
"v.v.z.z.).}.e #.l.m.K.K.j.7.7.y.z.l.K.K.(.(.(.K.P.P.P.K.P.P.P.P.P.P.P.P.Q.|.8 9 v >.k.l.l.l.z.z.z.P.P.P.P.P.P.P.P.P.P.P.P.P.P.P.",
":.;.-.&.2.=.w y *.=.*.-.#.#.#.*.=.=.=.=.=.=.=.=.=.=.=.=.=.=.=.=.=.&.=.&.4.=.1 1 4 H | O.*.*.*.*.=.=.=.=.=.=.=.=.=.=.=.=.=.=.=.=.",
"9 9 4 > & .     , 4 4 5 $ < w y - - 3 3 3 3 3 3 3 3 3 3 3 3 3 3 - - : - * . 2 a @ 4 5 # 3 3 3 3 3 3 3 3 3 3 3 3 3 3 3 3 3 3 3 3 "
};
