/* XPM */
static char *_db1891aedf7497fd9529077154aaf58deES9qfISltX4qLh[] = {
/* columns rows colors chars-per-pixel */
"64 64 19 1 ",
"  c None",
". c #13121A",
"X c #2C2B35",
"o c #EEC39A",
"O c #222034",
"+ c #383D3F",
"@ c #D9A066",
"# c #556240",
"$ c #8F9272",
"% c #581F16",
"& c #323549",
"* c #767D5C",
"= c #1C1B23",
"- c #306082",
"; c #A05D3B",
": c #9BADB7",
"> c #FCE9D7",
", c #3F3F74",
"< c #589BA5",
/* pixels */
"                                                                ",
"                                                                ",
"                                                                ",
"                                                                ",
"                                                                ",
"                                                                ",
"                                                                ",
"                                                                ",
"                          ..   .... ..                          ",
"                         .&&...OOOO.OO.                         ",
"                        .O&OOOOOOOOOO&O.                        ",
"                       .OO&OOOOOOOOOO&OO.                       ",
"                       .OO&&OOOOOOOOO&OO.                       ",
"                       .OO&&OOOOOOOO&&OO.                       ",
"                       .OO&&O&&OOOOO&&OO.                       ",
"                       .OO&&O&&OOOOO&&OO.                       ",
"                       .OO&&OO&OOOOO&&OO.                       ",
"                       .OO@ooOOOOOOoo@OO.                       ",
"                       .O@ooooOOOOoooo@O.                       ",
"                       .OooooooooooooooO.                       ",
"                      %oOo..oooooooo..oOo%                      ",
"                      %ooo....o>>o....ooo%                      ",
"                      %@;o.>>>.>>.>>>.o;@%                      ",
"                      %o@o..=..>>..=..o@o%                      ",
"                      .%oo@...@>>@...@oo%.                      ",
"                     .++%oo@@@>>>>@@@oo%++.                     ",
"                    .++.%@oooooooooooo@%.++.                    ",
"                    .++..;@oooooooooo@;..++.                    ",
"                    ..+...;@@oooooo@@;...+..                    ",
"                  ...X.++..;;;;;;;;;;..++.X...                  ",
"                 .+++.X..+.@@;;;;;;@@.+..X.+++.                 ",
"                .+++X.XXX.++@@@@@@@@++.XXX.X+++.                ",
"                .X+X+.XXXX...<@@@@<...XXXX.+X+X.                ",
"                .XXXXX.XXXXX.-<<<<-.XXXXX.XXXXX.                ",
"                ..XXXX.XXXXX.------.XXXXX.XXXX..                ",
"                .......X++++X.----.X++++X.......                ",
"                .......X++++X.----.X++++X.......                ",
"                %@.....X====X.----.X====X.....@%                ",
"                %@@@@@.X====X.,-,-.X====X.@@@@@%                ",
"                %oo@@@.X====X.-,-,.X====X.@@@oo%                ",
"                %oooo@%.XXXXXX.-,.XXXXXX.%@oooo%                ",
"                %ooooo%.XXXXXX.,,.XXXXXX.%ooooo%                ",
"                %ooooo%.XXXXXX.,,.XXXXXX.%ooooo%                ",
"                %ooooo%..................%ooooo%                ",
"                ........++:++.::::.++:++........                ",
"                .XXXXX..XXXXX.::::.XXXXX..XXXXX.                ",
"                .XX..X..XX:XX.::::.XX:XX..X..XX.                ",
"                .XX..........................XX.                ",
"                 .XXXX.#$$$$$$*##*$$$$$$#.XXXX.                 ",
"                  .... #$$$$$*####*$$$$$# ....                  ",
"                       #*$$$$*#  #*$$$$*#                       ",
"                       #*$$$*##  ##*$$$*#                       ",
"                       #*****#    #*****#                       ",
"                       ##***##    ##***##                       ",
"                       #######    #######                       ",
"                       .####X.    .X####.                       ",
"                       .XXXXX.    .XXXXX.                       ",
"                       .XXXX..    ..XXXX.                       ",
"                      .X....X.    .X....X.                      ",
"                     .XXXXXXX.    .XXXXXXX.                     ",
"                     .XXXXXXX.    .XXXXXXX.                     ",
"                     .........    .........                     ",
"                     ........      ........                     ",
"                                                                "
};
