/* XPM */
static char *_c6672782d8a402efd9aa40b72adee27vl32Z3ZU44Xauw3b[] = {
/* columns rows colors chars-per-pixel */
"64 64 171 2 ",
"   c black",
".  c #010000",
"X  c #000100",
"o  c #010101",
"O  c #000201",
"+  c #000002",
"@  c #010103",
"#  c #3A5F4E",
"$  c #3D5F4F",
"%  c #3B5F51",
"&  c #3B604E",
"*  c #3B604F",
"=  c #3A614F",
"-  c #3C6150",
";  c #5A9275",
":  c #5B9177",
">  c #589377",
",  c #5A9277",
"<  c #002CA9",
"1  c #012DAA",
"2  c #004F9C",
"3  c #005AA0",
"4  c #0146BB",
"5  c #0047BB",
"6  c #0045BC",
"7  c #0046BC",
"8  c #0146BD",
"9  c #0047BD",
"0  c #0045BE",
"q  c #0046BF",
"w  c #0146BF",
"e  c #0048BB",
"r  c #0148BC",
"t  c #0048BE",
"y  c #0148BE",
"u  c #0050BE",
"i  c #0050BF",
"p  c #0051BF",
"a  c #0250BF",
"s  c #0055BF",
"d  c #0056BF",
"f  c #0059BD",
"g  c #0069B3",
"h  c #0068B4",
"j  c #0168B5",
"k  c #0069B5",
"l  c #0069B7",
"z  c #006BB6",
"x  c #0063BE",
"c  c #0163BE",
"v  c #0069BF",
"b  c #007CB0",
"n  c #007DB0",
"m  c #017DB1",
"M  c #0077B9",
"N  c #0075BB",
"B  c #0079B8",
"V  c #007AB9",
"C  c #007ABB",
"Z  c #0151C0",
"A  c #0050C1",
"S  c #0055C0",
"D  c #0056C0",
"F  c #0057C1",
"G  c #0055C2",
"H  c #005FC3",
"J  c #0061C2",
"K  c #0060C4",
"L  c #0161C5",
"P  c #0260C4",
"I  c #0060C6",
"U  c #009FA5",
"Y  c #009DA6",
"T  c #009EA7",
"R  c #019EA7",
"E  c #009FA7",
"W  c #019FA8",
"Q  c #009EA9",
"!  c #0086B3",
"~  c #0087B3",
"^  c #0082BC",
"/  c #0087BE",
"(  c #0190B8",
")  c #009BBA",
"_  c #009EBB",
"`  c #009FBC",
"'  c #00ABAF",
"]  c #02ABAE",
"[  c #00ACAC",
"{  c #00ACAE",
"}  c #01ADAF",
"|  c #00B3AD",
" . c #00B2AE",
".. c #00B3AF",
"X. c #00B4AF",
"o. c #00B7AF",
"O. c #00ACB0",
"+. c #00A0BC",
"@. c #00ABBC",
"#. c #00ABBD",
"$. c #00B3B0",
"%. c #02B2B0",
"&. c #00B4BD",
"*. c #658EBA",
"=. c #01C1B2",
"-. c #00C0B3",
";. c #02C1B2",
":. c #00C4B3",
">. c #01C1B4",
",. c #02C0B4",
"<. c #00C2B4",
"1. c #00C3B5",
"2. c #02C2B5",
"3. c #01C1B6",
"4. c #00C5B4",
"5. c #01CCB6",
"6. c #01CCB8",
"7. c #01CCB9",
"8. c #02CDB9",
"9. c #01D1B7",
"0. c #01D1B9",
"q. c #00D9BA",
"w. c #00DABA",
"e. c #00DBBA",
"r. c #00DBBB",
"t. c #00DCB9",
"y. c #01DDBA",
"u. c #00DCBB",
"i. c #00DBBD",
"p. c #01DCBC",
"a. c #00DCBD",
"s. c #00DDBE",
"d. c #39C1B3",
"f. c #3AC1B3",
"g. c #3BD3BA",
"h. c #3DD3BA",
"j. c #3BD4B8",
"k. c #3AD4BA",
"l. c #3CD4BB",
"z. c #5AD1BB",
"x. c #5ADDBE",
"c. c #5BDEBE",
"v. c #5BDEBF",
"b. c #5CDDBF",
"n. c #66D8B4",
"m. c #66D8B6",
"M. c #67D9B7",
"N. c #0091C0",
"B. c #3B8BC0",
"V. c #3B8AC2",
"C. c #5BADC3",
"Z. c #5CACC3",
"A. c #3BE5C0",
"S. c #3AE5C1",
"D. c #5BDDC1",
"F. c #5CDFC0",
"G. c #5BE9C3",
"H. c #59EAC3",
"J. c #5CEAC4",
"K. c #99D7B2",
"L. c #98E4B6",
"P. c #FFFCB5",
"I. c #FFFCB7",
"U. c #93F2C6",
"Y. c #94F1C5",
"T. c #95F2C5",
"R. c #96F1C6",
"E. c #95F2C6",
"W. c #96F3C6",
"Q. c #96F3C7",
"!. c #95F1C8",
/* pixels */
"                                                                                                                                ",
"                                                                                                                                ",
"                                                                                                                                ",
"                                                                                                                                ",
"                                                                                                                                ",
"                                                                                                                                ",
"                                                                                                                                ",
"                                                                                                                                ",
"                                                                                                                                ",
"                                                                                                                                ",
"                                                                                                                                ",
"                                                                                                                                ",
"                                                                                                                                ",
"                                                                                                                                ",
"                                                                                                                                ",
"                                                                                                                                ",
"                                                                                                                                ",
"                                                                                                                                ",
"                                                                                                                                ",
"                                                                                                                                ",
"                                                                                                                                ",
"                                                                                                                                ",
"                                                                                                                                ",
"                                                                                                                                ",
"                                                                                                                                ",
"                                                                                                                                ",
"                                                                                                                                ",
"                                                                                                                                ",
"                                                                                                                                ",
"                                                                                                                                ",
"                                                                                                                                ",
"                                                                                                                                ",
"                                                                                                                                ",
"                                                                                                                                ",
"                                                                  $ E.E.E.E.E.E.E.E.,                                           ",
"                                                          * E.E.E.v.>.>.>.>.>.>.>.>.g.E.,                                       ",
"                                                      * E.v.>.>.>.-.>.>.>.>.>.>.>.>.>.g.E.E.,                                   ",
"                                                  * E.b.>.>.>.>.>.>.>...{ >.>.>.>.>.>.>.>.g.E.E.,                               ",
"                                              - E.G.p.w.0.>.-.>.( 9 9 k E E E f.D.>.>.>.-.8.w.A.,                               ",
"                                          - E.G.w.w.w.0.>.-.( 9 9 9 9 9 k E E E { >.>.m.P.L.8.w.A.,                             ",
"                                        # G.w.p.w.p.y.0.>.( 9 9 9 9 9 9 9 g b 9 9 M >.m.P.P.L.8.A.E.,                           ",
"                                      * G.w.w.w.w.i.:.{ ( 9 9 9 9 9 9 9 9 i D 9 9 9 9 *.P.P.L.>.>.g.E.,                         ",
"                                    * D.8.9.8.y.w.w.:.{ ( 9 9 9 9 9 y 9 i D 9 9 9 9 9 9 M m.P.K.{ >.g.E.,                       ",
"                                  # v.>.-.>.5.w.i.w.:.E b 9 9 9 9 9 9 9 i D 9 9 9 9 9 9 M >.m.K.E { j.E.,                       ",
"                                * E.v.>.>.>.8.w.p.:.E E E b 9 9 9 9 9 A K D 5 9 y 9 9 9 < 2 >...E E { g.E.,                     ",
"                              % E.v.>...{ >...X.w.w.#.K K D 9 9 9 i K K K D 9 9 9 5 9 9 9 M >.$.E E { >.g.,                     ",
"                            * E.E.v...E { >...X.y.w.` 9 9 9 9 9 9 9 i K K J D 9 9 9 9 9 k { >...Q E { >.>.j.,                   ",
"                            * E.v...E { >.>...X.w.w._ 9 9 9 9 9 i D k E E ! K K s 9 9 k E { ..f.z.Q E { >.h.,                   ",
"                          $ E.v.>.( M >.>.>.>.) N.` 9 9 9 9 9 i D i K / >...E b 9 9 9 k E E f.Z.^ :.E { >.g.,                   ",
"                        * E.!.v.( V.J.:.O.>.>.) D 9 9 y 9 9 9 9 9 9 9 i D k b 9 9 y 9 9 k Q E X.4.E E { >.g.E.,                 ",
"                        * E.b.>...X.:.E { >.) D 9 9 9 9 9 9 9 9 9 9 9 9 i K D 9 9 9 9 9 9 9 k E E E E E { >.g.,                 ",
"                      * E.E.F.>.$.E E E E { ) s 9 9 9 ^ y.` 9 9 9 9 9 9 5 i s 9 5 9 9 9 9 9 9 k E E E E { >.g.,                 ",
"                      * E.v.>.>.>.>.$.E { >.>.( 9 9 ^ &.x f x e 9 9 9 9 9 i D 5 9 9 9 9 9 9 9 9 k ] >...{ -.j.E.,               ",
"                      % v.>.>.>.>...E { -.>.>.( 9 9 ^ +.9 f x 5 9 y 9 9 9 i D 9 9 9 9 9 9 9 9 9 k { >...{ >.>.g.,               ",
"                    * E.v.>.>.>...E E E E { >.>.) H K v M x 9 9 9 9 9 9 9 A D 9 9 9 9 y i D 9 k f.v.>.>.>.>.>.g.,               ",
"                    * U.v.>...E E E E E E E ! K H K D 9 9 i K D 9 9 9 9 9 i D 9 9 9 9 i K K B E E { >.>.>.>.>.g.,               ",
"                    * !.v.>.>.X.E E E E E ! D 5 9 9 9 5 9 9 9 i D 9 9 9 i D 9 9 9 ^ w.#.K B E E E { >.$.{ >.>.g.,               ",
"                    * v.>.>...E E E E E Q ! D 9 V.C.9 9 9 9 y 9 i D 9 9 5 9 9 i B b < 3 #.J B Q E E E E { >.>.g.,               ",
"                  - E.v.>.-...E f.z.E E ! D 9 9 9 9 9 y 9 9 9 9 i K D 9 9 9 A D k f.C.^ ` i K B E E E E { >.>.g.,               ",
"                  * E.v.>.-...E E E Q E ! D 9 9 9 9 9 9 9 9 9 9 i K s 9 9 i K K D k E b 9 9 i B Q E E { >.>.g.E.,               ",
"                  * E.v.>.>...E E E E Q E b 9 9 9 9 9 5 9 9 9 9 i K D 9 9 i D 9 9 9 9 9 9 9 9 9 k E E ] >.>.l.,                 ",
"                  * E.v.-.>.>.>...E E E E b 9 9 9 5 9 9 9 9 9 9 i K s 9 A K D 9 9 9 5 9 9 9 5 9 k E E { >.>.g.,                 ",
"                  * E.E.v.>.>.>.>...E E E b 9 9 9 9 9 9 9 9 9 9 i D 9 9 i D 9 9 y 9 9 9 5 9 9 g E E { >.>.>.g.,                 ",
"                    * E.E.b.>.>.>.>...Q E E b 9 9 9 9 9 A K K J / >.( 9 i D 9 9 9 9 9 9 9 9 k E E { >.>.>.g.E.,                 "
};
