/* XPM */
static char *result[] = {
/* columns rows colors chars-per-pixel */
"64 64 179 2 ",
"   c black",
".  c #010000",
"X  c #000100",
"o  c #010101",
"O  c #020001",
"+  c #000002",
"@  c #3A5F4E",
"#  c #3B5F51",
"$  c #3B604F",
"%  c #3A614F",
"&  c #5B9273",
"*  c #5B9275",
"=  c #599176",
"-  c #5B9177",
";  c #5B9376",
":  c #5A9277",
">  c #5A9279",
",  c #001D9F",
"<  c #004E9B",
"1  c #0047B9",
"2  c #0046BA",
"3  c #0146BB",
"4  c #0047BB",
"5  c #0045BC",
"6  c #0046BC",
"7  c #0146BD",
"8  c #0047BD",
"9  c #0045BE",
"0  c #0046BF",
"q  c #0146BF",
"w  c #0247BE",
"e  c #0048BB",
"r  c #0148BC",
"t  c #0148BE",
"y  c #0051BD",
"u  c #0050BF",
"i  c #0051BF",
"p  c #0250BF",
"a  c #0055BF",
"s  c #0058BC",
"d  c #0059BD",
"f  c #0076A4",
"g  c #0069B3",
"h  c #006BB3",
"j  c #0168B5",
"k  c #0069B5",
"l  c #006AB6",
"z  c #0063BE",
"x  c #0064BC",
"c  c #027BB0",
"v  c #007CB0",
"b  c #007DB0",
"n  c #017DB1",
"m  c #037CB1",
"M  c #007CB2",
"N  c #0077B9",
"B  c #0076BC",
"V  c #0079B8",
"C  c #007AB9",
"Z  c #024FC1",
"A  c #0055C0",
"S  c #0056C0",
"D  c #0055C2",
"F  c #0060C1",
"G  c #0061C2",
"H  c #0060C4",
"J  c #0061C4",
"K  c #0161C5",
"L  c #0060C6",
"P  c #0086A9",
"I  c #009FA5",
"U  c #009DA6",
"Y  c #009EA6",
"T  c #009EA7",
"R  c #019EA7",
"E  c #009FA7",
"W  c #019FA8",
"Q  c #009EA9",
"!  c #0086B3",
"~  c #0086B5",
"^  c #0082BC",
"/  c #0083BC",
"(  c #0183BD",
")  c #0086BE",
"_  c #0087BE",
"`  c #0088BC",
"'  c #0190B8",
"]  c #009FBC",
"[  c #3A8ABF",
"{  c #3C8CBF",
"}  c #00A0A5",
"|  c #00ABAD",
" . c #02ABAE",
".. c #00ADAC",
"X. c #00ACAE",
"o. c #00ADAE",
"O. c #01ADAF",
"+. c #00B2AC",
"@. c #00B3AD",
"#. c #00B2AE",
"$. c #00B3AF",
"%. c #02B2AF",
"&. c #00B7AF",
"*. c #00A0BC",
"=. c #01A0BD",
"-. c #00ABBF",
";. c #01B4B0",
":. c #00B6B1",
">. c #00B8B0",
",. c #5CADBE",
"<. c #00C0B1",
"1. c #01C1B2",
"2. c #00C0B3",
"3. c #00C1B3",
"4. c #00C4B3",
"5. c #01C1B4",
"6. c #00C0B5",
"7. c #02C0B4",
"8. c #03C1B5",
"9. c #00C2B4",
"0. c #00C3B5",
"q. c #02C2B5",
"w. c #00C1B6",
"e. c #01C1B6",
"r. c #01CCB6",
"t. c #02CBB8",
"y. c #01CCB8",
"u. c #01CCB9",
"i. c #02CDB9",
"p. c #01D1B9",
"a. c #02D0B9",
"s. c #02D2B8",
"d. c #00DABA",
"f. c #01DABB",
"g. c #00DBBB",
"h. c #00DCB9",
"j. c #00DCBB",
"k. c #01DCBC",
"l. c #3AC1B3",
"z. c #3AC0B5",
"x. c #3BD3BA",
"c. c #3BD4B8",
"v. c #3AD4BA",
"b. c #3CD4BB",
"n. c #3CD4BD",
"m. c #3AE4BF",
"M. c #5AD2B9",
"N. c #5AD1BB",
"B. c #5CD2BC",
"V. c #59DEBF",
"C. c #5BDEBE",
"Z. c #5BDEBF",
"A. c #5CDDBF",
"S. c #65D7B5",
"D. c #66D8B6",
"F. c #0091C0",
"G. c #3A8BC0",
"H. c #3C8CC1",
"J. c #5BADC2",
"K. c #5BADC3",
"L. c #3BE5C0",
"P. c #3AE6C0",
"I. c #5BDDC1",
"U. c #5ADFC0",
"Y. c #5CDFC0",
"T. c #5BE9C3",
"R. c #98E4B6",
"E. c #99E5B7",
"W. c #FEFBB6",
"Q. c #FFFCB7",
"!. c #94F1C5",
"~. c #96F1C5",
"^. c #95F2C5",
"/. c #96F1C6",
"(. c #95F2C6",
"). c #94F3C7",
"_. c #97F2C6",
"`. c #96F3C7",
"'. c #95F1C8",
/* pixels */
"                                                                                                                                ",
"                                                                                                                                ",
"                                                                                                                                ",
"                                                                                                                                ",
"                                                                                                                                ",
"                                                                                                                                ",
"                                                                                                                                ",
"                                                                                                                                ",
"                                                                                                                                ",
"                                                                                                                                ",
"                                                                                                                                ",
"                                                                                                                                ",
"                                                                                                                                ",
"                                                                                                                                ",
"                                                                                                                                ",
"                                                                                                                                ",
"                                                                                                                                ",
"                                                                                                                                ",
"                                                                                                                                ",
"                                                                                                                                ",
"                                                                                                                                ",
"                                                                                                                                ",
"                                                                                                                                ",
"                                                                                                                                ",
"                                                                                                                                ",
"                                                                                                                                ",
"                                                                                                                                ",
"                                                                                                                                ",
"                                                                                                                                ",
"                                                                                                                                ",
"                                                                                                                                ",
"                                                                                                                                ",
"                                                                                                                                ",
"                                                                                                                                ",
"                                                                                                                                ",
"                                                                                                                                ",
"                                                                                                                                ",
"                                                                                                                                ",
"                                                                                                                                ",
"                                                                                                                                ",
"                  .             X                           X : /.(.(.(.(.^.(.(.(.(.(.(.$             .                         ",
"                .   +                     .     . : (.(.^.(.^.x.5.5.5.5.2.5.5.5.3.5.5.U.(.(.(.$       o                         ",
"                      +                     : (.(.m.j.g.y.5.5.5.5.5.9.5.3.q.5.5.5.5.5.1.5.5.5.C.^.$                             ",
"                                      : (.(.P.g.g.i.5.5.q.5.5.5.5.5.5.5.5.5.5.9.5.2.5.5.5.5.7.5.5.Z.$                           ",
"                  +               : (.L.g.g.f.g.h.g.y.5.5.5.2.5.5.e.5.7.5.5.5.5.5.5.1.5.7.5.5.5.a.j.T.).$                       ",
"                          o     : P.j.g.h.g.g.g.y.q.5.5.5.7.3.5.X.T ;.q.5.5.e.5.5.5.5.5.9.5.5.p.g.g.h.y.C.$   +                 ",
"                              : L.g.u.p.g.g.g.g.y.5.5.5.9.5. .R T T U T #.9.5.5.5.5.5.R.Q.D.e.1.p.g.g.g.y.Z.%                   ",
"                      +     : n.5.5.5.s.d.g.d.g.y.5.5.5.5.O.T I T T k 4 8 0 ' 9.5.9.5.R.Q.W.S.5.5.p.g.g.r.5.U.@                 ",
".       .           .   X : c.5.5.5.2.X.4.g.h.g.&.$.1.5.N 8 7 n k 8 q 8 8 t 8 ' 5.5.5.R.Q.Q.D.| E $.p.k.y.5.5.Z.$               ",
"                        * n.5.<.5.5.5.X.Q 0.g.g.g.:.I l 8 8 8 5 8 8 8 8 8 8 8 8 v %.5.< f E.Q.D.X.$.q.5.5.5.5.5.V.$ .           ",
"      X o     o       : x.9.e.5.7.5.5.q.X.4.d.g.g.&.j 8 8 8 8 8 8 8 4 8 8 8 8 8 m k t 8 ' 5.R.D.X.T $.5.5.5.5.5.Y.$       + +   ",
"    X       .       > x.5.5.5.X.$.5.5._ H H -.g.^ 8 0 8 8 8 8 8 8 8 7 0 8 8 6 8 8 0 8 8 8 ' 2.C.l.T T $.5.5.5.q.Y.^.$   X       ",
".   o   +       O = x.e.5.5.| k ' 5.) p 7 8 8 6 0 8 8 8 0 8 8 S H J u 8 8 S u t 8 8 t q 8 0 K.G.] >.T $.5.5.5.5.V.(.$       +   ",
"              +   : x.5.1.X.k J.L.F.u 8 8 8 8 8 8 4 w 8 8 8 8 8 8 S H u S u 8 8 8 8 8 8 8 0 v 4.&.T Q $.5.5.8.5.5.Z.(.$         ",
"      .         : v.5.5.X.T T 4.t.` u 8 8 6 8 6 ] j.^ 6 8 8 8 8 8 8 S H H u 8 8 8 8 8 8 t 8 v I T T T $.1.5.5.5.5.Z.(.$         ",
"    o     +   ; x.2.5.5.X.I R $.5.N 8 8 8 8 8 ] ] s z d 8 8 8 8 6 8 t S y 8 8 8 8 t 8 8 8 v T $.X.T $.5.5.9.5.5.5.Z.(.$ X +     ",
"          . - '.x.5.5.5.5.X.T Q k 8 8 8 8 7 8 *.( 8 x d t 8 8 4 8 8 8 8 D u 8 4 8 8 8 8 M E ;.5.5.5.e.5.w.5.q.5.5.Z.(.$         ",
"            * /.x.2.5.1.e.X.C H u 4 8 a H L u 8 z B d 8 8 8 8 8 3 8 8 8 S u 8 8 8 8 8 8 S H H ~ M.x.e.5.5.5.5.5.5.C./.$         ",
"      .   & _.b.9.5...T T V Z 8 8 4 8 8 8 8 S F u 8 8 8 8 8 8 8 8 4 8 8 S G H H u 7 8 8 7 8 8 S ! $.1.X.+.5.5.5.5.I.!.$ o   +   ",
"      .   * _.b.5.X.T T k 8 8 8 t 4 4 6 4 r 8 0 A i 8 8 8 8 8 8 8 8 a H J u 8 8 ] g.^ 8 8 8 6 8 S ! T T $.5.5.0.5.A.(.$         ",
"      +   : ~.b.X.T E I g 8 8 8 4 4 4 4 8 4 6 2 0 D u 8 8 8 8 6 8 S K H u 8 9 b g , P ^ 8 7 8 8 S ! T T $.5.5.5.5.Z.(.$         ",
"    o     : `.z.T T T W B.H.8 8 4 1 1 4 ,.{ 4 4 8 8 S u 8 8 8 8 S u S u 8 8 8 v N.[ =./ 8 6 8 8 8 v T T @.1.5.5.2.Z.$   o     X ",
"          : `.x.o.T W T k 8 8 4 4 3 e 8 4 4 0 0 8 8 S u 6 8 8 8 8 8 S u 8 8 8 8 c T l 8 8 8 8 0 8 v T T $.5.5.6.Z.!.$           ",
"          o : (.l.T T U Y h 4 4 7 8 4 4 8 8 S H H H u 8 7 8 8 8 8 8 S u 8 8 8 8 8 8 4 8 8 8 8 8 v } T $.5.5.5.A.`.(.#     X     "
};
