/* XPM */
static char *result[] = {
/* columns rows colors chars-per-pixel */
"64 64 174 2 ",
"   c black",
".  c #010000",
"X  c #000100",
"o  c #010101",
"O  c #000201",
"+  c #000002",
"@  c #010002",
"#  c #010103",
"$  c #1E2F27",
"%  c #1F3026",
"&  c #1F3028",
"*  c #1E3229",
"=  c #1F302A",
"-  c #202F28",
";  c #001094",
":  c #001195",
">  c #0238B6",
",  c #0047BA",
"<  c #0146BB",
"1  c #0047BB",
"2  c #0045BC",
"3  c #0046BC",
"4  c #0146BD",
"5  c #0047BD",
"6  c #0046BF",
"7  c #0146BF",
"8  c #0247BE",
"9  c #0048BB",
"0  c #004BBB",
"q  c #0148BC",
"w  c #004ABD",
"e  c #0148BE",
"r  c #004BBE",
"t  c #024BBE",
"y  c #004CBC",
"u  c #004CBE",
"i  c #0057B9",
"p  c #0051BD",
"a  c #0250BD",
"s  c #0058B8",
"d  c #0058B9",
"f  c #0158B9",
"g  c #0059B9",
"h  c #0058BA",
"j  c #0059BA",
"k  c #005DBA",
"l  c #005EBA",
"z  c #005DBC",
"x  c #005EBC",
"c  c #0063BB",
"v  c #0064BC",
"b  c #006CBE",
"n  c #006DBF",
"m  c #1E68BD",
"M  c #1E68BF",
"N  c #0076BC",
"B  c #004BC0",
"V  c #005CC1",
"C  c #005CC3",
"Z  c #005FC3",
"A  c #015DC4",
"S  c #0060C4",
"D  c #1E68C1",
"F  c #0073C0",
"G  c #008DA9",
"H  c #008DAB",
"J  c #018EAC",
"K  c #009FA5",
"L  c #009DA6",
"P  c #009EA7",
"I  c #019EA7",
"U  c #009FA7",
"Y  c #0191AB",
"T  c #0091AC",
"R  c #0092AC",
"E  c #019DA9",
"W  c #019FA8",
"Q  c #009EA9",
"!  c #029FA8",
"~  c #018ABE",
"^  c #02A5AA",
"/  c #01A6AA",
"(  c #00A7AA",
")  c #02A7AB",
"_  c #01A6AC",
"`  c #00ABAB",
"'  c #1FAFAF",
"]  c #00BAAF",
"[  c #00A7B4",
"{  c #00A8B5",
"}  c #00B1B1",
"|  c #00B8B0",
" . c #00B9B1",
".. c #01BBB0",
"X. c #00BAB1",
"o. c #00B9B3",
"O. c #01BFB3",
"+. c #00BEBC",
"@. c #01C1B2",
"#. c #00C0B3",
"$. c #00C1B3",
"%. c #00C2B2",
"&. c #01C1B4",
"*. c #00C0B5",
"=. c #02C0B4",
"-. c #00C2B4",
";. c #00C3B5",
":. c #02C2B5",
">. c #00C1B6",
",. c #01C1B6",
"<. c #00C6B4",
"1. c #00C6B5",
"2. c #01C7B6",
"3. c #00C6B7",
"4. c #00C3BD",
"5. c #1ECBB8",
"6. c #1ECABA",
"7. c #1CCCB8",
"8. c #1FCCB9",
"9. c #00D0B8",
"0. c #01D1B9",
"q. c #00D0BA",
"w. c #00D6BA",
"e. c #00D7BA",
"r. c #01D7BB",
"t. c #00DABA",
"y. c #01DABB",
"u. c #00DBBB",
"i. c #00DCB9",
"p. c #00DCBB",
"a. c #00DBBD",
"s. c #01DCBC",
"d. c #00DDBC",
"f. c #31CDB5",
"g. c #33CDB5",
"h. c #1DE1BD",
"j. c #1EE0BD",
"k. c #76C29C",
"l. c #77C39D",
"z. c #76C39F",
"x. c #77C39F",
"c. c #78C29F",
"v. c #78C49E",
"b. c #77C2A1",
"n. c #79C3A0",
"m. c #78C4A0",
"M. c #77D2C3",
"N. c #77D5C3",
"B. c #76D0C4",
"V. c #77E7C1",
"C. c #78E1C0",
"Z. c #7AE2C1",
"A. c #79E7C0",
"S. c #79E7C2",
"D. c #76E9C2",
"F. c #77EEC4",
"G. c #78E8C0",
"H. c #7AE8C1",
"J. c #78E8C2",
"K. c #CDD8B8",
"L. c #CBF1B8",
"P. c #CDF0B8",
"I. c #FEFBB4",
"U. c #FFFCB7",
"Y. c #FFFDB8",
"T. c #93F2C6",
"R. c #94F1C5",
"E. c #95F2C5",
"W. c #96F1C6",
"Q. c #95F2C6",
"!. c #96F3C6",
"~. c #97F2C7",
"^. c #96F3C7",
"/. c #95F1C8",
/* pixels */
"                                                                                                                                ",
"                                                                                                                                ",
"                                                                                                                                ",
"                                                                                                                                ",
"                                                                                                                                ",
"                                                                                                                                ",
"                                                                                                                                ",
"                                                                                                                                ",
"                                                                                                                                ",
"                                                                                                                                ",
"                                                                                                                                ",
"                                                                                                                                ",
"                                                                                                                                ",
"                                                                                                                                ",
"                                                                                                                                ",
"                                                                                                                                ",
"                                                                                                                                ",
"                                                                                                                                ",
"                                                                                                                                ",
"                                                                                                                                ",
"                                                                                                                                ",
"                                                                                                                                ",
"                                                                                                                                ",
"                                                                                                                                ",
"                                                                                                                                ",
"                                                                                                                                ",
"                                                                                                                                ",
"                                                                                                                                ",
"                                                                                                                                ",
"                                                                                                                                ",
"                                                                                                                                ",
"                                                                                                                                ",
"                                              .   X                           X                         o   X                   ",
"                                      O       +   X   .                           o         X                 X                 ",
"                                X             .   . x.Q.^.Q.Q.Q.Q.Q.Q.Q.Q.E.&         X           +       . o                   ",
"                                    X X         l.T.T.Q.Q.5.&.&.&.&.&.:.&.&.S.Q.Q.&     o     X o +     o                       ",
"                                              x./.Q.5.&.&.-.-.&.-.@.&.&.@.&.%.&.J./.Q.~.&                                       ",
"                                        c.E.Q.j.u.1.@.&.&.&.&.&.#.&.&.&.&.&.=.&.&.&.w.F.Q.E.$   +                               ",
"                                    z.Q.j.p.u.u.1.=.&.&.&.&.=.,.&.&.&.&.&.@.&.&.&.&.r.u.u.F.T.Q.&       # +                     ",
"                                  v.j.u.t.u.s.1.:.&.:.&.&.&.:.&.&.#.A.5.&.&.&.&.&.&.w.u.i.y.F.!.Q.& +     o                     ",
"                              x.Q.j.u.u.u.u.3.&.-.&.-.:.&.&.&.&.&.&.&.&.&.&.&.P.U.g.*.w.u.a.u.F.Q.Q.&   X     .                 ",
"                            x.^.h.1.w.s.u.u.1.&.&.-.&.&.&.@.-.&.z 5 5 4 6 5 { L.U.Y.g.&.w.u.1.@.J.Q.Q.& + X                     ",
"                  X       m.^.j.1.&.w.u.t.s.1.&.,.&.&.&.&.&.#.x 5 5 3 5 5 5 5 K.U.U.g.&.( X.&.&.#.J.Q.&     .                   ",
"                          x.E.j.1.&.e.u.u.u.y.<.:./ ] :.&.&.@.l 5 4 5 5 4 5 5 1 { P.I.g.=./  .&.&.&.J.Q.Q.& o                   ",
"                        z.~.6.&.&.&.w.i.u.u.1.&.&.) P  .&.&.k 5 5 5 5 5 e 3 5 5 { ,.P.f.&.) P o.&.&.&.J.Q.&                     ",
"                      x.W.5.&.&.&.&.w.u.d.u.1.&./ P P P Q ] x 1 5 5 6 5 5 5 5 5 { &.#.&.&.( P P ] &.&.&.J.&                     ",
"                      x.E.8.&.@.&./ P 9.u.u.2./ P P f 8 5 5 5 5 5 5 5 5 5 5 5 5 { &.&.&.&.&./ P | &.&.&.J.Q.&                   ",
"                  .   x.5.&.&.&.&.%./ q.u.u.1./ P s 5 5 5 5 5 C Z r 4 5 5 5 5 5 5 [ &.-.&.&./ P P  .&.&.&.J.&                   ",
".       . o   + o   k.5.&.O./  .&.&.&./ 9.` P W d 5 5 5 5 1 5 5 5 C S r 5 5 ; > 5 4 6 { &./ L P P  .&.:.&.H.Q.$     @           ",
"  o               m.Q.5.&./  .&.&.&.-./ P W P P d 6 5 5 3 5 5 5 3 5 C r 5 V r 5 5 5 5 5 { / P U P  .&.=.&.&.J.Q.-               ",
"        o     .   m.5.&.^  .&.&.&.:.#.&./ K P P g 5 5 5 6 5 5 5 4 5 C S w C t 5 5 { J.m 3 H P P P P  .&.&.&.G.R.&               ",
"  .             b.Q.5./ P d { &.&.&.,.&./ P P d 5 5 5 , 5 5 3 9 3 < 5 7 C S r 5 5 B.D +.v H P P P  .&.&.#.&.&.J.E.&   o         ",
"                l.5.&./ h B.j.1.&.&.&.$.#./ n r 5 1 5 5 5 1 5 e 5 5 5 5 e C r 5 5 5 +.c 5 H  ./ P ] @.&.-.&.,.S.Q.&             ",
"        .     x.Q.5./ P P 0.1.&.:.&.&.&.@.F r 5 5 5 5 6 5 5 5 5 5 5 5 5 5 A r 5 5 5 5 5 6 { &.&.&.&.&.&.&.@.-.J.Q.& .           ",
"            + x.Q.' Q P P P  .&.-.&.,.&.;.F 4.u.v 4 5 5 5 5 5 5 5 5 5 5 5 5 C t 5 5 5 5 H | &.&.&./  .&.&.&.&.&.J.=         X   ",
"              l.Q.7./  ./ P P  .&.&.=.&.&.r.~ a b p 6 5 3 5 5 5 5 5 5 5 5 C S w 5 5 5 5 H  .&.&.&./ P  .&.&.&.:.D.&             ",
"            + n.5.@.-.&.( P  ./ P  .&.F S 4.v 5 b p 5 5 5 5 4 5 5 5 e 5 4 5 C r 5 5 5 5 H ..&.#.&.&./  .&.&.-.&.V.Q.&         X ",
"  .         x.Q.5.&.&./ P P P P P  .F r 5 4 b N p C y 5 5 5 5 5 C r 5 e 5 C S r 5 6 C S S N.8.&.&./ P  .&.&.&.J.Q.Q.&         X ",
"          + l.Q.5.&./ I P P P P P j C r 1 5 5 5 5 6 A 0 5 5 5 5 5 C S r C r 5 5 5 5 5 5 3 C Y L  ./ I ] &.&.#.&.J.Q.*   X   X   ",
"            z.Q.5._ P P P P P W P i C u 6 e 5 5 5 5 5 C r 5 5 5 5 5 5 C r 1 +.u.v 6 5 3 5 5 C T P P P X.&.&.-.&.J.Q.%     o     ",
"            x.Q.' P P W P P P L P d 5 5 5 5 8 5 5 5 5 C r 5 1 e q 5 5 V r J d : } v 5 5 2 5 C R P P P  .&.&.&.&.J.Q.$           ",
"            x.Q.' P Z.' I P P P P f M.M 5 5 5 5 5 5 5 C B 5 4 5 5 3 5 C r H C.M +.v 5 5 5 5 H Q P P K  .&.&.-.&.J.Q.&   .       ",
"      +     x.Q.5./ Q P E P U E ! d 3 5 5 5 5 5 5 1 V r 6 5 5 5 1 5 5 C r 5 G P d 5 1 e 1 5 H P U P  .&.,.&.&.J.^.$             ",
"    X       x.W.8.&./ P P P P Q P P h 5 5 e 5 5 5 C w 5 5 1 5 5 6 5 5 5 C u 5 5 1 5 5 5 H P P L P  .&.&.&.>.S.Q.Q.$     .       "
};
