/* XPM */
static char *result[] = {
/* columns rows colors chars-per-pixel */
"64 64 172 2 ",
"   c black",
".  c #010000",
"X  c #000100",
"o  c #010100",
"O  c #010101",
"+  c #020100",
"@  c #000201",
"#  c #000002",
"$  c #010103",
"%  c #1E2F27",
"&  c #1F3028",
"*  c #1F302A",
"=  c #202F28",
"-  c #021095",
";  c #022F96",
":  c #0139B4",
">  c #023AB5",
",  c #0047BB",
"<  c #0045BC",
"1  c #0046BC",
"2  c #0146BD",
"3  c #0047BD",
"4  c #0045BE",
"5  c #0046BF",
"6  c #0146BF",
"7  c #0148BC",
"8  c #004ABD",
"9  c #0048BE",
"0  c #0148BE",
"q  c #004BBE",
"w  c #024BBE",
"e  c #004CBC",
"r  c #0051BD",
"t  c #0058B9",
"y  c #0158B9",
"u  c #0059B9",
"i  c #0058BA",
"p  c #0159BA",
"a  c #0259BA",
"s  c #005EBA",
"d  c #005EBC",
"f  c #0063BE",
"g  c #0064BC",
"h  c #006CBE",
"j  c #016CBE",
"k  c #006CBF",
"l  c #006DBF",
"z  c #026DBF",
"x  c #0075BB",
"c  c #336ABC",
"v  c #004BC0",
"b  c #005BC2",
"n  c #025BC3",
"m  c #005DC1",
"M  c #005CC3",
"N  c #005FC3",
"B  c #005BC4",
"V  c #015DC4",
"C  c #0061C2",
"Z  c #0060C4",
"A  c #0161C5",
"S  c #1E68C1",
"D  c #018CAB",
"F  c #008DAB",
"G  c #028DAC",
"H  c #018EAC",
"J  c #009FA5",
"K  c #009DA6",
"L  c #009EA7",
"P  c #019EA7",
"I  c #009FA7",
"U  c #0090AB",
"Y  c #0091AC",
"T  c #0091AE",
"R  c #019FA8",
"E  c #009EA9",
"W  c #01A4A9",
"Q  c #00A5A9",
"!  c #01A6A8",
"~  c #00A7A8",
"^  c #01A6AA",
"/  c #00A7AA",
"(  c #02A7AB",
")  c #00A6AC",
"_  c #01A6AC",
"`  c #00ABAB",
"'  c #01AAAD",
"]  c #1FAFAF",
"[  c #00BAAF",
"{  c #00A7B4",
"}  c #01A7B5",
"|  c #00A8B3",
" . c #00A8B5",
".. c #00AEB5",
"X. c #00AEB7",
"o. c #00B8B0",
"O. c #00B9B1",
"+. c #01B9B1",
"@. c #00BAB1",
"#. c #00B8B2",
"$. c #00B9B3",
"%. c #01BAB2",
"&. c #01BFB3",
"*. c #00BEBC",
"=. c #00BFBC",
"-. c #01C1B2",
";. c #00C0B3",
":. c #00C1B3",
">. c #00C2B2",
",. c #01C1B4",
"<. c #02C0B4",
"1. c #00C2B4",
"2. c #00C3B5",
"3. c #02C2B5",
"4. c #01C1B6",
"5. c #02C2B7",
"6. c #00C6B5",
"7. c #00C7B5",
"8. c #00C6B7",
"9. c #00C8BB",
"0. c #1FCAB8",
"q. c #1ECBB8",
"w. c #1ECABA",
"e. c #1CCCB8",
"r. c #00D0B6",
"t. c #00D0B8",
"y. c #00D6BA",
"u. c #01D7BB",
"i. c #00DABA",
"p. c #01DABB",
"a. c #00DBBB",
"s. c #00DCB9",
"d. c #00DCBB",
"f. c #00DABC",
"g. c #00DBBD",
"h. c #01DCBC",
"j. c #32CCB4",
"k. c #33CDB5",
"l. c #33CCB7",
"z. c #1EE0BD",
"x. c #77C39D",
"c. c #77C39F",
"v. c #78C29F",
"b. c #77C2A1",
"n. c #78C4A0",
"m. c #78E2BE",
"M. c #76D0C4",
"N. c #77D5C5",
"B. c #78E1C0",
"V. c #78E6C1",
"C. c #79E7C2",
"Z. c #76E9C2",
"A. c #77EEC4",
"S. c #78E8C0",
"D. c #78E8C2",
"F. c #79E9C3",
"G. c #78E8C4",
"H. c #79EEC4",
"J. c #CDF0B8",
"K. c #FFFBB7",
"L. c #FFFCB7",
"P. c #93F3C5",
"I. c #93F2C6",
"U. c #94F1C5",
"Y. c #95F2C5",
"T. c #96F1C6",
"R. c #95F2C6",
"E. c #97F2C6",
"W. c #96F3C6",
"Q. c #96F3C7",
"!. c #95F1C8",
"~. c #96F2C9",
/* pixels */
"                                                                                                                                ",
"                                                                                                                                ",
"                                                                                                                                ",
"                                                                                                                                ",
"                                                                                                                                ",
"                                                                                                                                ",
"                                                                                                                                ",
"                                                                                                                                ",
"                                                                                                                                ",
"                                                                                                                                ",
"                                                                                                                                ",
"                                                                                                                                ",
"                                                                                                                                ",
"                                                                                                                                ",
"                                                                                                                                ",
"                                                                                                                                ",
"                                                                                                                                ",
"                                                                                                                                ",
"                                                                                                                                ",
"                                                                                                                                ",
"                                                                                                                                ",
"                                                                                                                                ",
"                                                                                                                                ",
"                                                                                                                                ",
"                                                .     .           . $                                                           ",
"                                                      X               .               O   #                                     ",
"                                                                      O .               . O   #                                 ",
"                                                    X     X   # O                                                               ",
"                                                    .   .                       X           #                                   ",
"                                                                                                                                ",
"                                                                  = R.E.R.R.~.P.I.x.  # .                                       ",
"                                                          # & R.R.I.U.R.R.R.R.R.Y.R.R.c.      .                                 ",
"                                  .                   & R.R.I.G.4.,.,.,.,.,.-.,.-.,.w.R.c.      O   X X                         ",
"                                  .         #     & R.W.D.,.;.,.<.,.,.;.,.,.,.,.,.,.,.0.R.c.      .     o                       ",
"                                          .   & R.A.h.u.,.,.,.,.,.,.,.,.,.,.,.,.,.2.,.,.e.R.x.                                  ",
"                                  O #     & R.A.p.a.y.,.,.,.,.,.,.,.;.,.-.1.q.C.<.,.,.6.a.z.R.R.c..       #                     ",
"                                .       & R.A.a.a.y.,.,.,.,.3.,.,.,.,.,.,.&.;.,.,.,.,.,.7.a.a.z.R.c..                           ",
"                                    & R.R.A.f.s.s.y.,.,.,.,.,.,.,.,.,.O.L R L ^ -.k.K.J.,.6.g.a.z.c.  .       @                 ",
"                                  & Q.Y.A.p.a.g.a.a.y.,.-.,.,.,.| 3 3 3 1 2 3 3 d k.L.L.J.,.6.a.y.q.c.                          ",
"                                & R.R.H.y.8.a.a.a.t.^ ,.,.,.,.{ 3 3 5 3 3 1 1 3 3 c L.L.J.,.+.^ ,.;.q.n.                        ",
"                .         .   * T.R.A.y.,.$.` d.a.t.L ! 5.,. .1 , 2 5 3 3 3 6 4 3 s 4.l.L.J.O.L ^ ,.q.R.c.    .                 ",
"                            & R.R.D.,.,.,.O.L ' a.t.R L ^ ,.} 3 3 3 3 3 3 5 3 3 3 , s ,.j.J.,.o.L ^ ,.q.R.c.    @               ",
"                      $ X   & R.S.,.,.,.<.,.$.` t.L L L L F 4 1 q M 2 3 2 5 3 3 3 3 s ,.,.,.,.O.L ^ ,.,.q.c.                    ",
"                          & R.R.D.,.,.,.,.,.,.O.L L L L L F 3 q Z Z B 3 3 3 1 3 > - s 3.,.,.,.,.[ I ^ ,.3.q.c.  . X     .   +   ",
"                  X     # & R.D.1.,.,.o.^ ,.3.%.L I L L G 3 1 3 1 q Z M 3 5 3 3 3 a P ^ <.,.,.,.O.L ^ ,.-.q.R.x.                ",
"                X X       & Z.,.,.;.O.L ^ ,.,.,.[ L L F 3 3 2 3 3 3 q Z Z b 3 3 3 3 i ^ q.B.^ O.L L L ( ,.q.Y.b.                ",
"                    #   & I.C.,.,.,.O.J ^ :.,.4.O.J H 3 3 3 3 3 3 3 q l L Y b 3 q M 3 S M.f t.L L L L ^ -.w.Y.c.  #             ",
"                    O   & R.D.,.,.O.F s ,.3.,.,.4.,.X.M 3 5 3 3 3 3 3 3 i J Y Z M 3 3 3 g r.L L L L L ^ ,.,.q.R.x.          O   ",
"                  X     & F.,.,.@.F S H.y.-.,.3.,.3.X.M 1 3 3 3 3 2 3 3 3 3 q M 3 3 1 , 2 t L L L L R ^ 1.,.q.Y.c.        .     ",
"                  O   & R.D.<.,.O.L ` y.,.,.,.,.,.X.V 3 3 3 3 1 3 3 3 3 5 4 q M 3 3 3 3 3 3 t L E L L L ^ ,.,.q.v.              ",
"                  X   & D.,.,.O.L L E ^ 4.1.,.,...B 3 g a.*.1 3 3 3 0 3 3 3 q M 3 3 3 3 0 3 i L E L L L / ,.,.0.c.          O   ",
"                      & G.,.,.,.O.L L L ( ,.,.,.X.M g 9.h r h 0 3 3 5 3 3 e Z M 3 3 3 3 1 3 t L L W 5.O.) O.( q.R.x.    #   .   ",
"                      & G.,.;.,.O.L K K L P _ 4.X.M g =.1 r j 3 3 , 3 5 5 q Z M 3 3 < , 3 9 t L ^ ,.-.,.,.O.^ q.R.c.  O         ",
"                    # & D.,.,.,.O.L L L L K ^ ,.X.n 1 r x k 3 3 3 3 3 3 1 3 q M 3 3 3 3 1 3 p ] D.<.,.,.,.O.Q q.Q.c.      $     ",
"                    & R.D.,.,.%.L L L L L L L ^ ,.X.b 3 3 3 3 1 3 3 3 q M 3 3 q M 3 3 q M t L L ^ ,.,.,.O.L ^ ,.q.c.  O         ",
"                    & R.V.,.,.O.L L E L L L L L L L T Z M 3 3 3 3 3 3 3 q M q A M 3 3 3 8 C l I ^ ,.,.O.L P ^ ,.q.c.            ",
"                O   & R.D.;.O.] m.L L K L L L J Y Z Z M 3 q Z M 3 2 3 3 3 q Z M 3 f i.*.3 3 q l K L L L L R Q ,.q.c.. $ #     # ",
"                  X   & D.,.1.O.L L R L L J ] N.M 3 3 3 3 3 3 q M 5 3 3 v C Z M u F : ; *.3 q z L L L L L ^ >.,.q.c.            ",
"                      & D.-.,.O.L L L E L L Y M 3 , 3 3 3 3 3 5 w V 3 1 q Z M 5 t ] M.g =.3 q N l L L E P ^ ,.,.q.c.            ",
"                      & !.D.,.,.O.L L L L L U n 3 3 0 3 3 7 3 , q m 3 3 q Z M 3 3 y L D 3 3 3 q l L L K L ^ ,.,.q.c.    #       ",
"                      & R.D.,.;.,.+.J L L R Y n 3 3 3 3 3 3 3 1 8 M 3 3 e Z M 3 3 3 3 3 0 5 , t L L L L _ ,.;.,.e.c.          # ",
"                        % R.C.;.,.,.,.O.L L F 3 3 3 3 3 1 3 3 2 q M 3 3 q Z Z M , 3 3 3 3 5 3 t L L J ^ ;.,.,.,.q.c.      .     ",
"                        & R.R.D.,.,.,.,.#.P L F 3 3 1 3 3 5 3 3 e V 3 2 3 q Z M 3 3 3 3 2 3 y L L L ~ <.,.,.,.,.q.c.#   #       ",
"                  o X     % R.D.<.,.-.,.,.O.L L F 3 3 1 3 3 3 q M 3 3 3 0 5 q Z M 5 3 3 3 t L L L L ^ ,.,.3.,.q.R.c.  X         "
};
