/* XPM */
static char *result[] = {
/* columns rows colors chars-per-pixel */
"64 64 177 2 ",
"   c black",
".  c #010000",
"X  c #000100",
"o  c #010100",
"O  c #010101",
"+  c #020001",
"@  c #000200",
"#  c #000201",
"$  c #000002",
"%  c #3A5F4E",
"&  c #3D5F4F",
"*  c #3B5F51",
"=  c #3D5F51",
"-  c #3B604F",
";  c #3A614F",
":  c #3A6053",
">  c #3C6150",
",  c #599176",
"<  c #5B9177",
"1  c #589377",
"2  c #5B9376",
"3  c #5A9277",
"4  c #5B9378",
"5  c #5A9279",
"6  c #002CA9",
"7  c #004F9C",
"8  c #005AA0",
"9  c #0046BA",
"0  c #0047BA",
"q  c #0047BB",
"w  c #0045BC",
"e  c #0046BC",
"r  c #0146BD",
"t  c #0047BD",
"y  c #0046BF",
"u  c #0146BF",
"i  c #0047BF",
"p  c #0048BB",
"a  c #0048BE",
"s  c #0148BE",
"d  c #004FBE",
"f  c #014FBE",
"g  c #0051BD",
"h  c #0050BF",
"j  c #0051BF",
"k  c #0055BF",
"l  c #0059BD",
"z  c #007BAF",
"x  c #007CAF",
"c  c #0168B5",
"v  c #0069B5",
"b  c #006AB4",
"n  c #0069B7",
"m  c #0063BE",
"M  c #0064BC",
"N  c #027BB0",
"B  c #007CB0",
"V  c #007DB0",
"C  c #0078B7",
"Z  c #0077B9",
"A  c #0077BA",
"S  c #0177BD",
"D  c #0079B8",
"F  c #0179B8",
"G  c #0147C0",
"H  c #0151C0",
"J  c #0050C1",
"K  c #0055C0",
"L  c #0056C0",
"P  c #0057C1",
"I  c #0055C2",
"U  c #005FC3",
"Y  c #0061C2",
"T  c #0060C4",
"R  c #0260C4",
"E  c #009FA5",
"W  c #009DA6",
"Q  c #009EA7",
"!  c #019EA7",
"~  c #009FA7",
"^  c #019FA8",
"/  c #009EA9",
"(  c #009FA9",
")  c #019FAA",
"_  c #0086B3",
"`  c #0186B3",
"'  c #0087B4",
"]  c #0081BB",
"[  c #0082BC",
"{  c #0087BE",
"}  c #019ABA",
"|  c #009BBA",
" . c #009FBC",
".. c #00ABAB",
"X. c #00ABAD",
"o. c #02ABAE",
"O. c #00ACAC",
"+. c #00ACAE",
"@. c #00ADAE",
"#. c #01ADAF",
"$. c #00B3AD",
"%. c #00B2AE",
"&. c #00B3AF",
"*. c #02B2AF",
"=. c #00B7AF",
"-. c #00ACB0",
";. c #00A0BA",
":. c #00A0BC",
">. c #01B4B0",
",. c #01B3BD",
"<. c #01C1B2",
"1. c #00C0B3",
"2. c #00C4B2",
"3. c #00C4B3",
"4. c #01C1B4",
"5. c #02C0B4",
"6. c #03C1B5",
"7. c #00C2B4",
"8. c #02C2B5",
"9. c #01C1B6",
"0. c #00C5B4",
"q. c #01CCB8",
"w. c #01D1B7",
"e. c #01D1B9",
"r. c #00D2B9",
"t. c #01DABB",
"y. c #00DBBB",
"u. c #00DCB9",
"i. c #00DCBB",
"p. c #00DBBD",
"a. c #01DCBC",
"s. c #3AC1B3",
"d. c #3BC2B4",
"f. c #3AD2B9",
"g. c #3BD3BA",
"h. c #3DD3BA",
"j. c #3BD4B8",
"k. c #3AD4BA",
"l. c #3BD3BC",
"z. c #3CD4BD",
"x. c #5AD1BB",
"c. c #5BD1BB",
"v. c #5ADDBE",
"b. c #59DFBE",
"n. c #59DEBF",
"m. c #5BDEBE",
"M. c #5BDEBF",
"N. c #65D9B6",
"B. c #66D8B6",
"V. c #68D8B4",
"C. c #0091C0",
"Z. c #3B8BC0",
"A. c #5AACC1",
"S. c #5BADC3",
"D. c #3BE5C0",
"F. c #3BE5C1",
"G. c #3AE6C0",
"H. c #5BDDC1",
"J. c #5DDEC0",
"K. c #5BE9C1",
"L. c #5AE8C2",
"P. c #5BE9C3",
"I. c #5DE9C4",
"U. c #98E4B6",
"Y. c #99E5B7",
"T. c #FFFCB5",
"R. c #FFFCB7",
"E. c #FFFCB8",
"W. c #FFFDB8",
"Q. c #93F2C6",
"!. c #94F1C5",
"~. c #95F2C5",
"^. c #96F1C6",
"/. c #95F2C6",
"(. c #96F3C7",
"). c #93F2C8",
"_. c #95F1C8",
/* pixels */
"                                                                                                                                ",
"                                                                                                                                ",
"                                                                                                                                ",
"                                                                                                                                ",
"                                                                                                                                ",
"                                                                                                                                ",
"                                                                                                                                ",
"                                                                                                                                ",
"                                                                                                                                ",
"                                                                                                                                ",
"                                                                                                                                ",
"                                                                                                                                ",
"                                                                                                                                ",
"                                                                                                                                ",
"                                                                                                                                ",
"                                                                                                                                ",
"                                                                                                                                ",
"                                                                                                                                ",
"                                                                                                                                ",
"                                                                                                                                ",
"                                                                                                                                ",
"                                                                                                                                ",
"                                                                                                                                ",
"                                                                                                                                ",
"                                                      .                                                                         ",
"                                                      X                     X                                                   ",
"                                                                                                                                ",
"                                                . X       +       X         X                                                   ",
"                                                        .       X     o     O                                                   ",
"                                                      +             .                                                           ",
"                                                                .                                                               ",
"                                                              : Q./.~.~.3   $                                                   ",
"                                              O     * /././.!./.(.)._./._./././.3 $           X                                 ",
"                                      .         - Q./././.M.4.4.4.4.<.4.7.4.g.(.(./.3       O           .     O                 ",
"                                    X       - /././.M.4.4.<.4.9.4.4.4.4.5.4.5.5.g./././.3     $                                 ",
"                                          - /.P.y.w.4.4.5.5.4.4.4.1.4.4.4.4.4.4.4.4.h./././.3 .   $   .   X                     ",
"                                      - /.K.y.e.4.4.4.4.4.4.4.4.8.1.4.4.4.4.4.4.4.q.i.y.y.G./.3       $ .                       ",
"                                    - P.y.p.y.e.4.4.4.4.4.4.4.1.4.4.4.g.m.4.4.4.4.4.q.u.y.y.D./.3                               ",
"                                  - P.y.y.y.y.r.4.4.4.8.4.&.E ..4.8.4.4.4.4.4.N.E.Y.4.q.y.t.y.F.(.,     $ O                     ",
"                                & P.a.y.y.y.e.9.4.4.4.4.*.Q B t t t t t Z 4.4.B.R.R.U.4.q.y.y.e.z./.1                           ",
"                . $ O   $   . = I.y.3.=.a.y.e.4.4.4.4.&.Q B t t t t t q y t C V.T.W.U.4.&.@.4.<.4.g./.3                         ",
"                $       $ . - /.M.9.&.=.y.y.y.3.+.4.4.&.~ N s t t t t t q t t Z 4.B.T.U.&.Q +.4.4.g./.3                         ",
"                          - /.M.4.9.&.Q =.y.y.0.! X.$.W B t t t t t t G t t t Z 4.4.B.U.4.*.( +.4.4.g./.3                       ",
"                        X & /.v.4.4.&.W =.y.3.Q Q Q E Q V t r t t t y q 9 r t A 4.4.9.4.4.4.&.+.4.4.4.g.5     $                 ",
"                        & /.M.4.9.4.4.&.W =.2.^ Q B t t t h T L s t e t t t 6 7 4.4.4.4.4.4.&.! o.4.4.7.g.3                     ",
"                        - m.8.4.4.4.9.4.&.Q ! Q B w t t t t h T R T L t t t h L t Z 4.4.4.&.~ Q +.4.4.4.g.<                     ",
"                      % (.M.8.4.>.+.<.4.&.Q Q B t t t t t t t y h T T L t H L t t Z j.c.Q / Q Q +.4.5.5.g./.4                   ",
"                      - M.4.4.&.+.4.9.4.&.Q Q B t s p t q t t t h { | T T L t t t Z.A.[ 3.Q Q / ! #.5.8.4.g.3                   ",
"                    - /.M.4.&.Q @.4.<.4.4.&.Q N t t t t t t t q t t t t h L s t t s ]  .v ~ Q Q +.7.4.4.4.g.3       X           ",
"                  - /.M.4.$.Q z Z <.4.4.4.4.| L t t y t t t t u t t t t h Y L t t t t s n Q Q Q +.4.4.4.4.g./.3         X       ",
"                  - ~.H.&.Q V Z.L.e.4.4.4.| L t t t r t t q e t t t t t t h k q y q t t v Q +.4.4.4.7.4.4.1.g.3         .       ",
"                - /.M.1.*.Q Q =.e.1.4.4.} L e t t t t t t t t t i t e t t h L t t t t s c +.4.4.4.9.4.4.4.4.g./.4             + ",
"                % /.v.4.&.Q / Q / +.4.4.| L t t t e t t t t t r t t t t t h L t t q t v E +.4.4.4.&.+.4.4.8.g./.2               ",
"                - /.H.4.&.Q Q Q Q Q +.&._ k t G [ y. .t t t q t t t r t t h T L t t r b E +.4.4.5.&.Q +.<.<.g./.3               ",
"                - M.4.4.6.%.Q ~ ! ~ Q Q _ L e [ ,.m l M r q e t r t t t t t h L y t t c ! X.4.4.7.4.&.O.4.4.9.k.5               ",
"                * n.5.4.4.&.Q / Q ^ ~ Q Q ' T C. .t l m t r t t t h K t t q h P r e h T D ~ s.b.4.&.Q +.4.4.4.g.3             . ",
"                - b.4.4.&.Q Q Q ~ Q ! Q _ P t t l S m h T L t t t t h L t h L t t s q t h D Q Q Q Q Q Q -.4.4.g.3       O . O   ",
"              . - M.4.4.&.~ ~ Q Q Q Q _ L t t t s t t t t h L y q t y h T T I [ y.:.e t e f D Q Q Q Q Q +.4.4.g./.4             ",
"      X       ; /.M.4.4.g.x.Q Q Q Q ^ ` L t t t i t y t t t h L t t t t h L v B 6 8  .t t h F ! Q Q Q +.8.4.4.g./.1 .           ",
"        .   . > /.M.4.7.&.Q Q ) Q Q Q x Z.S.t t t t t t t r h L t t t t h L v d.S.[ ;.t t t v Q ^ Q Q +.4.4.4.l./.3             ",
"              - /.M.4.4.4.&.) ^ Q / ^ B t t t s t a t t t q h I t t t t d L u n E B t t t t v Q Q ! W +.4.9.4.g.^.3 $       #   ",
"      O         - (.M.4.4.&.Q Q Q Q Q Q B r y t t t y e t r j L y t t t H U L t r t t t t t v Q Q Q X.4.4.4.<.g./.3     .       ",
".         O       - M.4.4.<.1.&.Q Q W Q B t t t t t t t t g L t t t e t t h L t t t t y u v ) Q Q Q O.<.9.4.4.f.3     .         ",
".                   - J.4.4.4.4.4.&.^ Q ~ B t t t e 9 t h L t t t t s t r t J L t 0 t t v / Q +.4.5.4.4.4.7.g.~.3 $       @     "
};
