/* XPM */
static char *result[] = {
/* columns rows colors chars-per-pixel */
"64 64 171 2 ",
"   c black",
".  c #010000",
"X  c #000100",
"o  c #010100",
"O  c #010101",
"+  c #020001",
"@  c #000002",
"#  c #010002",
"$  c #3A5F4D",
"%  c #3B614C",
"&  c #3B604E",
"*  c #3B604F",
"=  c #3A6053",
"-  c #3C6150",
";  c #5A9275",
":  c #589377",
">  c #5A9277",
",  c #5B9378",
"<  c #5A9279",
"1  c #011EA0",
"2  c #002BA8",
"3  c #002CA9",
"4  c #005AA0",
"5  c #0146BB",
"6  c #0047BB",
"7  c #0045BC",
"8  c #0046BC",
"9  c #0146BD",
"0  c #0047BD",
"q  c #0045BE",
"w  c #0046BF",
"e  c #0047BF",
"r  c #0048BB",
"t  c #0148BE",
"y  c #004FBE",
"u  c #0051BD",
"i  c #0050BF",
"p  c #0250BF",
"a  c #0056BF",
"s  c #0058BC",
"d  c #0059BD",
"f  c #0069B5",
"g  c #006AB5",
"h  c #0063BE",
"j  c #027BB0",
"k  c #007CB0",
"l  c #007DB0",
"z  c #007CB2",
"x  c #0078B7",
"c  c #007AB6",
"v  c #0076B8",
"b  c #0077B9",
"n  c #0076BC",
"m  c #0079B8",
"M  c #0179B8",
"N  c #0078B9",
"B  c #007AB8",
"V  c #0151C0",
"C  c #0050C1",
"Z  c #0151C2",
"A  c #0055C0",
"S  c #0054C1",
"D  c #0056C0",
"F  c #0057C1",
"G  c #0055C2",
"H  c #0060C4",
"J  c #0161C5",
"K  c #006AC0",
"L  c #009FA5",
"P  c #009DA6",
"I  c #009EA7",
"U  c #019EA7",
"Y  c #009FA7",
"T  c #019FA8",
"R  c #009EA9",
"E  c #0086B3",
"W  c #0086B5",
"Q  c #0087B5",
"!  c #0081BB",
"~  c #0083BB",
"^  c #0082BC",
"/  c #0082BE",
"(  c #0190B8",
")  c #0290B8",
"_  c #009BBA",
"`  c #009FBC",
"'  c #3B8BBE",
"]  c #00ACAE",
"[  c #00ADAE",
"{  c #01ADAF",
"}  c #00B3AD",
"|  c #00B2AE",
" . c #00B3AF",
".. c #02B2AF",
"X. c #00B7AF",
"o. c #00ACB0",
"O. c #00A0BA",
"+. c #00ADBE",
"@. c #01B4B0",
"#. c #01B4B1",
"$. c #01BFB3",
"%. c #01B3BD",
"&. c #01C1B2",
"*. c #00C0B3",
"=. c #00C2B2",
"-. c #00C4B3",
";. c #01C1B4",
":. c #00C0B5",
">. c #02C0B4",
",. c #03C1B5",
"<. c #00C2B4",
"1. c #02C2B5",
"2. c #01C1B6",
"3. c #02C2B7",
"4. c #01CCB6",
"5. c #01CCB8",
"6. c #01D1B7",
"7. c #01D1B9",
"8. c #00DABA",
"9. c #00DBBB",
"0. c #00DCB9",
"q. c #00DCBB",
"w. c #02DCBA",
"e. c #00DBBD",
"r. c #01DCBC",
"t. c #00DDBC",
"y. c #00DCBD",
"u. c #39C1B3",
"i. c #3AC1B3",
"p. c #3AD2B9",
"a. c #3BD3BA",
"s. c #3DD3BA",
"d. c #3AD4BA",
"f. c #3CD4BB",
"g. c #3BD3BC",
"h. c #3AD4BC",
"j. c #5AD1BB",
"k. c #5ADDBE",
"l. c #59DEBF",
"z. c #5BDEBF",
"x. c #5CDDBF",
"c. c #66D8B6",
"v. c #0091C0",
"b. c #3B8BC0",
"n. c #3D8AC0",
"m. c #3A9AC4",
"M. c #5BADC3",
"N. c #5CACC3",
"B. c #3BE5C0",
"V. c #3CE4C0",
"C. c #5BDDC1",
"Z. c #5CDFC0",
"A. c #5AE8C2",
"S. c #5BE9C3",
"D. c #5BE8C5",
"F. c #5CEAC4",
"G. c #98E4B6",
"H. c #99E5B6",
"J. c #FDFDB7",
"K. c #FFFCB7",
"L. c #FFFDB8",
"P. c #93F2C6",
"I. c #94F1C5",
"U. c #96F1C5",
"Y. c #95F2C5",
"T. c #96F1C6",
"R. c #95F2C6",
"E. c #94F3C7",
"W. c #96F3C6",
"Q. c #96F3C7",
"!. c #95F1C8",
/* pixels */
"                                                                                                                                ",
"                                                                                                                                ",
"                                                                                                                                ",
"                                                                                                                                ",
"                                                                                                                                ",
"                                                                                                                                ",
"                                                                                                                                ",
"                                                                                                                                ",
"                                                                                                                                ",
"                                                                                                                                ",
"                                                                                                                                ",
"                                                                                                                                ",
"                                                                                                                                ",
"                                                                                                                                ",
"                                                                                                                                ",
"                                                                                                                                ",
"                                                                                                                                ",
"                                                                                                                                ",
"                                                                                                                                ",
"                                                                                                                                ",
"                                                                                                                                ",
"                                                                                                                                ",
"                                                                                                                                ",
"                                                                                                                                ",
"                                                                                                                                ",
"                                                                                                                                ",
"                                                                                                                                ",
"                                                                                                                                ",
"                                                                                                                                ",
"                                                                                                                                ",
"                                                                                                                                ",
"                                                                                                                                ",
"                                      .                           O       @     . O @   .                                       ",
"                                      X         o                         .             +                                       ",
"                                                  + X                                                                           ",
"                                . X       +       X                 O                   .                                       ",
"                                        .           .     .     X                                                               ",
"                                      +                                 .                                                       ",
"                                                      * E.I.R.R.R.Q.R.W.R.R.R.R.R.>                                             ",
"                                              = R.Q.P.!.R.Q.z.;.;.;.;.;.d.R.!.R.R.R.!.R.>                                       ",
"                    .             . X     $ Y.R.F.9.6.;.;.;.;.*.;.*.;.;.;.;.;.;.;.a.!.R.R.R.>     O     . @                     ",
"                                @       * R.D.9.7.;.;.;.<.2.&.1.;.>.&.a.x.;.;.<.;.;.;.;.;.p.R.Y.R.>                             ",
"                  .               X * I.A.9.9.9.9.7.;.>.;.2.;.;.;.;.;.>.>.;.;.,.>.1.;.2.;.;.a.R.P.R.> O                         ",
"                  .             * R.S.9.9.9.9.7.>.;.;.;.:.*.;. .P ] ;.;.;.:.2.;.*.;.;.;.;.5.9.9.B.T.!.>       X                 ",
"                              * R.S.9.t.8.9.9.7.3.&.;.;.;.2. .I L I ] ;.;.;.;.;.<.c.L.G.;.4.9.e.8.V.Q.R.>                       ",
"                  @         * S.9.9.9.-.X.e.9.7.;.;.;.;.;. .I I I I Y ] ;.2.;.1.;.c.K.K.G.;.5.9.9.7.;.a.P.;                     ",
"                          * Y.l.;.;.*. .X.9.9.7.;.( 8 0 9 f I I k 0 0 0 0 b ;.;.;.c.K.J.H.2.;.5.9.7.a.Z.a.P.>                   ",
"                #       & I.k.*.;.;. .I X.0.y.7.) 8 0 0 0 8 f k 0 t 0 0 0 0 b ;.;.1.;.c.K.G.;.;.;.;.;.;.;.a.Y.:                 ",
"                  . . * R.z.;.;.;.;. .P X.w.r.q.` 0 0 0 0 0 0 0 0 0 0 0 0 6 0 x 2.;.;.;.c.G.;.;.;.;.;.;.;.<.s.<                 ",
"                    * R.z.>.;.<.;.;. .I E v.0.e.` 8 w 8 0 0 i D 0 9 9 r 0 0 0 8 0 0 N ;.;.&.2.&.;.;.1.;.;.;.f.E.>               ",
"                    * R.z.1.<.1.;.;. .Q D 0 / ` 0 0 0 0 0 0 C J D 0 0 0 w 0 C D 0 3 1 0 b ;.;...] ;.;.;.;.;.;.a.>     .   .   @ ",
"                O * !.l.;.;.;.;.;.;._ D 0 0 w 0 0 9 0 0 0 0 y H H H D 9 0 i D 6 0 0 0 0 q b ;.;. .] &.;.;.*.2.a.E.>             ",
"                  * R.z.;. .I ] ;.<._ D 8 0 0 0 0 0 0 6 0 0 0 0 8 0 i D 0 i D 0 0 0 0 w v a.Z. .I I ] ;.>.;.1.;.a.,       .     ",
"                * R.z.2. .R ] ( x ;.( 6 0 0 0 0 0 t 0 0 8 t 0 0 t 0 0 i H D 0 0 w 0 0 0 n.M.^ -.I I { ;.<.;.;.;.a.>       O     ",
"                * P.Z. .I I l ' S.7.( 0 0 0 0 8 q q 0 9 0 0 0 0 0 0 0 0 i F 0 w 8 w 0 0 9 / 7...Y I ] ;.;.;.;.;.a.>   O O     X ",
"                * z.;. .I I I X.+.H D 0 0 0 0 0 ^ 0.` 0 q 0 0 0 0 0 0 0 u A 0 0 0 0 0 0 g L ] @.I ] ;.;.;.;.;.;.a.>   X         ",
"@   X   @     * R.x.<. .I I I E D 0 0 0 0 0 0 ~ %.h s h 0 8 0 0 0 0 0 0 p D 0 8 7 0 w 0 f T ] ;.;.=.;.;.;.;.;.;.g.R.>           ",
"            - R.Q.z.;.;.;. .W D 9 0 0 0 i H H v.` 0 d h e 0 0 0 0 0 0 0 Z H D 0 5 0 t i H m I ] ;.} ] #.] ;.1.;.s.R.>           ",
"  X         & R.z.*.;.;. .I E D 0 0 0 0 w 0 t i K n h 0 0 0 9 0 0 0 0 i H D 9 0 w 8 0 0 0 i m.j.] ;. .I ] ;.;.;.a.R.: X   O     ",
"        #   - R.C.>.;. .I k 0 0 0 q w w 0 0 5 0 C G 0 8 0 0 8 0 8 0 i H a 0 0 8 0 0 0 0 0 i B I I I I P ] ;.&.;.h.R.> O   @     ",
"            * z.;.;.;.| Y k 0 0 t 0 0 0 0 0 0 0 6 i D t 0 0 0 i H H H D 0 6 8 ^ 9.` 0 0 0 0 i x I I L T ] ;.:.<.p.R.>           ",
"  . .   @ & W.U.z.$...I L z 0 0 w 0 0 0 0 8 0 0 8 i a 0 0 0 0 0 0 0 i S 0 0 f j 2 4 ` 0 6 0 i M I R R P ] ;.&.;.a.>             ",
"          % Y.R.z.;. .P i.M.0 0 9 w 8 0 b.M.0 0 0 i A 0 0 0 0 t 0 0 i D 0 0 f u.N.! O.0 8 0 V c I I I U [ ;.<.1.a.>   @     X   ",
"      X   & U.R.R.z.;. .I I k 0 0 0 0 0 0 0 0 i H H D 0 6 0 0 0 8 0 C D 0 0 0 f I k 0 0 w 0 0 f I I I o.;.1.;.a.>   O       X   "
};
