/* XPM */
static char *_5541130fb9e4e40ff38ca29b05442c6Vv12qQEmQz5ih93z[] = {
/* columns rows colors chars-per-pixel */
"64 64 169 2 ",
"   c black",
".  c #010000",
"X  c #000100",
"o  c #010101",
"O  c #020100",
"+  c #000201",
"@  c #000002",
"#  c #1E2F27",
"$  c #1D3126",
"%  c #1F3026",
"&  c #1F3028",
"*  c #1E3229",
"=  c #1E312B",
"-  c #202F28",
";  c #20312B",
":  c #012C95",
">  c #003096",
",  c #0139B4",
"<  c #0238B4",
"1  c #0046BA",
"2  c #0146BB",
"3  c #0047BB",
"4  c #0045BC",
"5  c #0046BC",
"6  c #0146BD",
"7  c #0047BD",
"8  c #0045BE",
"9  c #0046BF",
"0  c #0146BF",
"q  c #0048BB",
"w  c #0148BC",
"e  c #004ABD",
"r  c #024BBC",
"t  c #0148BE",
"y  c #004BBE",
"u  c #004CBC",
"i  c #004CBE",
"p  c #014CBF",
"a  c #0058B6",
"s  c #0158B7",
"d  c #0050BB",
"f  c #0057B8",
"g  c #0057B9",
"h  c #0157BA",
"j  c #0051BD",
"k  c #0058B9",
"l  c #0158B9",
"z  c #005EBA",
"x  c #005DBC",
"c  c #0064BA",
"v  c #0064BC",
"b  c #006CBE",
"n  c #006DBE",
"m  c #006CBF",
"M  c #006DBF",
"N  c #006EBF",
"B  c #1E68BF",
"V  c #0076BC",
"C  c #0078BF",
"Z  c #336ABC",
"A  c #004BC0",
"S  c #005BC2",
"D  c #025BC3",
"F  c #005CC1",
"G  c #005CC3",
"H  c #005FC3",
"J  c #015FC3",
"K  c #005BC4",
"L  c #015DC4",
"P  c #0061C2",
"I  c #0064C2",
"U  c #0060C4",
"Y  c #0061C4",
"T  c #0161C5",
"R  c #0062C5",
"E  c #0061C6",
"W  c #006DC0",
"Q  c #008DAB",
"!  c #018CAD",
"~  c #018EAC",
"^  c #009FA5",
"/  c #009DA6",
"(  c #009EA7",
")  c #019EA7",
"_  c #009FA7",
"`  c #0092AB",
"'  c #0091AC",
"]  c #019FA8",
"[  c #009EA9",
"{  c #01A0A6",
"}  c #00A5A9",
"|  c #01A6A8",
" . c #01A6AA",
".. c #00A7AA",
"X. c #01A6AC",
"o. c #00ABA9",
"O. c #00ABAB",
"+. c #01ABAB",
"@. c #00ABAD",
"#. c #1FAFAF",
"$. c #00BAAF",
"%. c #00A8B5",
"&. c #01A9B6",
"*. c #00AEB7",
"=. c #00B8B0",
"-. c #00B9B1",
";. c #00BAB1",
":. c #00B9B3",
">. c #00BEBC",
",. c #20B0B0",
"<. c #01C1B2",
"1. c #00C0B3",
"2. c #02C1B2",
"3. c #00C2B2",
"4. c #01C1B4",
"5. c #02C0B4",
"6. c #00C2B4",
"7. c #02C2B5",
"8. c #00C1B6",
"9. c #01C1B6",
"0. c #02C0B6",
"q. c #00C6B5",
"w. c #01C6B5",
"e. c #01C7B6",
"r. c #00CFB7",
"t. c #01C4BE",
"y. c #00C8BB",
"u. c #01CFB8",
"i. c #1FCAB8",
"p. c #1ECBB8",
"a. c #1ECABA",
"s. c #1CCCB8",
"d. c #00D0B8",
"f. c #00D6BA",
"g. c #00DBBA",
"h. c #00DBBB",
"j. c #00DCBB",
"k. c #00DBBD",
"l. c #01DCBC",
"z. c #33CDB5",
"x. c #1DE1BD",
"c. c #1EE0BD",
"v. c #77C39D",
"b. c #76C29E",
"n. c #76C39F",
"m. c #77C39F",
"M. c #78C29F",
"N. c #78C4A0",
"B. c #78E0BF",
"V. c #76D0C4",
"C. c #77D1C5",
"Z. c #79E2C1",
"A. c #79E7C0",
"S. c #79E7C2",
"D. c #77EEC4",
"F. c #78E8C2",
"G. c #79E9C3",
"H. c #78E8C4",
"J. c #CEEFBA",
"K. c #CDF0B6",
"L. c #CDF0B8",
"P. c #FFFCB7",
"I. c #93F2C6",
"U. c #94F1C5",
"Y. c #95F2C5",
"T. c #96F1C6",
"R. c #95F2C6",
"E. c #96F3C7",
"W. c #95F1C8",
/* pixels */
"                                                                                                                                ",
"                                                                                                                                ",
"                                                                                                                                ",
"                                                                                                                                ",
"                                                                                                                                ",
"                                                                                                                                ",
"                                                                                                                                ",
"                                                                                                                                ",
"                                                                                                                                ",
"                                                                                                                                ",
"                                                                                                                                ",
"                                                                                                                                ",
"                                                                                                                                ",
"                                                                                                                                ",
"                                                                                                                                ",
"                                                                                                                                ",
"                                                                                                                                ",
"                                                                                                                                ",
"                                                                                                                                ",
"                                                                                                                                ",
"                                                                                                                                ",
"                                                                                                                                ",
"                                                                                                                                ",
"                                                                                                                                ",
"                                                                                                                                ",
"                                                                                                                                ",
"                                                                                                                                ",
"                                                                                                                                ",
"                                                                                                                                ",
"                                                                                                                                ",
"                                                                                                                                ",
"                                                                                                                                ",
"                                                                                                                                ",
"                                                                                                                                ",
"                                                                                                                                ",
"                                                                                                                                ",
"                                                                                                                                ",
"                                                                # I.U.U.U.U.U.U.I.U.U.m.                                        ",
"                                                        - I.U.U.S.5.5.5.5.5.5.5.5.5.5.s.U.U.m.                                  ",
"                                                  = W.U.F.5.5.5.5.5.5.5.5.5.5.5.5.5.<.5.5.5.p.U.m.                              ",
"                                              = U.D.g.g.g.f.5.<.5.5.5.5.-.( ( #.H.5.5.5.<.5.w.g.c.m.                            ",
"                                          = U.D.k.g.g.g.f.5.<.<.<.5.<.-.( ( ( (  .5.5.5.5.5.5.w.g.c.U.m.                        ",
"                                        % U.D.g.g.g.g.f.5.5.<.%.9 9 9 1 9 g ( ( Q 9 9 Z P.L.5.5.w.g.c.U.m.                      ",
"                                    = U.D.g.g.g.g.g.d. .5.%.9 1 9 9 9 9 9 9 l Q 9 9 9 Z P.P.K.5.5.w.j.c.U.N.                    ",
"                                  = U.F.w.r.@.g.g.g.d.( Q 9 9 1 9 9 9 9 9 9 t G 9 9 9 Z P.P.J.-. .5.<.5.p.m.                    ",
"                                # U.F.5.5.-.o.g.g.g.d.Q 9 9 9 1 9 9 9 9 9 t G 9 9 9 9 9 9 Z P.L.-. .5.5.p.I.m.                  ",
"                              = U.F.5.5.5.-.o.g.g.g.d.Q 9 9 9 9 t P U P G t G 9 9 9 9 9 , : z.K.-.(  .5.5.p.m.                  ",
"                              ; S.5.-. .5.-.( o.g.g.t.K 9 9 9 t P P m ( ` G 9 9 9 9 9 l ( (  .-.( [  .5.5.p.U.m.                ",
"                            = H.5.-.(  .<.5.-.o.g.g.>.9 9 9 9 i G t U W { ` G t 9 9 9 9 9 l ( ( ( (  .5.5.5.p.U.m.              ",
"                          % F.5.%.x 5.5.5.5.*.C g.>.9 9 9 9 9 9 9 t 9 t m ` G 9 9 9 9 9 9 9 l ,.Z.(  .5.5.5.p.U.m.              ",
"                        = F.5.%.B D.f.5.5.5.*.G c >.9 9 9 1 9 9 9 9 9 t U K 9 t 9 9 9 9 9 9 B V.c u.(  .5.5.p.U.m.              ",
"                      = U.F.5.-.o.d.(  .5.*.G 9 9 t 9 9 9 9 t t 9 9 1 9 t G q t 9 9 9 9 9 9 9 c d.( (  .5.5.5.p.m.              ",
"                      = F.5.5.-.( ( (  .5.*.G 9 9 9 v l.>.9 9 9 9 9 9 9 t G 9 9 9 9 9 9 9 q 9 l [  .-.X.5.5.5.p.U.m.            ",
"                    = U.F.5.5.5.<.-. .<.5.*.G 9 9 v y.m d m 9 9 9 9 9 9 9 t G 9 9 9 9 9 9 9 9 l  .5.-. .5.5.5.p.U.m.            ",
"                  = U.F.5.5.5.5.-.( (  .5.5.%.9 9 c >.9 j m t t t 9 9 9 t t G 9 9 9 9 9 t 9 l (  .5.5.5.5.5.5.p.U.m.            ",
"                  = U.F.5.5.5.-.( ( ( ( ' U G t t G I V m 9 t t 9 9 1 t q t G 9 1 1 9 9 9 9 9 l #.F.5.-. .5.5.p.U.m.            ",
"                = W.F.5.5.<.-.( ( ( ( ' G 9 9 1 9 1 t P P G t t 9 9 9 9 A K 9 9 9 9 9 t U P P G l  .5.-. .5.<.p.U.m.            ",
"                = U.F.5.5.-.( ( ( ( ' G 9 9 9 9 9 9 9 9 t U G t 9 1 9 9 t G 9 9 9 v g.>.t P U G l  .$.(  .<.5.p.U.m.            ",
"                = F.5.5.-.( ( ( ( ( ' G 9 9 9 B V.9 9 9 9 A G G 9 9 t t G 9 t i m Q , > >.9 t G g [ ( (  .5.5.p.U.m.            ",
"              = U.F.5.5.-.( #.B.( ' D 9 9 9 9 9 9 1 9 9 9 9 t P G 1 9 9 9 t i G a ,.C.v >.9 9 u m ( (  .<.5.p.U.U.m.            ",
"              = U.F.5.5.-.( ( ( ( ' G 9 9 9 9 1 9 1 9 1 9 9 9 t G 9 9 9 9 t P G 9 g ( Q 9 9 9 i m [ (  .5.5.p.U.m.              ",
"              = U.F.5.5.-.( ( ( [ ! 9 9 9 9 1 9 9 t 9 9 t 9 9 t G 1 1 9 9 t G t 9 9 9 9 9 9 9 9 l (  .5.5.p.U.U.m.              ",
"              = U.F.5.5.5.-.( ( ( ( Q 9 9 9 1 9 9 9 9 9 9 9 t P G 9 9 9 t G 9 t 9 9 9 9 1 9 1 l (  .5.5.5.p.U.m.                ",
"              % U.U.F.5.5.5.-.( ( ( ( ! 9 9 9 9 9 9 t P P P U G z %.1 9 t D 9 t 9 9 9 9 9 9 a ( (  .5.5.5.p.M.                  "
};
