/* XPM */
static char *result[] = {
/* columns rows colors chars-per-pixel */
"64 64 161 2 ",
"   c black",
".  c #010000",
"X  c #000100",
"o  c #010100",
"O  c #010101",
"+  c #000201",
"@  c #000002",
"#  c #1E2F27",
"$  c #1D3128",
"%  c #1F3028",
"&  c #1F302A",
"*  c #202F28",
"=  c #203129",
"-  c #001195",
";  c #0139B2",
":  c #0146BB",
">  c #0047BB",
",  c #0046BC",
"<  c #0146BD",
"1  c #0047BD",
"2  c #0045BE",
"3  c #0046BF",
"4  c #0146BF",
"5  c #0148BC",
"6  c #004ABD",
"7  c #024BBC",
"8  c #0148BE",
"9  c #004BBE",
"0  c #024BBE",
"q  c #004CBC",
"w  c #014DBD",
"e  c #004CBE",
"r  c #014CBF",
"t  c #0057B8",
"y  c #0050BC",
"u  c #0051BD",
"i  c #0058B9",
"p  c #0158B9",
"a  c #0058BA",
"s  c #005DBB",
"d  c #005EBA",
"f  c #0064BC",
"g  c #006CBE",
"h  c #006EBF",
"j  c #1E68BF",
"k  c #0073BE",
"l  c #0076BC",
"z  c #004BC0",
"x  c #005BC2",
"c  c #005CC3",
"v  c #005BC4",
"b  c #015DC4",
"n  c #005FC5",
"m  c #0061C2",
"M  c #0260C2",
"N  c #0060C4",
"B  c #0061C4",
"V  c #0161C5",
"C  c #0260C4",
"Z  c #0060C6",
"A  c #0073C0",
"S  c #008DA9",
"D  c #008DAB",
"F  c #009FA5",
"G  c #009DA6",
"H  c #009EA6",
"J  c #009EA7",
"K  c #019EA7",
"L  c #009FA7",
"P  c #0091AC",
"I  c #0092AC",
"U  c #019DA9",
"Y  c #019FA8",
"T  c #009EA9",
"R  c #018ABE",
"E  c #00A5A9",
"W  c #01A6A8",
"Q  c #01A6AA",
"!  c #00A7AA",
"~  c #02A7AB",
"^  c #01A6AC",
"/  c #02A7AD",
"(  c #00ABAB",
")  c #1FAFAF",
"_  c #00BAAF",
"`  c #1FB0AD",
"'  c #00A8B3",
"]  c #00A8B5",
"[  c #00B1B1",
"{  c #00B8B0",
"}  c #00B9B1",
"|  c #01B9B1",
" . c #00BAB1",
".. c #01BAB2",
"X. c #00BBB2",
"o. c #01BFB3",
"O. c #00BFBA",
"+. c #00BEBC",
"@. c #00BFBC",
"#. c #00C0B1",
"$. c #00C1B1",
"%. c #01C1B2",
"&. c #00C0B3",
"*. c #01C1B4",
"=. c #00C0B5",
"-. c #02C0B4",
";. c #00C2B4",
":. c #00C3B5",
">. c #02C2B5",
",. c #01C1B6",
"<. c #02C2B7",
"1. c #00C6B5",
"2. c #1DCAB7",
"3. c #1BCAB9",
"4. c #1ECBB8",
"5. c #1ECABA",
"6. c #00D0B8",
"7. c #00D6BA",
"8. c #00D7BA",
"9. c #00D6BC",
"0. c #00DABA",
"q. c #01DABB",
"w. c #00DBBB",
"e. c #00DCB9",
"r. c #00DCBB",
"t. c #00DBBD",
"y. c #01DCBC",
"u. c #00DDBC",
"i. c #32CCB4",
"p. c #33CDB5",
"a. c #1EE0BD",
"s. c #77C39D",
"d. c #77C39F",
"f. c #78C29F",
"g. c #78C49E",
"h. c #77C2A1",
"j. c #79C3A0",
"k. c #78C4A0",
"l. c #78E2BE",
"z. c #76D1C2",
"x. c #76D0C4",
"c. c #79E1C0",
"v. c #76E9C2",
"b. c #77EEC6",
"n. c #78E8C0",
"m. c #78E8C2",
"M. c #79E9C3",
"N. c #78E8C4",
"B. c #CDD8BA",
"V. c #CDF0B8",
"C. c #FDFDB7",
"Z. c #FFFCB7",
"A. c #FFFCB9",
"S. c #93F2C6",
"D. c #94F1C4",
"F. c #95F2C5",
"G. c #96F1C6",
"H. c #95F2C6",
"J. c #94F3C7",
"K. c #97F2C7",
"L. c #96F3C7",
/* pixels */
"                                                                                                                                ",
"                                                                                                                                ",
"                                                                                                                                ",
"                                                                                                                                ",
"                                                                                                                                ",
"                                                                                                                                ",
"                                                                                                                                ",
"                                                                                                                                ",
"                                                                                                                                ",
"                                                                                                                                ",
"                                                                                                                                ",
"                                                                                                                                ",
"                                                                                                                                ",
"                                                                                                                                ",
"                                                                                                                                ",
"                                                                                                                                ",
"                                                                                                                                ",
"                                                                                                                                ",
"                                                                                                                                ",
"                                                                                                                                ",
"                                                                                                                                ",
"                                                                                                                                ",
"                                                                                                                                ",
"                                                                                                                                ",
"                                                                                                                                ",
"                                                                                                                                ",
"                                                                                                                                ",
"                                                                                                                                ",
"                                                                                                                                ",
"                                                                                                                                ",
"                                                                                                                                ",
"                                                                                                                                ",
"                                                                                    .                                           ",
"                                                                                    X .                                         ",
"                                                                .                                                               ",
"                                                                X   .   O       X o .     @                                     ",
"                                                                      .             . O   +                                     ",
"                                                                    X                                                           ",
"                                                                          .                 @                                   ",
"                                                                s.H.H.H.S.G.H.H.H.H.H.* @     X                                 ",
"                                @   X                 d.H.H.H.H.H.L.H.H.H.H.H.G.G.S.H.H.H.H.H.%                     O         O ",
"                  @               .           j.H.H.H.a.1.-.*.*.*.*.*.*.*.;.,.*.*.*.*.*.*.,.*.m.H.%                             ",
"                    .                     k.H.H.a.w.w.1.*.-.*.*.-.*.%.*.*.>.*.*.*.%.*.,.*.*.*.*.,.M.K.%     X   X               ",
"                @     O             .   d.H.a.0.w.u.1.>.-.,.*.&.Q Y J T J } *.:.*.*.<.*.>.*.*.7.w.w.w.b.H.%     .   X           ",
"                        @   @       d.H.a.w.w.0.w.w.1.*.*.;.*.Q J i 1 1 1 S J } *.*.*.*.*.;.*.7.r.w.0.1.m.H.=         X         ",
"                                d.H.a.w.y.e.w.w.w.1.*.*.*.d 1 3 1 1 1 < 1 1 S J J } $.V.Z.p.*.*.7.t.w.q.1.m.H.=         X     O ",
"                      X     O k.4.8.u.1.*.7.w.w.t.1.;.>.s 1 5 1 1 < < 1 1 1 > D i 1 ] V.C.Z.p.o.*.7.t.y.1.*.m.%                 ",
"                            g.3.*.*.*.*.*.7.w.w.( } *.d 1 1 1 , 1 3 8 1 1 3 1 1 8 1 1 B.Z.A.p.*.Q } 9.1.-.*.m.H.&       . X     ",
"                        . k.H.4.*.*.>.*.Q 6.w.y.r.( J i 1 , 1 < c 9 , 1 1 1 c 9 1 1 1 - ; B.Z.i.^ J } *.*.*.*.M.H.%             ",
"              + O X   X d.4.*.*.Q J } *.W L 6.w.w.f 1 1 1 > 1 c n N B z 3 c 9 1 1 1 1 1 1 1 B.p.Q J J } *.*.,.m.H.%             ",
"                  .   d.4.*.;.d ] *.*.*.W i +.q.w.f 1 1 1 1 1 1 3 c Z 9 c 9 1 1 1 < 1 1 1 1 ' m.` U J } *.*.*.=.m.%             ",
"  o   .       .     h.4.*.*.d x.a.1.*.,.A 6 1 +.w.f 1 3 1 1 1 1 1 1 c e c 9 1 1 1 1 1 1 1 1 x.j +.( F } *.*.&.*.m.H.%     . .   ",
"                  s.L.4.*.E J 6.( J } A r < 1 < 1 3 1 1 1 1 > 1 1 , 3 c 9 1 1 1 1 1 1 1 1 1 3 +.( J J J } *.,.*.*.M.$           ",
"                d.H.4.%.*.Q J L K } *.k 9 1 1 1 8 +.w.f 1 1 < 1 1 < 1 c 0 1 1 , 1 1 1 1 1 1 1 D J L J  .*.*.>.*.,.N.%   X   O   ",
"            @   d.5.*.*.*.*.Q J } *.*.d 3 1 1 1 O.R u g y < 8 1 , 1 1 1 c 9 < 1 1 1 1 1 1 1 D J | W ..;.*.*.*.*.#.v.H.%   O     ",
"  +   .       s.4.*.*.,.*.*.Q J } *.Q J i 1 : 1 +.f 1 g u 1 1 1 5 1 1 1 c 9 , 1 1 1 1 1 1 1 D H { *.*.*.;.*.>.*.;.m.F.%         ",
".             d.5.*.*.>.*.*.~ T J J J i c 9 c V 9 g l u > 1 1 1 < 1 1 c N 7 1 1 1 1 1 1 1 1 D l.4.*.*.%.*.-.,.;.*.m.H.%   @     ",
"        X   f.4.*.*.*.Q J J J J h N m 9 1 c m N N 9 1 1 1 1 1 1 1 1 1 c 9 1 1 > 1 1 1 8 1 v Z N P { ,.Q } %.&.*.*.m.H.%         ",
"  @         d.4.>.*./ J F J J i < c 9 1 1 1 1 , 1 c M 9 1 1 1 < 1 1 c V 0 c w > 1 @.r.f 1 1 1 1 c P J Y } *.%.*.n.D.=           ",
"      .   d.H.4.*.Q L J J G J i 1 1 , 1 1 < < 1 8 1 c 9 > 1 1 1 c m r , c 9 1 1 D i - [ f 1 1 4 b I J J } *.*.,.m.H.%           ",
"          d.F.4.*.Q J J c.) p 1 1 1 1 1 1 z.j 1 1 3 c N 9 8 1 < 1 1 1 c 9 1 1 1 D l.j +.f 1 1 1 c P J } *.*.*.*.m.*   X         ",
"    O     d.J.4.*.Q J J J J t , 1 1 1 1 1 1 1 1 1 1 1 c z 1 1 1 1 1 1 c 9 1 < > 1 D J a 1 1 1 , 1 D J X.*.*.;.m.H.%   X   .     ",
"    @       d.2.;.*.! J J K a 1 1 1 1 , 1 1 1 1 1 1 1 c q 1 1 < 1 1 x N 9 1 2 1 1 1 1 1 1 1 , 1 D T K _ *.*.*.n.L.#             ",
"            d.F.4.*.Q J T J T a 1 1 1 1 > 1 1 , c N N C 9 1 1 1 1 1 1 c 9 1 1 > 1 1 3 , 1 1 1 D T J } *.*.*.n.H.# .             "
};
