/* XPM */
static char *Character_Idle__1_[] = {
/* columns rows colors chars-per-pixel */
"32 32 161 2 ",
"   c #000000",
".  c #090504",
"X  c #0C0805",
"o  c #18130D",
"O  c #1B1610",
"+  c #1C1B15",
"@  c #231C14",
"#  c #2A1D15",
"$  c #221F18",
"%  c #301F15",
"&  c #232116",
"*  c #2A2017",
"=  c #222119",
"-  c #2F2119",
";  c #2B281F",
":  c #322115",
">  c #31221B",
",  c #39271D",
"<  c #36281D",
"1  c #2E2A21",
"2  c #312F23",
"3  c #3E2B25",
"4  c #343226",
"5  c #453929",
"6  c #493828",
"7  c #5D3E2A",
"8  c #563E32",
"9  c #5A3E36",
"0  c #45402D",
"q  c #4D452E",
"w  c #5D402E",
"e  c #4F4730",
"r  c #4F4C39",
"t  c #444233",
"y  c #5F4230",
"u  c #514C3A",
"i  c #544E36",
"p  c #62432F",
"a  c #69452F",
"s  c #624130",
"d  c #6A4633",
"f  c #6B4A33",
"g  c #734E34",
"h  c #7A4F37",
"j  c #6D5B37",
"k  c #6A5A37",
"l  c #775237",
"z  c #795436",
"x  c #7C5238",
"c  c #7C593D",
"v  c #7E6135",
"b  c #74603B",
"n  c #5E5840",
"m  c #5D5C4A",
"M  c #666046",
"N  c #63604D",
"B  c #6B6347",
"V  c #7B6A44",
"C  c #676451",
"Z  c #686552",
"A  c #6D6A56",
"S  c #6F6D58",
"D  c #706E5A",
"F  c #75725C",
"G  c #7B7962",
"H  c #805A36",
"J  c #84573A",
"K  c #855A3B",
"L  c #895B3C",
"P  c #886636",
"I  c #8F6A36",
"U  c #876639",
"Y  c #8C6039",
"T  c #856435",
"R  c #916C37",
"E  c #96643F",
"W  c #94723E",
"Q  c #B67D3A",
"!  c #816F47",
"~  c #976742",
"^  c #996642",
"/  c #9C6942",
"(  c #877B41",
")  c #947340",
"_  c #997940",
"`  c #876450",
"'  c #8E6B58",
"]  c #836D55",
"[  c #956F5C",
"{  c #906C54",
"}  c #8D745E",
"|  c #96725C",
" . c #9A755B",
".. c #A67245",
"X. c #A97347",
"o. c #A27F45",
"O. c #AA7548",
"+. c #AF794A",
"@. c #B57D4A",
"#. c #B87E4C",
"$. c #8E7A61",
"%. c #9C7562",
"&. c #C68D3E",
"*. c #B4814C",
"=. c #A38F53",
"-. c #AE8A50",
";. c #A08558",
":. c #A98A5B",
">. c #A9955A",
",. c #B09B5C",
"<. c #87836A",
"1. c #8C8068",
"2. c #9C846A",
"3. c #8F8C74",
"4. c #9C9B7F",
"5. c #AC896D",
"6. c #AD9A62",
"7. c #B18872",
"8. c #B88E76",
"9. c #A89078",
"0. c #BC9077",
"q. c #BBA666",
"w. c #BBA36C",
"e. c #BDAF68",
"r. c #BFB16A",
"t. c #C48D43",
"y. c #D19543",
"u. c #D29844",
"i. c #DB9F47",
"p. c #D49E48",
"a. c #DCA249",
"s. c #DDB34F",
"d. c #E3B94D",
"f. c #E2B852",
"g. c #C3977D",
"h. c #C6987E",
"j. c #C1B271",
"k. c #CABC75",
"l. c #E9C94E",
"z. c #E1C557",
"x. c #768282",
"c. c #9DA083",
"v. c #A5A185",
"b. c #A9A588",
"n. c #BAA384",
"m. c #B2AE91",
"M. c #85A7A6",
"N. c #CA9C82",
"B. c #DBAD8E",
"V. c #DDB08F",
"C. c #E3B695",
"Z. c #E3B896",
"A. c #E4B798",
"S. c #E7BB98",
"D. c #E9BD9A",
"F. c #D0BCB5",
"G. c #EBC39F",
"H. c #E7C4A4",
"J. c #F3C7A3",
"K. c #F3C9A6",
"L. c #ECD8D1",
/* pixels */
"              % d 7 x O.+.X.X.X.....J s #                       ",
"            : L L g ~ X.#.@.X.X.X.^ ~ J p #                     ",
"            # K +.^ h L O.#.X./ ^ E ^ E J s *                   ",
"            # l O.@.+.~ J E @...^ ^ ~ ^ ~ c :                   ",
"            # f L O.#.@...E ..O.^ ^ L x L L s #                 ",
"            # d J / / O.@.@.X.O.X.^ E K h K z :                 ",
"              - f K ^ ^ / / O.@./ L ^ E J J x :                 ",
"                : p f L ^ ^ / K p w z ^ L h f :                 ",
"                - [ | s w p w { 8.8. .z L h d >                 ",
"                > %.V.C.1.x.F.g.h.C.5.l L f , .                 ",
"                . 3 7.J.c.M.L.C.N. .c K h d >                   ",
"                  > %.S.H.H.K.K.A. .d h d < .                   ",
"                    > %.S.K.D.B.B.g.` 7 <                       ",
"                      % 9 %.B.N.' 9 1 X .                       ",
"                    ; A ;.L y 8 x Q Y 1                         ",
"                    + D v.:.Q Q &.y.W 2                         ",
"                  & F j.z.s.a.a.a.a.o.2                         ",
"                  & F k.l.d.u.R q e i 2                         ",
"                = F v.j.d.a._ C 3.<.m =                         ",
"                X 4 F e.d.a.) Z v.v.A &                         ",
"                  + r M b ) T D m.b.S =                         ",
"                  + A w.t.W n r G b.S =                         ",
"                  + ( f.a.p.&.H Z c.S =                         ",
"                  + v u.a.u.R F 9.3.S +                         ",
"                    * T u.y.T $.G.n.N =                         ",
"                    + 5 q q 0 t 2.A.} =                         ",
"                  o f l k =.,.=.V r 1                           ",
"                  + f E f b ,.q.>.j @                           ",
"                  : s 6 * # ! q.q.V &                           ",
"                  . X X   o j =.-.K @                           ",
"                        o f +.*.O.l @                           ",
"                        O f X.O./ f @                           "
};
