/* XPM */
static char *result[] = {
/* columns rows colors chars-per-pixel */
"32 32 6 1 ",
"  c black",
". c #FFC900",
"X c gold",
"o c #FCE54E",
"O c #FFF7C1",
"+ c None",
/* pixels */
"++++++++++++++++++++++++++++++++",
"++++++++++++++++++++++++++++++++",
"++++++++++++++++++++++++++++++++",
"++++++++++++++++++++++++++++++++",
"++++++++++++++++++++++++++++++++",
"++++++++++++++    ++++++++++++++",
"++++++++++++  oooo  ++++++++++++",
"+++++++++++ oo....oo +++++++++++",
"++++++++++ o..OXXX..o ++++++++++",
"++++++++++ o.OXXXXXX. ++++++++++",
"+++++++++ o.OXXXXXXXXo +++++++++",
"+++++++++ o.XXXXoXXXXo +++++++++",
"++++++++ o.XXXXoo.XXXo. ++++++++",
"++++++++ o.XXXo.o.XXXo. ++++++++",
"++++++++ o.XXX.Xo.XXXo. ++++++++",
"++++++++ o.XXXXXo.XXXo. ++++++++",
"++++++++ o.XXXXXo.XXXo. ++++++++",
"++++++++ o.XXXXXo.XXXo. ++++++++",
"++++++++ o.XXXXXo.XXXo. ++++++++",
"++++++++ o.XXXXXo.XXXo. ++++++++",
"+++++++++ .XXXXX..XXo. +++++++++",
"+++++++++ .XXXXXXXXXo. +++++++++",
"++++++++++ oXXXXXXXo. ++++++++++",
"++++++++++ .ooXXXXoo. ++++++++++",
"+++++++++++ ..oooo.. +++++++++++",
"++++++++++++  ....  ++++++++++++",
"++++++++++++++    ++++++++++++++",
"++++++++++++++++++++++++++++++++",
"++++++++++++++++++++++++++++++++",
"++++++++++++++++++++++++++++++++",
"++++++++++++++++++++++++++++++++",
"++++++++++++++++++++++++++++++++"
};
