/* XPM */
static char *_3d0cc9522234d9e94d117a57e8a122dExL39ZDyKpVDuFMh[] = {
/* columns rows colors chars-per-pixel */
"25 50 181 2 ",
"   c None",
".  c #312329",
"X  c #4B343A",
"o  c #5F413A",
"O  c #363647",
"+  c #2E3053",
"@  c #39365A",
"#  c #393A67",
"$  c #3B3A6A",
"%  c #373C6B",
"&  c #3C3F72",
"*  c #45364C",
"=  c #5A3B43",
"-  c #443E5E",
";  c #523E5E",
":  c #453A64",
">  c #413E6C",
",  c #3E406F",
"<  c #3E4379",
"1  c #3C4073",
"2  c #59445B",
"3  c #60465C",
"4  c #60515B",
"5  c #76555F",
"6  c #67454A",
"7  c #584261",
"8  c #41457C",
"9  c #484677",
"0  c #6A5264",
"q  c #765A68",
"w  c #6A5A7A",
"e  c #73617C",
"r  c #7A677C",
"t  c #834A4D",
"y  c #914F53",
"u  c #855E5A",
"i  c #845A5B",
"p  c #975857",
"a  c #A15E5C",
"s  c #8C645D",
"d  c #855C62",
"f  c #826C6A",
"g  c #93726F",
"h  c #8D6C75",
"j  c #896373",
"k  c #827078",
"l  c #9A7373",
"z  c #9A6969",
"x  c #AC6761",
"c  c #A37165",
"v  c #A37469",
"b  c #AD746B",
"n  c #AF7F6F",
"m  c #B4736A",
"M  c #BE766C",
"N  c #BC7B6C",
"B  c #A77672",
"V  c #BC7D78",
"C  c #B86D68",
"Z  c #C37B70",
"A  c #B98A77",
"S  c #B9987F",
"D  c #AC8874",
"F  c #C78877",
"G  c #D68879",
"H  c #C6937E",
"J  c #DB917D",
"K  c #E4927F",
"L  c #424984",
"P  c #454D8C",
"I  c #424780",
"U  c #4A5089",
"Y  c #545183",
"T  c #5B588E",
"R  c #495194",
"E  c #4D569B",
"W  c #475197",
"Q  c #60619D",
"!  c #4F59A3",
"~  c #4C57A0",
"^  c #515BA5",
"/  c #525DAB",
"(  c #535FB0",
")  c #5660AF",
"_  c #5662B3",
"`  c #5863B5",
"'  c #5B68BF",
"]  c #5A67BD",
"[  c #5D6BC3",
"{  c #606EC9",
"}  c #6270CE",
"|  c #8B7282",
" . c #9C7B8D",
".. c #857493",
"X. c #7C8ABE",
"o. c #84819F",
"O. c #A38E8F",
"+. c #BE9980",
"@. c #AB9B9C",
"#. c #8C88A6",
"$. c #9796B7",
"%. c #A49AA3",
"&. c #A29CAD",
"*. c #AA9DA6",
"=. c #B4A4A2",
"-. c #B6AAAD",
";. c #AAA5BA",
":. c #B7A8B4",
">. c #BCB2B8",
",. c #CB9D83",
"<. c #C39E8C",
"1. c #C99581",
"2. c #D79D83",
"3. c #CB9792",
"4. c #E69481",
"5. c #E79A82",
"6. c #EA9B83",
"7. c #D5A489",
"8. c #DDAD8F",
"9. c #D9A48A",
"0. c #D9B293",
"q. c #DBB695",
"w. c #CEA592",
"e. c #F7A68A",
"r. c #F6A68A",
"t. c #ECAC90",
"y. c #ECB291",
"u. c #E5BE99",
"i. c #E7B998",
"p. c #F6BB96",
"a. c #CBABA7",
"s. c #C1B4AD",
"d. c #C6BAB6",
"f. c #D5B9A6",
"g. c #E1B8AA",
"h. c #E9C39E",
"j. c #F5C49E",
"k. c #FCC39E",
"l. c #D7C2AC",
"z. c #ECC9A4",
"x. c #E6CAA9",
"c. c #F4C6A1",
"v. c #F2CDA3",
"b. c #FCCCA4",
"n. c #ECD1AC",
"m. c #F6D1A6",
"M. c #F5D5AB",
"N. c #FCD7AB",
"B. c #FCDAAD",
"V. c #F5D8AD",
"C. c #E5CEB0",
"Z. c #FFDFB0",
"A. c #FFE1B2",
"S. c #8393C8",
"D. c #8F9DD1",
"F. c #99A5D8",
"G. c #ABABC4",
"H. c #A7A8C5",
"J. c #BDBBCC",
"K. c #B8B7C9",
"L. c #A0AFDB",
"P. c #A5B2DC",
"I. c #B2BDE4",
"U. c #CABCC2",
"Y. c #BCC1DB",
"T. c #BFC8E8",
"R. c #C6C7D8",
"E. c #CFD1DE",
"W. c #C5CBE5",
"Q. c #CED6EF",
"!. c #D4D5E3",
"~. c #D5D9EC",
"^. c #D6DBEE",
"/. c #C5CEF0",
"(. c #E3E7F5",
"). c #E9ECF6",
"_. c #E3EAFA",
"`. c #EBEFFB",
"'. c #EAF0FD",
"]. c #F2F5FD",
"[. c #FDFDFF",
/* pixels */
"                                                  ",
"                                                  ",
"                                                  ",
"                                                  ",
"                                                  ",
"                                                  ",
"                                                  ",
"                    E / L E ^ P                   ",
"                < ) _ W _ E ! _ R                 ",
"                E ^ _ / { ` ^ / ^ 1               ",
"              8 E _ [ ' { [ ) { ! R               ",
"              # R ] [ ` [ [ R ' / 8               ",
"              % _ ~ ( U ^ } L P [ L +             ",
"              8 R > , k r ! Y 0 I I @             ",
"              2 + X . F y.B X o * - 6             ",
"              8 Y 5 O f N.<.O 4 w R @             ",
"              L Q w.:.s.A.C.&.g...W %             ",
"            % R < q 8.B.B.B.c.l 9 P I             ",
"            & E r e j F 1.H B w h T P             ",
"            # | v.*. .G V F V #.z.<.9             ",
"            * 0.M.;.:.i.c.j.a.G.f.N.q             ",
"            u v.d.~.(.U.3.a.!._.K.n.A             ",
"            A x.E.[.[.[.!.).[.[.).d.q.=           ",
"            0.-.Q.].[.[.].[.[.]._.G.z.s           ",
"          c m.-.L.P.Q.].T.(.(.I.P.$.n.,.          ",
"          H A.=.X.D.I._.`.'./.F.S.#.V.u.          ",
"          i.A.<.e $.R.^.W.~.!.H...h N.M.v         ",
"        b m.B.l $.G.&.%.O.@.%.;.H.e u.A.,.        ",
"        7.A.z.u =.K.Y.E.>.R.W.K.>.g +.A.v.        ",
"      a t.b.7.s B.V.l.J./.W.d.n.A.S v b.k.Z       ",
"      C 4.K m u M.A.A.l.o.=.B.A.A.+.t J 4.G t     ",
"      y a M p   u.A.A.A.i.M.A.A.B.n   M x y       ",
"                ,.A.A.A.b.B.A.A.h.                ",
"                D Z.A.A.c.B.A.A.0.                ",
"                c m.A.Z.,.v.A.A.,.                ",
"                  9.N.b.N y.N.j.z                 ",
"                $ m r.e.N 5.r.J 7                 ",
"                  i r.e.N 5.e.N :                 ",
"                  5 6.e.N 5.e.b $                 ",
"                  ; 2.k.A y.p.d                   ",
"                  : A i.v 7.8.0                   ",
"          &         7 3 : 2 2 >                   ",
"                                                  ",
"                                                  ",
"                                                  ",
"                                                  ",
"                                                  ",
"                                                  ",
"                                                  ",
"                                                  "
};
