/* XPM */
static char *text[] = {
/* columns rows colors chars-per-pixel */
"23 21 71 1 ",
"  c black",
". c #010000",
"X c #000100",
"o c #010101",
"O c #020001",
"+ c #000002",
"@ c #040507",
"# c #030708",
"$ c #050608",
"% c #05060A",
"& c #1C2931",
"* c #1D2A30",
"= c #1D2A32",
"- c #1F3038",
"; c #202E37",
": c #212F38",
"> c #212F3A",
", c #213037",
"< c #312F44",
"1 c #263A45",
"2 c #273B46",
"3 c #263C47",
"4 c #263C49",
"5 c #273D4A",
"6 c #263E4A",
"7 c #283B49",
"8 c #293C4A",
"9 c #3D4A52",
"0 c #3E7392",
"q c #3E7393",
"w c #3E7490",
"e c #427EA0",
"r c #437EA0",
"t c #437DA2",
"y c #427EA2",
"u c #437FA3",
"i c #447FA1",
"p c #892983",
"a c #8B2883",
"s c #9B2890",
"d c #9D2891",
"f c #57879E",
"g c #4480A4",
"h c #4785AA",
"j c #4686AA",
"k c #4787AB",
"l c #4785AC",
"z c #4985AA",
"x c #4886AB",
"c c #5A8FAE",
"v c #4C8FB9",
"b c #4C8FBA",
"n c #4B92BC",
"m c #4E91BC",
"M c #4D92BC",
"N c #4E93BD",
"B c #4D91BE",
"V c #659AB9",
"C c #D8B78E",
"Z c #C4AF90",
"A c #C5B294",
"S c #C6B395",
"D c #E7CFA9",
"F c #E6CEAA",
"G c #F9D3A4",
"H c #F9D3A6",
"J c #FFD7A9",
"K c #FFD7AB",
"L c #E7EFF2",
"P c #FFFEFF",
"I c white",
/* pixels */
"   o   X  +   + ..     ",
"  ..  $$@$$%$$#$# o    ",
"    o$-121;354555$     ",
"    $<>ec09bMMMMM5$    ",
"    :s:rI:PrMhBMMh:   +",
"    :p:rI:IrM7mMM8>    ",
"   o=:<0L1LrMMMMNn:   o",
"     :d:rrrrMMNnMM:  . ",
"     :a:rrervMzhjh:    ",
"     ==:0irguM5:===. . ",
"  +  . =:rfVVVV: X   . ",
"     X$$:rCJJJJ:    o  ",
"  +   :56yCJJKJ-       ",
"      ,lviZFHGD:   OX. ",
"  X+ o=:wruMSAM:      +",
"+      =:tMkhvM: o  +  ",
"        :ex=:tx&       ",
"        :0* :q=        ",
"        ==  ==         ",
"                       ",
"                       "
};

