/* XPM */
static char *t[] = {
/* columns rows colors chars-per-pixel */
"64 64 159 2 ",
"   c #070E01",
".  c #0B0E01",
"X  c #071201",
"o  c #0C1301",
"O  c #0E1B01",
"+  c #121504",
"@  c #131C05",
"#  c #191D06",
"$  c #141B0B",
"%  c #1B1E0B",
"&  c #152204",
"*  c #1B2406",
"=  c #1C2A06",
"-  c #16240B",
";  c #1C240A",
":  c #1E2C09",
">  c #0F3C03",
",  c #1E3504",
"<  c #173A00",
"1  c #1D3C02",
"2  c #1C2212",
"3  c #1D2817",
"4  c #242F07",
"5  c #21250A",
"6  c #222D0A",
"7  c #243406",
"8  c #293706",
"9  c #253C05",
"0  c #293C06",
"q  c #24340A",
"w  c #2A360B",
"e  c #263A09",
"r  c #2A3B09",
"t  c #242C17",
"y  c #262D1A",
"u  c #282C1B",
"i  c #26341B",
"p  c #2A341D",
"a  c #2E3624",
"s  c #313B25",
"d  c #3D3F27",
"f  c #363C2D",
"g  c #3F3E2C",
"h  c #264204",
"j  c #2A4306",
"k  c #2E4907",
"l  c #234508",
"z  c #2E4509",
"x  c #2E490A",
"c  c #314707",
"v  c #31460A",
"b  c #31490A",
"n  c #384E0D",
"m  c #21500C",
"M  c #2C5209",
"N  c #375606",
"B  c #3A5C06",
"V  c #35520B",
"C  c #3A550D",
"Z  c #375809",
"A  c #3D5C0B",
"S  c #2F4C11",
"D  c #334F12",
"F  c #365511",
"G  c #3C5512",
"H  c #355D14",
"J  c #3D5911",
"K  c #3E610A",
"L  c #3F6012",
"P  c #394225",
"I  c #3A432D",
"U  c #3D4432",
"Y  c #425E0C",
"T  c #425C12",
"R  c #425C1A",
"E  c #42630D",
"W  c #49670D",
"Q  c #45690D",
"!  c #496E0E",
"~  c #4C720E",
"^  c #50760F",
"/  c #52790F",
"(  c #456611",
")  c #486211",
"_  c #466911",
"`  c #4B6E12",
"'  c #406F1E",
"]  c #4C6C18",
"[  c #516D19",
"{  c #4C7211",
"}  c #517613",
"|  c #547C14",
" . c #587F15",
".. c #517519",
"X. c #567C1A",
"o. c #597D1B",
"O. c #454A34",
"+. c #484A37",
"@. c #474A38",
"#. c #4D4E3C",
"$. c #504F3D",
"%. c #47523B",
"&. c #4E513D",
"*. c #51533E",
"=. c #456A21",
"-. c #537222",
";. c #527A24",
":. c #5C7E28",
">. c #4F5340",
",. c #535641",
"<. c #555943",
"1. c #595B46",
"2. c #565C49",
"3. c #5B5D49",
"4. c #5D614B",
"5. c #5F6750",
"6. c #62654E",
"7. c #666A4F",
"8. c #636651",
"9. c #666A54",
"0. c #696C57",
"q. c #6A6D58",
"w. c #6D7155",
"e. c #6D725A",
"r. c #707355",
"t. c #71745C",
"y. c #747560",
"u. c #558415",
"i. c #598416",
"p. c #5A8A16",
"a. c #578219",
"s. c #5C851B",
"d. c #5C891B",
"f. c #60871D",
"g. c #618B1E",
"h. c #5D8522",
"j. c #5C8B22",
"k. c #5B8229",
"l. c #618621",
"z. c #648C22",
"x. c #688F25",
"c. c #648628",
"v. c #668E29",
"b. c #698F29",
"n. c #659023",
"m. c #699126",
"M. c #67902A",
"N. c #6A922A",
"B. c #6E992E",
"V. c #739A2F",
"C. c #618730",
"Z. c #668A33",
"A. c #6C9530",
"S. c #6E9832",
"D. c #719734",
"F. c #749B33",
"G. c #759D3A",
"H. c #7AA23B",
"J. c #83A93A",
/* pixels */
"s.d.d.d.d.d.d.d.d.d.d.p.d.p.d.p.f.s.s.s.i.i.s.s.p.i.u.u.u.u.p.p.p.p.d.n.n.j.l j h h h 0 h h j 9 h j 9 9 9 j 1 < > m ' j.g.g.g.g.",
"d.s.s.s.s.s.s.d.d.d.s.s.s.s.s.s.s.s.i.s.s.a.| s.j.d.d.d.d.g.g.g.n.n.g.n.j.n.k.j 9 j j l 0 r j r 9 9 h 9 , < l H k.M.m.x.g.d.d.p.",
"d.s.s.s.f.s.s.f.s.s.s.f.f.p.s.s.s.s.s.u. .s. .u.d.l.z.z.l.z.z.z.g.z.g.n.z.v.H.:.1 j j h h j j h 0 7 < 9 G ;.D.V.n.f.s.s.s.s.s.| ",
"p.s.d.s.d.s.s.s.d.s.s.d.s.s.s.s.s.l.s.Q Q o.h.s.s.d.d.n.v.n.n.n.m.m.m.n.z.v.z.l.b 9 j h r 0 8 , 9 D ' C.F.D.x.z.d.f.f.s.s.X.a.| ",
"d.d.s.s.d.s.s.s.s.s.s.d.p.s.s.s.s.h.{ ` ! ! { }  .} | | | u.u.|  .| / } { ~ ! ! _ 9 1 h 1 l S ' c.G.H.G.A.M.M.N.N.M.v.v.v.z.b.b.",
"p.s.d.s.d.s.d.f.s.s.s.s.s.s.i.f.j.{ Q Q Q K Q Q ! { } { ~ ~ ~ ~ ^ ~ / ^ } } } } ..L M L -.Z.G.H.G.S.A.M.M.n.v.m.m.b.M.x.v.v.b.v.",
"p.f.s.s.s.s.s.s.f.s.s.d.i.s.s.f.{ Q _ ` _ Q ( ( ( ` { } ~ { ^ ^ ^ ~ ~ ^ ~ } { } ^ j.N.S.F.S.B.g.h.| { { ~ ! ! ~ ~ { { } ..| o.o.",
"d.s.s.f.j.f.s.s.s.s.s.s.s.s.s.| Q ` _ _ _ _ Q _ _ ( J _ ....{ ~ ^ ~ } ~ } { ~ ^ ^ { { { ~ ! ! K Q Q { { ~ { ~ ! ! ` ! ! ! ! ` Q ",
"J.G.v.s.s.s.s.d.s.s.s.s.h.s.o.Q _ _ _ _ _ _ E _ Q _ k x V ` ..{ { } ~ ~ { { { { { ^ ~ ! ! ! ! ! ! ! ` ~ { ` ! ` ` ^ ` ` ^ ` ^ { ",
"m.F.G.F.v.s.s.s.h.s.s.f.s.o.` Q _ _ _ _ _ _ _ _ _ _ M k x l A { ..` ` } { { { { { ~ ~ ~ { ! L u.` { ! { { ~ ! ~ ` ` ` ^ ` ` ` ` ",
"i.f.s.m.F.F.N.z.s.s.o.s.s.{ Q _ _ _ _ E E _ ( E E _ C x x x j x T ..{ ` ! { { { ! { ~ ! ! ! ! ` ! { ! ~ ! { { ` ! ` ` ` [ ` ` ^ ",
"f.i.u.| i.s.z.N.M.z.l.l.{ Q Q _ _ _ _ ( _ Q ( _ E ] F j x x x x k n ] ..{ ! ` ` { { ! { ! { ! ` ` ! ` ! { ! ! ` } ` ` ` ! ` { W ",
"^  .o.s.u. .| X.s.f.l.o.Q _ _ _ E _ _ _ _ E ( Q ( Q C j v x b x b k k Z ] ] { { ! { { { { ` ` { { ` { ` ! ! ` ` ` ` ` ! ` ~ ` ` ",
"B Y W } o.o. .| } } o.Q Q _ _ _ ( _ _ ( _ ( _ Q ( _ F x x v c b v v v j b C _ ] ..{ ] ` { ' ` { ` ` { ` ` ` { ` { ` ! ! ` ` W ` ",
"K K K B K ` } o.o.X._ Q _ ( _ _ _ Q _ _ ( V b V V C n x x x x v b v b b x x j k F A L _ ` ] ] ` ] ` ' ] ` ] [ [ [ [ [ [ [ ` { [ ",
"K B B B B B B E _ _ E E ( _ ( ( _ _ E _ J x k k x k x x x v k v x v b x b k k k l k k k x x x M b V b n b n n c n n n n n C n C ",
"B B B B B B B B B ( E E ( ( ( Q ( Q ( _ ( M x b v x b v v x x x v x b x v x b c v v v c c c c c x z b x b S z b z z z j z z r z ",
"E B Z N C C A A Z B _ ( E ( E Q ( ( K Q ( V k x x x c b b v b v c b v v v v x x b j k x x x x v x j v v l 8 w r z v z x z j z z ",
"W Y E A Z Z V C N Z K ( E ( ( ( Q ( ( L ( L k x v x x b b b v b x b b b x v x v v x v x v x x k x v S w O O O O - : 7 q r z v z ",
"W Q n T T B C C V V V A _ ` ( ( E E E Q E ( M x v k x v x v x b x v x v v x v v v x k v v k v v x v r @ i %.i - @ @ & - * : q w ",
"E Q ( j F C A T J C V k V J E _ _ E ( E E ( E x v k x v v x x x x v v b x b x j x v j v x x j v v j = - 8.0.9.4.O.t & & - & & = ",
"E K ( J j l c b V C Z F x k x V A ( ( _ K K E F j x v v v v c c c c x k v v v x k k j k x v v 0 r q O O.e.5.7.9.9.6.%.i * & * - ",
"E E K _ T l j j 9 j j j k x x x x x Z A ) _ ( ( k 9 0 k j v b v v v j v z z z z S z v v v j r z i O y 0.9.9.9.7.7.9.9.9.%.i & = ",
"K E E E E ( j l x h j j j j j x j k h j k V T J C h 0 0 0 0 r 0 r j z z z v S z v v z j h 8 r r = @ 1.w.0.9.9.9.9.9.9.7.0.<.P = ",
"K E K E E Y ) S 9 j l r h r 9 0 h j x x j h h V Z z 0 r r r 0 r r h 0 0 0 0 8 0 8 9 8 9 8 8 r 6 X U e.w.w.9.9.9.9.7.9.7.8.,.<.O.",
"K Q Q K E K ( T x 1 r j h 0 h h 0 9 9 9 j j j l v G 0 r r 0 0 0 0 r w 0 8 0 8 0 0 8 9 0 0 r 6 X i w.9.9.0.0.9.9.9.9.9.9.8.,.*.*.",
"K K K K E K Y E ( S 7 r r j h 9 9 j 9 9 9 0 h 9 8 j 0 r r r 8 0 r 0 w 0 0 0 0 8 0 8 8 w r 4 o 2 5.9.0.9.9.9.9.9.9.9.7.9.7.<.*.*.",
"K K E E Y E E E A ) F , r r 0 e e 9 0 r 0 r r 0 r e 8 8 r r w r r w 0 0 r 0 0 0 0 8 0 r 6 o $ <.t.9.0.0.w.9.0.0.w.9.7.7.7.*.<.*.",
"K K K E Y E E B ( Y Y G 7 e 0 r e 9 r r 0 r r e e r r r r r r r r 8 8 e 8 e r 0 r w w * X $ <.w.9.9.e.9.q.9.9.0.w.9.7.9.6.*.*.*.",
"E K Y E E B K Y Y Y Y W J 7 e r r e 9 0 0 0 0 r r r r 9 0 r e 8 e r e r 8 8 r q w 4 - o + <.t.w.q.q.9.w.9.w.w.0.9.9.9.9.6.*.*.*.",
"K K E E E E Y E E Y Y K ( J q q j r r r r 0 r r r e r 0 e e r 0 8 e r r e w r 8 = $ o % 1.t.9.q.9.e.q.9.9.9.9.0.9.0.9.9.4.&.*.&.",
"B B B B B A K B Y Y Y B A Y T q q r 0 9 9 8 0 0 r e r r r 0 0 e 8 e e w w w 6 @ + o u 6.e.q.q.q.e.9.e.q.w.9.9.9.0.0.9.w.4.&.*.&.",
"Y T T T T Y T A Y Y Y Y Y Y Y R e q r e 8 e r r e r w e r r q 8 e r w w : @ + . O U q.e.0.0.0.w.0.e.0.9.9.0.9.9.0.9.9.9.5.%.%.*.",
"x b b F C G R T T T Y T Y Y Y T J e , w r 0 e e 0 r e r r r w 0 8 q = @ @ + o y 2.t.0.0.0.0.w.0.9.0.0.0.9.9.9.0.9.9.5.w.2.%.*.*.",
"j r j r j j j v v n n C G Y T R R R e , q 0 r e r w w r 8 q 6 * $ + + o o 2 @.e.e.w.0.w.0.0.0.0.9.e.0.0.e.9.0.9.9.9.9.9.4.&.*.*.",
"j j j j r j j h 0 j c 0 j w v v v D D e : = q w q q : * @ @ + + o . + t %.w.t.9.9.e.0.0.0.e.0.0.9.9.0.w.0.9.9.9.w.9.5.e.<.&.%.%.",
"w r v r r v r r 0 r v 0 0 c 0 0 9 0 9 9 e = - = # @ O + . . + @ 3 I 4.e.e.e.9.9.0.0.0.0.q.q.q.q.0.w.0.0.0.0.0.0.9.9.9.w.*.%.&.&.",
"@ * = : 7 8 w v j 0 v 0 0 j c 0 j r 9 9 7 e = O & # @ % u d @.4.w.e.e.9.9.q.9.q.0.0.0.0.q.e.5.q.0.0.q.9.0.0.0.0.0.0.9.9.<.&.&.&.",
"X   o . + @ # # 5 4 w r r 0 j 0 0 0 9 0 0 8 , * o ; 3.9.q.y.t.q.9.9.9.w.e.9.e.9.0.0.0.0.0.0.q.q.0.0.9.0.0.0.0.0.0.9.0.0.<.&.&.&.",
"s a y 2 @ o   . . + + # 5 4 8 w 0 0 8 9 e q q q & X g e.8.8.7.9.9.0.9.9.9.9.w.9.0.0.0.q.0.0.q.q.0.0.0.0.0.q.9.0.0.0.9.9.,.&.&.&.",
"r.t.r.9.6.,.U s 3 @ X       + @ * 4 q 8 w w w r 5 % % 3.w.0.9.8.9.9.0.9.9.9.e.e.9.9.e.9.q.q.q.5.0.q.0.q.0.0.0.0.0.0.9.9.&.&.&.&.",
"9.9.q.q.w.t.t.r.w.6.>.I u - + o o X o + # ; 5 5 5 % + d t.7.0.9.9.9.0.9.q.9.9.9.9.e.e.9.q.5.q.q.0.0.0.0.0.0.0.0.0.0.0.9.&.&.*.&.",
"e.q.9.q.e.9.9.9.q.w.r.t.q.7.*.I a 2 % + o       . . + + 1.q.0.0.9.0.0.0.9.q.q.q.9.q.9.9.0.q.0.0.0.0.0.0.0.q.0.0.0.0.0.8.#.>.#.#.",
"9.9.q.9.9.9.9.q.q.9.9.9.9.q.e.w.e.9.5.2.>.#.@.I g g g g $.q.0.0.w.0.0.0.q.q.9.9.q.q.9.e.0.0.q.0.0.0.q.0.0.0.0.0.0.0.9.4.#.*.*.#.",
"9.q.q.9.q.9.q.q.9.q.9.9.q.9.9.0.9.9.t.e.t.y.y.e.y.y.y.y.y.0.q.0.9.0.0.0.0.0.q.q.q.q.0.0.0.0.0.q.0.0.0.0.0.0.0.0.q.9.q.6.$.*.#.#.",
"9.9.9.q.q.9.9.q.q.q.e.9.q.9.w.9.e.w.9.0.9.w.0.q.0.0.0.6.0.q.q.q.0.0.9.0.q.0.9.q.q.9.0.q.0.0.0.0.0.0.0.0.0.0.0.0.q.9.q.3.#.$.#.$.",
"9.9.9.q.9.q.q.q.q.9.9.e.9.9.9.w.9.e.q.q.0.q.e.0.q.q.q.q.0.0.q.q.0.0.0.0.0.q.0.0.q.q.9.9.0.0.0.0.0.0.0.0.0.0.0.0.9.9.q.3.>.#.*.$.",
"9.9.9.9.q.q.9.q.q.9.q.9.9.w.9.e.9.9.0.0.w.q.0.0.q.q.q.q.0.0.q.q.0.0.0.0.0.0.9.q.9.q.q.q.0.0.0.0.q.q.q.q.0.0.0.q.q.9.q.1.#.#.#.,.",
"9.9.9.9.0.0.0.0.0.0.0.0.w.0.9.w.0.0.0.0.0.0.q.q.q.q.q.q.q.q.0.0.q.q.q.q.q.q.q.8.q.q.8.q.8.q.q.q.q.q.q.q.0.0.0.0.8.q.q.3.$.$.$.$.",
"9.9.9.9.0.0.0.0.0.0.0.0.0.0.0.0.0.0.0.0.q.0.0.q.0.q.0.0.q.0.0.0.q.8.q.q.q.q.q.q.q.q.q.q.q.q.q.8.0.0.q.0.0.0.0.0.q.q.q.,.$.$.#.#.",
"0.8.9.9.0.0.q.q.0.0.0.0.0.0.0.9.q.q.q.0.q.q.q.q.q.q.q.q.0.0.0.0.q.q.8.q.8.q.q.q.q.8.q.q.q.q.q.q.0.0.0.0.0.q.0.0.8.8.q.>.#.#.#.$.",
"9.9.9.0.q.8.q.0.0.0.w.0.0.0.0.q.q.q.q.0.q.q.q.q.q.q.q.q.0.q.0.q.q.8.q.q.q.q.q.q.q.q.q.8.q.q.q.q.q.0.q.q.0.0.0.q.q.q.q.>.>.#.#.#.",
"8.0.9.9.9.q.0.0.0.q.q.0.0.0.0.0.q.q.q.q.q.q.q.q.q.q.q.q.0.0.0.0.q.q.q.8.q.q.q.8.q.8.q.q.q.q.q.q.0.0.q.q.q.0.9.q.8.0.0.>.#.>.#.#.",
"8.0.9.0.9.q.q.9.0.0.0.0.0.0.0.0.q.q.q.q.q.q.q.q.0.0.0.0.0.0.0.0.q.q.q.q.q.8.q.q.q.q.q.q.q.8.q.8.0.0.q.0.0.0.q.0.q.0.0.>.#.#.#.$.",
"8.0.0.9.9.q.9.q.q.9.0.0.0.0.0.0.8.q.q.q.q.8.q.q.0.0.0.0.0.0.0.0.q.q.q.q.q.q.q.8.q.q.q.q.q.q.8.q.0.0.q.0.0.q.9.0.q.q.0.#.#.$.#.>.",
"0.8.8.0.q.q.q.q.0.w.0.0.q.w.0.0.q.q.q.q.q.q.8.q.0.0.0.0.q.0.0.0.q.q.8.q.q.q.q.q.q.q.q.8.q.q.q.q.0.q.q.0.9.q.q.q.8.q.8.#.$.$.$.>.",
"8.q.8.q.q.9.q.q.q.q.q.q.q.q.q.0.q.q.q.q.q.q.q.q.q.q.q.q.8.q.q.q.q.8.q.q.q.0.q.8.q.q.q.q.q.q.q.q.q.q.q.8.q.q.q.q.q.q.8.$.$.#.$.#.",
"8.8.8.8.q.q.q.9.0.q.q.q.q.q.0.0.q.8.q.8.q.q.q.q.q.q.8.q.q.q.q.q.q.q.8.q.q.q.q.q.q.q.q.8.q.q.q.q.q.q.q.q.q.q.8.q.q.q.8.$.#.$.#.#.",
"0.8.9.q.9.q.q.q.0.0.0.0.0.0.0.0.q.q.8.q.8.q.q.q.q.q.q.q.q.q.q.8.q.8.q.q.q.q.q.q.q.8.q.q.q.q.q.8.8.q.q.q.q.8.q.q.8.q.3.$.>.#.>.#.",
"0.q.9.q.q.q.q.q.q.0.0.0.0.0.0.0.q.q.q.q.q.q.q.8.q.8.8.q.q.q.q.q.q.q.q.q.q.q.8.q.q.q.q.q.8.q.q.q.q.q.q.q.q.q.q.8.q.q.3.$.$.#.$.@.",
"0.0.q.q.q.q.q.q.q.0.q.0.0.0.0.0.q.q.8.q.8.q.q.q.q.q.q.8.q.0.q.q.q.q.q.q.q.8.q.q.q.q.q.8.8.q.q.q.q.q.q.q.q.q.q.q.8.q.3.$.$.#.@.@.",
"q.q.q.q.q.q.q.9.0.0.0.0.0.0.0.0.q.q.q.q.q.q.q.q.q.q.q.q.q.q.8.q.q.q.8.q.0.0.q.q.q.q.q.q.q.q.q.8.q.8.8.q.q.8.8.q.q.q.2.$.#.@.@.@.",
"0.q.q.q.q.q.q.9.q.0.q.0.q.0.0.0.8.q.q.q.q.q.q.8.q.q.q.q.q.q.q.q.q.8.q.q.q.q.q.0.q.8.q.q.q.q.q.q.q.q.q.q.q.q.q.q.q.8.$.@.@.@.@.@.",
"0.q.q.q.9.q.q.q.0.0.0.0.0.0.0.0.q.q.q.8.q.q.q.q.q.8.q.q.8.0.0.q.q.q.8.q.q.q.8.q.q.q.q.8.q.q.q.8.q.8.q.8.q.8.q.q.q.$.@.@.@.@.@.@."
};
