/* XPM */
static char *result[] = {
/* columns rows colors chars-per-pixel */
"32 32 8 1 ",
"  c #8B8C6B",
". c #878A69",
"X c #848768",
"o c #6E7155",
"O c #45482C",
"+ c #787A5B",
"@ c #818262",
"# c #58593C",
/* pixels */
"                               .",
"                               .",
"                             ...",
"                              ..",
"                       ..     ..",
"                       .. .  ...",
"                      ..........",
"                     ...........",
"                    ............",
"                   .............",
"                ................",
"             .  ................",
"              .............X. XX",
"      .   .. ............X. .+@.",
"    . .   ...............  +o@ .",
"   . . ..............X  .o#+. XX",
"  . .  ..........XX.  @##oX .XXX",
"  .  .........     @o##oX XX..XX",
"  . .........  +o#OO#o  .XXXXXXX",
"...........X +OOO#oX  .XXXXXXXXX",
"..........X +Oo     X.XXXXXXXXXX",
".........X. Oo X...XXXX.XXXXXXXX",
".........X oO XXXXXX.XXXXXXXXXXX",
".......... Oo X..XXXXXXXXXXXXXXX",
"........X oO X....XXXXXXXXXXXXXX",
"........  Oo X..XXXXXXXXXXXXXX@X",
".......X +O .X...XXXXXXXXXXXXXX@",
"........ #o X...XXXXXXXXXXXXXX++",
".XXXXXX o# X.XXXXXXXXXX@X@XX@+oo",
".XXXXX @#X.XXXXXXXXXXXXXXX@+oooo",
"XXXXX.@#@.XXXXXXXXXXXXXXX+oooooo",
"XXXX.@o@ ..........XXX@+oooooooo"
};
