/* XPM */
static char *rcp02002958396568[] = {
/* columns rows colors chars-per-pixel */
"64 64 90 1 ",
"  c #3C454C",
". c #5C646B",
"X c #BCC2C7",
"o c #C1C7CC",
"O c #A8B0B6",
"+ c #A4ACB2",
"@ c #A7AFB5",
"# c #BBC1C6",
"$ c #C0C6CB",
"% c #AFB6BB",
"& c #B3BABF",
"* c #B4BAC0",
"= c #ADB4BA",
"- c #BEC4CA",
"; c #AAB1B7",
": c #A5ADB3",
"> c #B8BFC4",
", c #AEB6BB",
"< c #838B91",
"1 c #5E676E",
"2 c #747C82",
"3 c #B5BCC1",
"4 c #B9BFC5",
"5 c #B6BCC2",
"6 c #A6AEB4",
"7 c #B4BBC1",
"8 c #ACB3B9",
"9 c #AEB6BC",
"0 c #B0B7BC",
"q c #ABB2B8",
"w c #B7BDC3",
"e c #B3BAC0",
"r c #ABB3B9",
"t c #AFB6BC",
"y c #B9BFC4",
"u c #8F969C",
"i c #B1B7BD",
"p c #AEB5BB",
"a c #A7AEB4",
"s c #A6ADB3",
"d c #B9C0C5",
"f c #B1B8BD",
"g c #BFC5CA",
"h c #ADB5BB",
"j c #A8AFB5",
"k c #424C6E",
"l c #2A2F4E",
"z c #1A1932",
"x c #0E071B",
"c c #A9B0B6",
"v c #131313",
"b c #BEC4C9",
"n c #391F21",
"m c #5D2C28",
"M c #B2B9BE",
"N c #AAB2B7",
"B c #B2B9BF",
"V c #1C121C",
"C c #BDC3C8",
"Z c #B7BEC3",
"A c #FFEB57",
"S c #FFC825",
"D c #ACB4B9",
"F c #FFA214",
"G c #ACB4BA",
"H c #BEC5CA",
"J c #B8BEC4",
"K c #ADB5BA",
"L c #C0C6CC",
"P c #ABB3B8",
"I c #A7AFB4",
"U c #B4BBC0",
"Y c #AFB7BC",
"T c #9EA5AC",
"R c #9FA7AE",
"E c #A5ADB4",
"W c #A5AEB4",
"Q c #A5ADB2",
"! c #A2AAB0",
"~ c #6C777E",
"^ c #7E888F",
"/ c #B7BDC2",
"( c #A9B1B7",
") c #B0B7BD",
"_ c #AAB2B8",
"` c #949DA3",
"' c #515D66",
"] c #6C767E",
"[ c #B5BCC2",
"{ c #8C969C",
/* pixels */
"  .XooXO++@#oooooo$%+++&ooo*+++=ooooooooooo-;++:>oo$,+++*ooo<   ",
"  .XooXO++@#oooooo$%+++&ooo*+++=ooooooooooo-;++:>oo$,+++*ooo<   ",
"1123445@++67444444>8+++94440+++q44444444444wO++:e44>r+++t44yu111",
"iip@@@a++++6@@@@@@@:+++:@@@s+++:@@@@@@@@@@@@++++6@@@:+++:@@@qiii",
"ood:++++++++++++++++++++++++++++++++++++++++++++++++++++++++fooo",
"ood:++++++++++++++++++++++++++++++++++++++++++++++++++++++++fooo",
"gg>:++++++++++++++++++++++++++++++++++++++++++++++++++++++++0ggg",
"hhq+++++++++++++++++++++++++++++++++++++++++++++++++++++++++jhhh",
"++++++++++++++++++++kkkkkkkkkkkkllllllllzzzzxxxx++++++++++++++++",
"++++++++++++++++++++kkkkkkkkkkkkllllllllzzzzxxxx++++++++++++++++",
"++++++++++++++++++++kkkkkkkkkkkkllllllllzzzzxxxx++++++++++++++++",
"pp8+++++++++++++++++kkkkkkkkkkkkllllllllzzzzxxxx++++++++++++cppp",
"ood:++++++++++++kkkkxxxxvvvvvvvvvvvvvvvvvvvvzzzzxxxx++++++++fooo",
"ood:++++++++++++kkkkxxxxvvvvvvvvvvvvvvvvvvvvzzzzxxxx++++++++fooo",
"ood:++++++++++++kkkkxxxxvvvvvvvvvvvvvvvvvvvvzzzzxxxx++++++++fooo",
"ood:++++++++++++kkkkxxxxvvvvvvvvvvvvvvvvvvvvzzzzxxxx++++++++0bbb",
"ood:++++++++kkkkxxxxnnnnmmmmvvvvvvvvvvvvvvvvvvvvzzzzxxxx++++6;;;",
"ood:++++++++kkkkxxxxnnnnmmmmvvvvvvvvvvvvvvvvvvvvzzzzxxxx++++++++",
"ood:++++++++kkkkxxxxnnnnmmmmvvvvvvvvvvvvvvvvvvvvzzzzxxxx++++++++",
"ood:++++++++kkkkxxxxnnnnmmmmvvvvvvvvvvvvvvvvvvvvzzzzxxxx++++++++",
"MMt+++++++++kkkkxxxxnnnnmmmmvvvvvvvvvvvvvvvvvvvvzzzzxxxx++++NBBB",
"++++++++++++kkkkxxxxnnnnmmmmvvvvvvvvvvvvvvvvvvvvzzzzxxxx++++f$$$",
"++++++++++++kkkkxxxxnnnnmmmmvvvvvvvvvvvvvvvvvvvvzzzzxxxx++++fooo",
"++++++++++++kkkkxxxxnnnnmmmmvvvvvvvvvvvvvvvvvvvvzzzzxxxx++++fooo",
"NNc+++++++++kkkkxxxxVVVVmmmmvvvvvvvvvvvvvvvvvvvvzzzzxxxx++++fooo",
"CCZ:++++++++kkkkxxxxVVVVmmmmvvvvvvvvvvvvvvvvvvvvzzzzxxxx++++fooo",
"ood:++++++++kkkkxxxxVVVVmmmmvvvvvvvvvvvvvvvvvvvvzzzzxxxx++++fooo",
"ood:++++++++kkkkxxxxVVVVmmmmvvvvvvvvvvvvvvvvvvvvzzzzxxxx++++fooo",
"$$>:++++++++llllxxxxAAAASSSSvvvvvvvvvvvvvvvvvvvvzzzzxxxx++++fooo",
"ttD+++++++++llllxxxxAAAASSSSvvvvvvvvvvvvvvvvvvvvzzzzxxxx++++fooo",
"++++++++++++llllxxxxAAAASSSSvvvvvvvvvvvvvvvvvvvvzzzzxxxx++++fooo",
"++++++++++++llllxxxxAAAASSSSvvvvvvvvvvvvvvvvvvvvzzzzxxxx++++fooo",
"++++++++++++llllxxxxSSSSFFFFvvvvvvvvvvvvvvvvvvvvzzzzxxxx++++fooo",
"GGq+++++++++llllxxxxSSSSFFFFvvvvvvvvvvvvvvvvvvvvzzzzxxxx++++GZZZ",
"HHJ:++++++++llllxxxxSSSSFFFFvvvvvvvvvvvvvvvvvvvvzzzzxxxx++++:666",
"ood:++++++++llllxxxxSSSSFFFFvvvvvvvvvvvvvvvvvvvvzzzzxxxx++++++++",
"ood:++++++++zzzzxxxxVVVVmmmmvvvvvvvvvvvvvvvvvvvvzzzzxxxx++++++++",
"ood:++++++++zzzzxxxxVVVVmmmmvvvvvvvvvvvvvvvvvvvvzzzzxxxx++++:666",
"ood:++++++++zzzzxxxxVVVVmmmmvvvvvvvvvvvvvvvvvvvvzzzzxxxx++++K444",
"ood:++++++++zzzzxxxxVVVVmmmmvvvvvvvvvvvvvvvvvvvvzzzzxxxx++++fooo",
"ood:++++++++zzzzxxxxnnnnmmmmvvvvvvvvvvvvvvvvvvvvzzzzxxxx++++fooo",
"ood:++++++++zzzzxxxxnnnnmmmmvvvvvvvvvvvvvvvvvvvvzzzzxxxx++++fLLL",
"ood:++++++++zzzzxxxxnnnnmmmmvvvvvvvvvvvvvvvvvvvvzzzzxxxx++++Peee",
"ood:++++++++zzzzxxxxnnnnmmmmvvvvvvvvvvvvvvvvvvvvzzzzxxxx++++++++",
"ood:++++++++zzzzxxxxnnnnmmmmvvvvvvvvvvvvvvvvvvvvzzzzxxxx++++++++",
"ood:++++++++zzzzxxxxnnnnmmmmvvvvvvvvvvvvvvvvvvvvzzzzxxxx++++++++",
"XX5:++++++++zzzzxxxxnnnnmmmmvvvvvvvvvvvvvvvvvvvvzzzzxxxx++++:jjj",
"OOI+++++++++zzzzxxxxnnnnmmmmvvvvvvvvvvvvvvvvvvvvzzzzxxxx++++tXXX",
"++++++++++++zzzzxxxxVVVVmmmmvvvvvvvvvvvvvvvvvvvvzzzzxxxx++++fooo",
"++++++++++++zzzzxxxxVVVVmmmmvvvvvvvvvvvvvvvvvvvvzzzzxxxx++++fooo",
"++++++++++++zzzzxxxxVVVVmmmmvvvvvvvvvvvvvvvvvvvvzzzzxxxx++++fooo",
"UUY+++++++++zzzzxxxxVVVVmmmmvvvvvvvvvvvvvvvvvvvvzzzzxxxx++++fooo",
"ood:++++++++zzzzxxxxVVVVnnnnvvvvvvvvvvvvvvvvvvvvzzzzxxxx++++fooo",
"ood:++++++++zzzzxxxxVVVVnnnnvvvvvvvvvvvvvvvvvvvvzzzzxxxx++++fooo",
"ood:++++++++zzzzxxxxVVVVnnnnvvvvvvvvvvvvvvvvvvvvzzzzxxxx++++fooo",
">>e:++++++++zzzzxxxxVVVVnnnnvvvvvvvvvvvvvvvvvvvvzzzzxxxx++++K>>>",
"66:+++++++++++++++++++++++++++++++++++++++++++++++++++++++++:666",
"++++++++++++++++++++++++++++++++++++++++++++++++++++++++++++++++",
"++++++++++++++++++++++++++++++++++++++++++++++++++++++++++++++++",
"TTRE66s++++:666++++:66666666666:++++W66:++++:6666666++++Q666!TTT",
"~~^U//UI++6&///(+++Y///////////)+++c3//e:++s&///////_+++p///`~~~",
"'']CooXO++@#oo$8+++[ooooooooooo/+++qboo#a++6#oooooo$,+++*ooo{'''",
"'']CooXO++@#oo$8+++[ooooooooooo/+++qboo#a++6#oooooo$,+++*ooo{'''",
"'']CooXO++@#oo$8+++[ooooooooooo/+++qboo#a++6#oooooo$,+++*ooo{'''"
};