/* XPM */
static char *aca0b1141a4143bfed7ddbf66f6b8837ONQMIGisIPuaKkyV[] = {
/* columns rows colors chars-per-pixel */
"50 50 114 2 ",
"   c None",
".  c black",
"X  c #080701",
"o  c #130F00",
"O  c #151204",
"+  c #251D00",
"@  c #2E2300",
"#  c #25220C",
"$  c #2B280E",
"%  c #352900",
"&  c #3A2D00",
"*  c #2E2B10",
"=  c #343011",
"-  c #3A3514",
";  c #4B3B00",
":  c #484217",
">  c #4B4418",
",  c #624D00",
"<  c #685404",
"1  c #765F04",
"2  c #655B1D",
"3  c #75681D",
"4  c #625A21",
"5  c #756921",
"6  c #866900",
"7  c #937300",
"8  c #9A7D0A",
"9  c #9A7F10",
"0  c #84792C",
"q  c #A98A0C",
"w  c #B18C02",
"e  c #BC9300",
"r  c #B1900C",
"t  c #8F832F",
"y  c #998624",
"u  c #928630",
"i  c #A89529",
"p  c #B09C2D",
"a  c #AF9D30",
"s  c #AFA039",
"d  c #B0A13A",
"f  c #B9A93B",
"g  c #C69C00",
"h  c #CA9F00",
"j  c #CCA100",
"k  c #DCAD00",
"l  c #D3AD08",
"z  c #D2AE16",
"x  c #EBBF0F",
"c  c #E2B811",
"v  c #D2B724",
"b  c #D2B629",
"n  c #C4B23E",
"m  c #C9B73F",
"M  c #F2C104",
"N  c #FAC701",
"B  c #FFCB01",
"V  c #FFCE0C",
"C  c #FFD600",
"Z  c #FFD803",
"A  c #FFD00C",
"S  c #FED90D",
"D  c #FCCD12",
"F  c #F9CF1B",
"G  c #FFD414",
"H  c #FFDA13",
"J  c #FED31A",
"K  c #FEDC19",
"L  c #FFE119",
"P  c #FDD524",
"I  c #FFDD24",
"U  c #FCD72B",
"Y  c #FDDC2C",
"T  c #E0C535",
"R  c #E9CE39",
"E  c #FFD631",
"W  c #FDDB33",
"Q  c #FBDD3A",
"!  c #FFE123",
"~  c #FFE22C",
"^  c #FFE232",
"/  c #FEE23D",
"(  c #FFE93F",
")  c #D9C646",
"_  c #EFD643",
"`  c #EFD843",
"'  c #F7DF45",
"]  c #FFD942",
"[  c #FFDD4B",
"{  c #FCE141",
"}  c #FDE140",
"|  c #FDE341",
" . c #FCE343",
".. c #FFE242",
"X. c #FEE243",
"o. c #F9E146",
"O. c #FCE345",
"+. c #FDE345",
"@. c #FCE246",
"#. c #FFE445",
"$. c #FCE446",
"%. c #FFE940",
"&. c #F9E048",
"*. c #FCE348",
"=. c #FCE349",
"-. c #FCE448",
";. c #FCE54B",
":. c #FCE54E",
">. c #FFEA78",
",. c #FFEA7B",
"<. c #FFEB7E",
"1. c #FFE383",
"2. c #FFE985",
"3. c #FFEFA8",
/* pixels */
"                                                                                                    ",
"                                                                                                    ",
"                                                                                                    ",
"                                                                                                    ",
"                                                                                                    ",
"                                                                                                    ",
"                                                                                                    ",
"                                                                                                    ",
"                                            X X X X X X                                             ",
"                                      . . $ 0 u t t u 0 $ . .                                       ",
"                                      = * 2 R ( / / %.R 2 * =                                       ",
"                                  . > m ) T D V V V V D T ) m > .                                   ",
"                                O 2 i U ! Y [ P B B B C K ~ U i 4 O                                 ",
"                                O s ^ B D ] >...C C C C B B B ~ a O                                 ",
"                                O d ^ V 1.3./ S C C C C C C C S r o                                 ",
"                              - 5 b W [ 2.>.S C C C C C C C C C l 3 -                               ",
"                            . 4 _ G E <./ C C C C Z Z C C C C C K ` 4 .                             ",
"                            . 4 &.J V Y H C C C S Y I C C C C C L o.4 .                             ",
"                            : y U G C C C C C S I -.Y C C C C C K ' y ;                             ",
"                          # f E B C C C C C Z I -.:.U B C C C C K @.P e +                           ",
"                        . # m ^ B C C C C S Y U U @.U B C C C C K @.! h + .                         ",
"                        . # n ^ B C C C C H W J A ..U B C C C C K @.I g + .                         ",
"                        . # n ^ B C C C C C V C S ..U B C C C C K @.I g + .                         ",
"                        . # n ^ B C C C C C C C S ..U B C C C C K @.I g + .                         ",
"                        . # n ^ B C C C C C C C S ..U B C C C C K @.I g + .                         ",
"                        . # n ^ B C C C C C C C S ..U B C C C C K @.I g + .                         ",
"                        . # n ^ B C C C C C C C S ..U B C C C C K @.I g + .                         ",
"                        . # n ^ B C C C C C C C S ..U B C C C C K @.I g + .                         ",
"                        . # n ^ B C C C C C C C S ..U B C C C C K @.I g + .                         ",
"                        . # m ^ B C C C C C C C S ..U B C C C C H #.! h + .                         ",
"                          # f U B C C C C C C C S / U B C C C C K ..P e +                           ",
"                            : 9 N C C C C C C C Z G V B C C C I Y F 8 ;                             ",
"                            . , B C C C C C C C C B B B C C Z / / B , .                             ",
"                            . , M C C C C C C C C C C C C C Z ^ Q M , .                             ",
"                              & 1 v ! C C C C C C C C C C S Y I z 1 &                               ",
"                                O p ^ H H S C C C C C C S Y =.K w o                                 ",
"                                O w K / #.^ S C C C C S ^ -.=.K w O                                 ",
"                                O , q P ~ Y Y Y Y Y Y Y Y ~ P q , O                                 ",
"                                  . ; j k c Q #.....#.Q c k j ; .                                   ",
"                                      % @ < x H G G H x < @ %                                       ",
"                                      . . @ 6 7 7 7 7 6 @ . .                                       ",
"                                            X X X X X X                                             ",
"                                                                                                    ",
"                                                                                                    ",
"                                                                                                    ",
"                                                                                                    ",
"                                                                                                    ",
"                                                                                                    ",
"                                                                                                    ",
"                                                                                                    "
};
