/* XPM */
static char *bc48d80264634d118408bb2f88b55aeb5SB9vlyqCCXvM5Hm[] = {
/* columns rows colors chars-per-pixel */
"32 32 161 2 ",
"   c None",
".  c #56362E",
"X  c #5C372B",
"o  c #5D392D",
"O  c #4C3636",
"+  c #4C3837",
"@  c #4B3B3B",
"#  c #503733",
"$  c #5C3B33",
"%  c #633C2C",
"&  c #6B3F2D",
"*  c #623E34",
"=  c #683F30",
"-  c #5D423E",
";  c #6A402E",
":  c #664033",
">  c #6C4435",
",  c #624039",
"<  c #6E4638",
"1  c #6C4C3F",
"2  c #704635",
"3  c #744837",
"4  c #734D3E",
"5  c #7F523F",
"6  c #3B3B45",
"7  c #3E3E48",
"8  c #463F46",
"9  c #423F4A",
"0  c #414047",
"q  c #4A4345",
"w  c #45454C",
"e  c #4B454B",
"r  c #4E4A4C",
"t  c #544545",
"y  c #5B4644",
"u  c #5A4947",
"i  c #544549",
"p  c #5F4748",
"a  c #514C4E",
"s  c #4E4753",
"d  c #4D4A53",
"f  c #4E4C5B",
"g  c #504650",
"h  c #544A53",
"j  c #544D5A",
"k  c #4F5157",
"l  c #4E5259",
"z  c #54535D",
"x  c #5A5059",
"c  c #53585E",
"v  c #58595F",
"b  c #624642",
"n  c #654947",
"m  c #6A4C46",
"M  c #644B4A",
"N  c #65504E",
"B  c #6C5048",
"V  c #755244",
"C  c #7C5444",
"Z  c #75554C",
"A  c #7A564A",
"S  c #7C584D",
"D  c #6F5752",
"F  c #65565C",
"G  c #725752",
"H  c #755954",
"J  c #7C5C54",
"K  c #755D5C",
"L  c #7B5E59",
"P  c #7A605F",
"I  c #555363",
"U  c #595462",
"Y  c #575C62",
"T  c #5B5C62",
"R  c #575668",
"E  c #585769",
"W  c #5A586B",
"Q  c #685A61",
"!  c #745F61",
"~  c #5A6166",
"^  c #5E646A",
"/  c #61666D",
"(  c #646A6F",
")  c #656D73",
"_  c #687176",
"`  c #6D757B",
"'  c #6E797D",
"]  c #8C5235",
"[  c #86563F",
"{  c #8B563C",
"}  c #925736",
"|  c #995835",
" . c #945A3C",
".. c #9B5D3C",
"X. c #A05F3A",
"o. c #A5623C",
"O. c #AA663D",
"+. c #815542",
"@. c #855946",
"#. c #8D5C44",
"$. c #825B4C",
"%. c #8B5E4B",
"&. c #935E42",
"*. c #995F41",
"=. c #835E54",
"-. c #8E604C",
";. c #966144",
":. c #9D6344",
">. c #93624C",
",. c #9B654A",
"<. c #826055",
"1. c #8B6252",
"2. c #896458",
"3. c #9E6A52",
"4. c #A46644",
"5. c #AC6740",
"6. c #AD6A43",
"7. c #A06748",
"8. c #A46949",
"9. c #A86A48",
"0. c #B36D43",
"q. c #B86E41",
"w. c #B87044",
"e. c #BD734A",
"r. c #AC7050",
"t. c #826662",
"y. c #727B81",
"u. c #778085",
"i. c #7A878B",
"p. c #7B888C",
"a. c #828E92",
"s. c #859396",
"d. c #879498",
"f. c #8A979A",
"g. c #8C9A9D",
"h. c #8F9DA1",
"j. c #919FA3",
"k. c #93A2A5",
"l. c #97A5A8",
"z. c #98A6A9",
"x. c #9BA9AD",
"c. c #9FAEB1",
"v. c #9EADB0",
"b. c #9EADB0",
"n. c #A1AEB1",
"m. c #A1AFB3",
"M. c #A0AEB1",
"N. c #A1B0B3",
"B. c #A2B1B4",
"V. c #A3B2B5",
"C. c #A6B3B6",
"Z. c #A4B1B4",
"A. c #A5B5B7",
"S. c #A4B3B5",
"D. c #A9B7BA",
"F. c #ABB8BC",
"G. c #AFBBBF",
"H. c #A9B9BC",
"J. c #B3BFC2",
"K. c #B2C0C3",
"L. c #B3C0C4",
/* pixels */
"                                                                ",
"                                                                ",
"                                G.J.                            ",
"                        x.l.z.N.D.K.F.m.k.                      ",
"                    f.x.m.h.k.f.u.a.x.m.x.B.x.                  ",
"                x.j.d.g.f.) c w 6 7 k ^ a.j.h.j.S.              ",
"              l.x.x.f.' z q b i f s + @ s _ a.m.B.S.            ",
"              d.z.j.) e B $.{ y I j % C V t T a.k.l.f.          ",
"            x.g.f.) a V 4.7.&.p R z = >.:.;.y z i.s.g.          ",
"          B.A.N._ 8 @.} w.6...M R U > 6.5.O.{ y l f.k.x.        ",
"          m.l.f.c m *.} e.0...M R U 2 0.6.5.| [ q p.l.v.        ",
"          z.f.' r C A @.e.6.X.M R U 2 0.0.4.C +.b / k.x.        ",
"          x.g.Y i G J =.r.:...n R U < 6.4.>.J H Z w d.z.        ",
"          G.x.l h Q =.J 2.=.*.n I I > >.=.=.<.P F 0 f.N.        ",
"          v.B.Y N K J =.3.>. .n I I < ,.1.1.J K H e g.v.        ",
"          g.l.Y V %.Z %.0.o.| b I z 3 0.6.8.S $.#.q i.h.        ",
"          g.f.l 4 o.&.*.6.-. .b I I < 4.3.9.#.:...q ' f.        ",
"          z.l.c 4 o.O.o.:.K #.b R I : @.t.6.O.0...q d.m.        ",
"          x.x.^ 4 o.O.X.&.S 4 - E I $ C S &.o.0...a z.D.S.      ",
"          l.l.~ 1 o.O...#.+.> - W I $ +.5 #.o.q...a k.x.        ",
"          h.h.~ 1 o.*. .4.*.] , W I : :.*.4...0.*.r f.k.        ",
"          h.z.( 1 &.Z @.0.0.| , E I > 6.O.4.A -.&.a f.v.m.      ",
"          k.z./ y H J $.7.8.| , R I > 4.4.,.$.J A e d.A.S.      ",
"          k.k.~ g Q L H J =.{ * R I < %.J J L ! F d s.j.k.      ",
"          L.K.` u H A A :.:.] * I z 2 ;.&.>.A H D v x.k.z.      ",
"          L.F.' - +.m 4 X. .4 $ I j : @.}  .M m 4 T m.v.        ",
"          k.j.` @ % . X & % . O j j # * % ; $ o $ T z.v.        ",
"          m.x.y.9 8 e e r g s d I I j j j x j h s / x.S.        ",
"                                                                ",
"                                                                ",
"                                                                ",
"                                                                "
};
