/* XPM */
static char *result[] = {
/* columns rows colors chars-per-pixel */
"64 64 13 1 ",
"  c #690226",
". c #6F2638",
"X c #EE383F",
"o c #F5303F",
"O c #AE0E47",
"+ c #AA145C",
"@ c #F53041",
"# c #FF634E",
"$ c #FF644D",
"% c #FFEF37",
"& c #FFF035",
"* c #FFC16C",
"= c None",
/* pixels */
"================================================================",
"================================================================",
"================================================================",
"================================================================",
"================================================================",
"================================================================",
"================================================================",
"================================================================",
"================================================================",
"================================================================",
"================================================================",
"================================================================",
"================================================================",
"================================================================",
"================================================================",
"================================================================",
"================================================================",
"================================================================",
"================================================================",
"================================================================",
"================================================================",
"================================================================",
"================================================================",
"================================================================",
"================================================================",
"================================================================",
"================================================================",
"================================================================",
"================================================================",
"================================================================",
"================================================================",
"================================================================",
"================================================================",
"================================================================",
"================================================================",
"===============================*******==========================",
"==========================*****@@@@@@@*****=====================",
"======================****###@@@@@@@@@@@@@@****=================",
"====================**####@@@@@@@@@@@@@@@@@@@##***==============",
"==================**######@@@@@@@@@@@@@@@@@@@@###@**============",
"================**#######@@@@.@@@@....@@@@@@@@#####@*===========",
"===============**#@######@@@....@......@@@@@@@######@**=========",
"=============**@@@@#####@@..@@@++OOOO...@@@@@@#####@@@@*========",
"============**@@@@@###@@....@+++OOOOOO...@@@@oo####@@@@@*=======",
"===========**@@@@@@###@@..@@+++OOOOOOOO...oooo&&@..@@@o@@*======",
"==========**@@@@@@@@##@@..@+++OOOO+OOOOO ..ooo&&%..o@@@oo@*=====",
"=========**@@@@@@.@@##@@...+++OOOO+OOOOO...o*o&&%...oo@ooo*=====",
"========**@@@@@@.@@@@#@#....+++++++OOOOOO..*O$.&&...oo@oooo*====",
"========**@@@@@...@@@.##..++OOOOOO++OOOOO...#...&...o@@oooo*====",
"=======**@@@@@@.O.@@@...OO+OOOOOOOO++OOO.............@ooooo*====",
"=======*@@@@@@@O*#..@.OOOOOOOOOOOOO++OO+++++.........ooooXoo*===",
"======**@@@@@@..#....+OOOOOOOOOOOOOO+++++O+O+.......oXooooo@*===",
"======*@@@@@@@.......+OOO##OOOOOOOOO+++OOOOOO+.....Xooo@@ooo*===",
"======*@@@@@@@.......+OO#.O.OOOOOOO++++OOOOOOO....@oooo@@@@@*===",
"=====*@@@@@@@@.......+OO#OO+OOOOOO+++++OOOOOOO..*@ooX@oo@@@@*===",
"=====*@@@@@@@@@@......++++.OOOOOOOOO++OOOOOOOO...@@o@o@@@@o**===",
"=====*@@@@@@@@@......++OOOO+++OOOOO+O+OO++++O.....@@oo@@@@@**===",
"=====*o@@@@@@......++OOOOOOOOO+OOOOO+O+OOO##++.....@@o@@@@o**===",
"=====**@o@@@*.....+OOOOOOOOOOOO+OOOOO+OOO.O #O+......@@@@@@**===",
"======*@oo@@@.....+O*OOOOOOOOOO++OOO+OOOO.*O#OO+......@@@@@*====",
"======**oo@@@....++OOOOOOOOOOOOO+OOO+OOOOO..OOOO+.....@@@@**====",
"======***@@@@@...++OOOOOOOOOOOOO+OO+OOOOOOOOOOOO+.....@@@**=====",
"=======****@@@@...++OOOOOOOOOOOO+OO+OOOOOOOOOOOO+.....@@**======",
"========*****@@@@@@+++OOOOOOOOO+OOOO+OOOOOOOOOO+.....****======="
};
