/* XPM */
static char *result[] = {
/* columns rows colors chars-per-pixel */
"64 64 11 1 ",
"  c #6F2638",
". c #F3313F",
"X c #F2333F",
"o c #F5303F",
"O c #AF0E47",
"+ c #AA145C",
"@ c #F53041",
"# c #FF634E",
"$ c #FFF035",
"% c #FFC16C",
"& c None",
/* pixels */
"&&&&&&&&&&&&&&&&&&&&&&&&&&&&&&&&&&&&&&&&&&&&&&&&&&&&&&&&&&&&&&&&",
"&&&&&&&&&&&&&&&&&&&&&&&&&&&&&&&&&&&&&&&&&&&&&&&&&&&&&&&&&&&&&&&&",
"&&&&&&&&&&&&&&&&&&&&&&&&&&&&&&&&&&&&&&&&&&&&&&&&&&&&&&&&&&&&&&&&",
"&&&&&&&&&&&&&&&&&&&&&&&&&&&&&&&&&&&&&&&&&&&&&&&&&&&&&&&&&&&&&&&&",
"&&&&&&&&&&&&&&&&&&&&&&&&&&&&&&&&&&&&&&&&&&&&&&&&&&&&&&&&&&&&&&&&",
"&&&&&&&&&&&&&&&&&&&&&&&&&&&&&&&&&&&&&&&&&&&&&&&&&&&&&&&&&&&&&&&&",
"&&&&&&&&&&&&&&&&&&&&&&&&&&&&&&&&&&&&&&&&&&&&&&&&&&&&&&&&&&&&&&&&",
"&&&&&&&&&&&&&&&&&&&&&&&&&&&&&&&&&&&&&&&&&&&&&&&&&&&&&&&&&&&&&&&&",
"&&&&&&&&&&&&&&&&&&&&&&&&&&&&&&&&&&&&&&&&&&&&&&&&&&&&&&&&&&&&&&&&",
"&&&&&&&&&&&&&&&&&&&&&&&&&&&&&&&&&&&&&&&&&&&&&&&&&&&&&&&&&&&&&&&&",
"&&&&&&&&&&&&&&&&&&&&&&&&&&&&&&&&&&&&&&&&&&&&&&&&&&&&&&&&&&&&&&&&",
"&&&&&&&&&&&&&&&&&&&&&&&&&&&&&&&&&&&&&&&&&&&&&&&&&&&&&&&&&&&&&&&&",
"&&&&&&&&&&&&&&&&&&&&&&&&&&&&&&&&&&&&&&&&&&&&&&&&&&&&&&&&&&&&&&&&",
"&&&&&&&&&&&&&&&&&&&&&&&&&&&&&&&&&&&&&&&&&&&&&&&&&&&&&&&&&&&&&&&&",
"&&&&&&&&&&&&&&&&&&&&&&&&&&&&&&&&&&&&&&&&&&&&&&&&&&&&&&&&&&&&&&&&",
"&&&&&&&&&&&&&&&&&&&&&&&&&&&&&&&&&&&&&&&&&&&&&&&&&&&&&&&&&&&&&&&&",
"&&&&&&&&&&&&&&&&&&&&&&&&&&&&&&&&&&&&&&&&&&&&&&&&&&&&&&&&&&&&&&&&",
"&&&&&&&&&&&&&&&&&&&&&&&&&&&&&&&&&&&&&&&&&&&&&&&&&&&&&&&&&&&&&&&&",
"&&&&&&&&&&&&&&&&&&&&&&&&&&&&&&&&&&&&&&&&&&&&&&&&&&&&&&&&&&&&&&&&",
"&&&&&&&&&&&&&&&&&&&&&&&&&&&&&&&&&&&&&&&&&&&&&&&&&&&&&&&&&&&&&&&&",
"&&&&&&&&&&&&&&&&&&&&&&&&&&&&&&&&&&&&&&&&&&&&&&&&&&&&&&&&&&&&&&&&",
"&&&&&&&&&&&&&&&&&&&&&&&&&&&&&&&&&&&&&&&&&&&&&&&&&&&&&&&&&&&&&&&&",
"&&&&&&&&&&&&&&&&&&&&&&&&&&&&&&&&&&&&&&&&&&&&&&&&&&&&&&&&&&&&&&&&",
"&&&&&&&&&&&&&&&&&&&&&&&&&&&&&&&&&&&&&&&&&&&&&&&&&&&&&&&&&&&&&&&&",
"&&&&&&&&&&&&&&&&&&&&&&&&&&&&&&&&&&&&&&&&&&&&&&&&&&&&&&&&&&&&&&&&",
"&&&&&&&&&&&&&&&&&&&&&&&&&&&&&&&&&&&&&&&&&&&&&&&&&&&&&&&&&&&&&&&&",
"&&&&&&&&&&&&&&&&&&&&&&&&&&&&&&&&&&&&&&&&&&&&&&&&&&&&&&&&&&&&&&&&",
"&&&&&&&&&&&&&&&&&&&&&&&&&&&&&&&&&&&&&&&&&&&&&&&&&&&&&&&&&&&&&&&&",
"&&&&&&&&&&&&&&&&&&&&&&&&&&&&&&&&&&&&&&&&&&&&&&&&&&&&&&&&&&&&&&&&",
"&&&&&&&&&&&&&&&&&&&&&&&&&&&&&&&&&&&&&&&&&&&&&&&&&&&&&&&&&&&&&&&&",
"&&&&&&&&&&&&&&&&&&&&&&&&&&&&&&&&&&&&&&&&&&&&&&&&&&&&&&&&&&&&&&&&",
"&&&&&&&&&&&&&&&&&&&&&&&&&&&&&&&&&&&&&&&&&&&&&&&&&&&&&&&&&&&&&&&&",
"&&&&&&&&&&&&&&&&&&&&&&&&&&&&&&&&&&&&&&&&&&&&&&&&&&&&&&&&&&&&&&&&",
"&&&&&&&&&&&&&&&&&&&&&&&&&&&&&&&&&&&&&&&&&&&&&&&&&&&&&&&&&&&&&&&&",
"&&&&&&&&&&&&&&&&&&&&&&&&&&&&&&&&&&&&&&&&&&&&&&&&&&&&&&&&&&&&&&&&",
"&&&&&&&&&&&&&&&&&&&&&&&&&&&&&&&&&&&&&&&&&&&&&&&&&&&&&&&&&&&&&&&&",
"&&&&&&&&&&&&&&&&&&&&&&&&&&&&&&&&&&&&&&&&&&&&&&&&&&&&&&&&&&&&&&&&",
"&&&&&&&&&&&&&&&&&&&&&&&&&&&&&&&&&&&&&&&&&&&&&&&&&&&&&&&&&&&&&&&&",
"&&&&&&&&&&&&&&&&&&&&&&&&&&&&&&&&&&&&&&&&&&&&&&&&&&&&&&&&&&&&&&&&",
"&&&&&&&&&&&&&&&&&&&&&&&&&&&&&&&&%%%%%%%%%%%%%%&&&&&&&&&&&&&&&&&&",
"&&&&&&&&&&&&&&&&&&&&&&&&&&%%%%%%@@@@@@@@@@@@@@%%%%&&&&&&&&&&&&&&",
"&&&&&&&&&&&&&&&&&&&&&&&%%%####@@@@@@@@@@@@@@@@@@@@%%&&&&&&&&&&&&",
"&&&&&&&&&&&&&&&&&&&&%%%####@@@@@@@@@@@@@@@@@@@@@@##@%%&&&&&&&&&&",
"&&&&&&&&&&&&&&&&&&%%######@@@@@@@@@@@@@@@@@@@@@@####@@%&&&&&&&&&",
"&&&&&&&&&&&&&&&&%%#######@@@@@@@@     @@@@@@@@@@#####@@%&&&&&&&&",
"&&&&&&&&&&&&&&%%@@@######@@@ ++++OOOO   @@@@@@@@#####@@@%&&&&&&&",
"&&&&&&&&&&&&%%@@@@@####@@@@ ++++OOOOOOO  @@@@@   #$$#@@@@%&&&&&&",
"&&&&&&&&&&&%@@@@@@@###@@ @ +++OOOOOOOOOO  @@@@@@  $$$oooo@%&&&&&",
"&&&&&&&&&&%@@@@@@@@@##@@ @ ++OO+++OOOOOOO   o@@@@ $$$...ooo%&&&&",
"&&&&&&&&&%@@@@@@@@@@##@@# @++OOOOO+OOOOOO  o@@oo%  $$.....o%&&&&",
"&&&&&&&&%@@@@@@@ @@@@###  +++++++O++OOOOOO oooo%O#  $.....o@%&&&",
"&&&&&&&%@@@@@@O @@@@  ##++++OOOOO+OO+OOOOO  ..  #   ......o@%&&&",
"&&&&&&%@@@@@@O%#@@    ++OOOOOOOOOOOOO+OOOO+         ..oooooo@%&&",
"&&&&&%@@@@@@@@#      ++OOOOOOOOOOOOOO+++++++        .oXXXooo@%&&",
"&&&&&%@@@@@@@       ++OOOOOOOOOOOOOOOOOOOO+++       XooXXoXoo%&&",
"&&&&%@@@@@@@@       ++O##OOOOOOOOOO++OOOOOOO++     oo@oooooo@%&&",
"&&&&%@@@@@@@@      +++# + +OOOOOOO++OOOOOOO++++      @@@@@o@@o%&",
"&&&&%@@@@@@      ++OOO#OO O++OOOOOO+O+OOOOOOOOO++ %    @@@@@@o%&",
"&&&&%@@@@@@     +OOOOOO +OOO++++OOO++OOOOOOOOOOOO+      @@@@o@%&",
"&&&&%@@@@@ %   ++OOOOOOOOOOOOO++OO++OOOOOOO##OOOOO+     @@@@@o%&",
"&&&&%%@@@@    +++OOOOOOOOOOOOOO++++OOOOOOO O #OOOO+     @@@@@@%&",
"&&&&%%%@@@    +++O%OOOOOOOOOOOOO++OOOOOOOO %O#OOOO+     @@@@@%&&",
"&&&&&%%%@@    +++OOOOOOOOOOOOOOO++OOOOOOOOO  OOOO++     @@@%%&&&",
"&&&&&&%%%%%   ++++OOOOOOOOOOOOOO++OOOOOOOOOOOOO+++     %%%%%&&&&"
};
