/* XPM */
static char *result[] = {
/* columns rows colors chars-per-pixel */
"64 64 8 1 ",
"  c #6F2638",
". c #AF0E47",
"X c #AB145C",
"o c #F53040",
"O c #FF634E",
"+ c #FFF035",
"@ c #FFC16C",
"# c None",
/* pixels */
"################################################################",
"################################################################",
"################################################################",
"################################################################",
"################################################################",
"################################################################",
"################################################################",
"################################################################",
"################################################################",
"################################################################",
"################################################################",
"################################################################",
"################################################################",
"################################################################",
"################################################################",
"################################################################",
"################################################################",
"################################################################",
"################################################################",
"################################################################",
"################################################################",
"################################################################",
"################################################################",
"################################################################",
"################################################################",
"################################################################",
"################################################################",
"################################################################",
"################################################################",
"################################################################",
"################################################################",
"################################################################",
"################################################################",
"################################################################",
"################################################################",
"################################################################",
"################################################################",
"#############################@@@@@@@@###########################",
"########################@@@@@@ooooooo@@@@@######################",
"#####################@@@OOOOOooooooooooooo@@@@##################",
"###################@@OOOOOOooooooooooooooooooo@@@###############",
"#################@@OOOOOOOooooooooooooooooooooOOO@@@############",
"###############@@OOOOOOOOOooo        ooooooooOOOOooo@@##########",
"#############@@@oooOOOOOOoo  oX.X...   ooooooOOOOOoooo@#########",
"############@@@ooooOOOOooo ooXXX......  oooooOOOOOooooo@########",
"###########@@ooooooOOOoo  ooXXX........ ooooooOOOOoooooo@#######",
"##########@ooooooooOOOoo ooXXX.......... oooooo++ ooooooo@######",
"#########@ooooooooooOOoo  oXXXXXX........oooooo+++ oooooo@######",
"########@oooooo   oo OOO   XXX...XX......oooo@o+++  oooooo@#####",
"#######@@ooooo   ooo  OO   XXXXXXXX......  o@.O ++  ooooooo@@###",
"######@ooooooo. oooo    .XX........X.....    O   +  ooooooo@@###",
"######@oooooo.@O oo    .............X...            oooooooo@@##",
"#####@ooooooo O      XX.............X.XXXXX        ooooooooo@@##",
"#####@ooooooo       XXX..............XXXX..XX      ooooooooo@@##",
"####@oooooooo       XXXOO...........X.......X     oooooooooo@@##",
"####@ooooooooo     XX.O . .........X..........  @ oooooooooo@@##",
"####@oooooooo      XXXO..X.........XX.........      oooooooo@@##",
"###@oooooooo        XXXX X..........XX..XXXXXX       ooooooo@@##",
"###@oooooooo     XXX......XXX......X......OO..XX       ooooo@###",
"###@oooooo@     X.X..........XX...X...... . O...X      oooo@@###",
"###@@oooooo     XX@............X.X....... @.O....X     oooo@@###",
"###@@@ooooo    XXX..............XX........  .....X     ooo@@####",
"####@@@@ooo    XXX..............XX..............X     o@@@@#####",
"#####@@@@@@@    XXXXX..........X..X............X    @@@@@@######"
};
