/* XPM */
static char *result[] = {
/* columns rows colors chars-per-pixel */
"64 64 11 1 ",
"  c #6F2638",
". c #EE383F",
"X c #F5303F",
"o c #8A1A4B",
"O c #AE0E47",
"+ c #AA145C",
"@ c #F53041",
"# c #FF634E",
"$ c #FFF037",
"% c #FFC16C",
"& c None",
/* pixels */
"&&&&&&&&&&&&&&&&&&&&&&&&&&&&&&&&&&&&&&&&&&&&&&&&&&&&&&&&&&&&&&&&",
"&&&&&&&&&&&&&&&&&&&&&&&&&&&&&&&&&&&&&&&&&&&&&&&&&&&&&&&&&&&&&&&&",
"&&&&&&&&&&&&&&&&&&&&&&&&&&&&&&&&&&&&&&&&&&&&&&&&&&&&&&&&&&&&&&&&",
"&&&&&&&&&&&&&&&&&&&&&&&&&&&&&&&&&&&&&&&&&&&&&&&&&&&&&&&&&&&&&&&&",
"&&&&&&&&&&&&&&&&&&&&&&&&&&&&&&&&&&&&&&&&&&&&&&&&&&&&&&&&&&&&&&&&",
"&&&&&&&&&&&&&&&&&&&&&&&&&&&&&&&&&&&&&&&&&&&&&&&&&&&&&&&&&&&&&&&&",
"&&&&&&&&&&&&&&&&&&&&&&&&&&&&&&&&&&&&&&&&&&&&&&&&&&&&&&&&&&&&&&&&",
"&&&&&&&&&&&&&&&&&&&&&&&&&&&&&&&&&&&&&&&&&&&&&&&&&&&&&&&&&&&&&&&&",
"&&&&&&&&&&&&&&&&&&&&&&&&&&&&&&&&&&&&&&&&&&&&&&&&&&&&&&&&&&&&&&&&",
"&&&&&&&&&&&&&&&&&&&&&&&&&&&&&&&&&&&&&&&&&&&&&&&&&&&&&&&&&&&&&&&&",
"&&&&&&&&&&&&&&&&&&&&&&&&&&&&&&&&&&&&&&&&&&&&&&&&&&&&&&&&&&&&&&&&",
"&&&&&&&&&&&&&&&&&&&&&&&&&&&&&&&&&&&&&&&&&&&&&&&&&&&&&&&&&&&&&&&&",
"&&&&&&&&&&&&&&&&&&&&&&&&&&&&&&&&&&&&&&&&&&&&&&&&&&&&&&&&&&&&&&&&",
"&&&&&&&&&&&&&&&&&&&&&&&&&&&&&&&&&&&&&&&&&&&&&&&&&&&&&&&&&&&&&&&&",
"&&&&&&&&&&&&&&&&&&&&&&&&&&&&&&&&&&&&&&&&&&&&&&&&&&&&&&&&&&&&&&&&",
"&&&&&&&&&&&&&&&&&&&&&&&&&&&&&&&&&&&&&&&&&&&&&&&&&&&&&&&&&&&&&&&&",
"&&&&&&&&&&&&&&&&&&&&&&&&&&&&&&&&&&&&&&&&&&&&&&&&&&&&&&&&&&&&&&&&",
"&&&&&&&&&&&&&&&&&&&&&&&&&&&&&&&&&&&&&&&&&&&&&&&&&&&&&&&&&&&&&&&&",
"&&&&&&&&&&&&&&&&&&&&&&&&&&&&&&&&&&&&&&&&&&&&&&&&&&&&&&&&&&&&&&&&",
"&&&&&&&&&&&&&&&&&&&&&&&&&&&&&&&&&&&&&&&&&&&&&&&&&&&&&&&&&&&&&&&&",
"&&&&&&&&&&&&&&&&&&&&&&&&&&&&&&&&&&&&&&&&&&&&&&&&&&&&&&&&&&&&&&&&",
"&&&&&&&&&&&&&&&&&&&&&&&&&&&&&&&&&&&&&&&&&&&&&&&&&&&&&&&&&&&&&&&&",
"&&&&&&&&&&&&&&&&&&&&&&&&&&&&&&&&&&&&&&&&&&&&&&&&&&&&&&&&&&&&&&&&",
"&&&&&&&&&&&&&&&&&&&&&&&&&&&&&&&&&&&&&&&&&&&&&&&&&&&&&&&&&&&&&&&&",
"&&&&&&&&&&&&&&&&&&&&&&&&&&&&&&&&&&&&&&&&&&&&&&&&&&&&&&&&&&&&&&&&",
"&&&&&&&&&&&&&&&&&&&&&&&&&&&&&&&&&&&&&&&&&&&&&&&&&&&&&&&&&&&&&&&&",
"&&&&&&&&&&&&&&&&&&&&&&&&&&&&&&&&&&&&&&&&&&&&&&&&&&&&&&&&&&&&&&&&",
"&&&&&&&&&&&&&&&&&&&&&&&&&&&&&&&&&&&&&&&&&&&&&&&&&&&&&&&&&&&&&&&&",
"&&&&&&&&&&&&&&&&&&&&&&&&&&&&&&&&&&&&&&&&&&&&&&&&&&&&&&&&&&&&&&&&",
"&&&&&&&&&&&&&&&&&&&&&&&&&&&&&&&&&&&&&&&&&&&&&&&&&&&&&&&&&&&&&&&&",
"&&&&&&&&&&&&&&&&&&&&&&&&&&&&&&&&&&&&&&&&&&&&&&&&&&&&&&&&&&&&&&&&",
"&&&&&&&&&&&&&&&&&&&&&&&&&&&&&&&&&&&&&&&&&&&&&&&&&&&&&&&&&&&&&&&&",
"&&&&&&&&&&&&&&&&&&&&&&&&&&&&&&&&&&&&&&&&&&&&&&&&&&&&&&&&&&&&&&&&",
"&&&&&&&&&&&&&&&&&&&&&&&&&&&&&%%%%%%%%%%&&&&&&&&&&&&&&&&&&&&&&&&&",
"&&&&&&&&&&&&&&&&&&&&&&&&&&%%%%%%%%%%%%%%%%%%&&&&&&&&&&&&&&&&&&&&",
"&&&&&&&&&&&&&&&&&&&&&&&&%%%%%@@@@@@@@%@@@@%%%%%&&&&&&&&&&&&&&&&&",
"&&&&&&&&&&&&&&&&&&&&&&%%%###@@@@@@@@@@@@@@@##%%%%&&&&&&&&&&&&&&&",
"&&&&&&&&&&&&&&&&&&&&%%####@@@@@@@@@@@  @@@@@###%%%&&&&&&&&&&&&&&",
"&&&&&&&&&&&&&&&&&&%%#####  @@@   @@@    @@@@ ####%%&&&&&&&&&&&&&",
"&&&&&&&&&&&&&&&&%%%######  @  @@@        @@@@#####%%&&&&&&&&&&&&",
"&&&&&&&&&&&&&&&%%#######@@ @ @@@+OOOO     @@@######@%&&&&&&&&&&&",
"&&&&&&&&&&&&&&%%@@@@###@@   @@@+++OOOO    @@@@####@@@%&&&&&&&&&&",
"&&&&&&&&&&&&&%%@@@@@@##@@   @@++OOOOOOOO  @@$$@## @@@%&&&&&&&&&&",
"&&&&&&&&&&&&%%@@@@@  ##@@    ++OOOOOOOO   @@$$$    @@@%&&&&&&&&&",
"&&&&&&&&&&&%%%@@@@   @##     ++++OOOOOOOO  @$$$    @@@%&&&&&&&&&",
"&&&&&&&&&&%%%@@@@   @@ #     +++O+OOOOOOO @%@$$     @@@%&&&&&&&&",
"&&&&&&&&&&%%@@@@    @@      O++++++OOOOOO %O# $     @@@%&&&&&&&&",
"&&&&&&&&&%%@@@@  O @@@     OO+OOOO++OOOO   #        @@@%%&&&&&&&",
"&&&&&&&&&%%@@@@ O%#@@@@  OOOOOOOOOO++OOO            X@@@%&&&&&&&",
"&&&&&&&&%%@@@@   # @@@@@+OOOOOOOOOO++OO++++         XXX@%%&&&&&&",
"&&&&&&&&%%@@@@     @@@@+OO##OOOOOOOO+O++++++        XXX@%%&&&&&&",
"&&&&&&&&%@@@@@      @@++O#oOoOOOOOOO+++++OOO       @XX@@%%&&&&&&",
"&&&&&&&&%@@@@@@       ++O#OOoOOOOOOO+++OOOOOO    XX@@@@XX%%&&&&&",
"&&&&&&&%%@@@@@@       +OOOooOOOOOOOO++OOOOOOO % XX@@@XXXX%%&&&&&",
"&&&&&&&%%@@@@@@        +OOOOOOOOOOOO++OOOOOOO   X@@XXX.XX%%&&&&&",
"&&&&&&&%%@@@@@          +++OOOOOOOOOOO+OOOOOO    @ X.XXX@%&&&&&&",
"&&&&&&&%%@@@@ %       +++OO++OOOOOO+++OO##++++    X XXXX@%&&&&&&",
"&&&&&&&%%@@@@        %O+OOOOO+OOOOOO++O O #OOO+    XX.@XX%&&&&&&",
"&&&&&&&%%@@@@       +++OOOOOOO+OOOOOOO+ %O#OOOO+     @X@%%&&&&&&",
"&&&&&&&%%@@@@X      +++OOOOOOOO+OOOOO+OO  OOOOO+     XX@%%&&&&&&",
"&&&&&&&&%%@@XX@     ++OOOOOOOOO+OOOOO+OOOOOOOOO+     @X%%%&&&&&&",
"&&&&&&&&%%%@XXXXX    +OOOOOOOOO+OOOOO+OOOOOOOO++     @@%%&&&&&&&",
"&&&&&&&&&%%%XXXXXXX  ++OOOOOOOOOOOOOO+OOOOOOOO+     @@%%%&&&&&&&",
"&&&&&&&&&%%%%%XX@@@@@@++OOOOOO+OOOOOOO+OOOOOOO     %%%%%&&&&&&&&"
};
