/* XPM */
static char *result[] = {
/* columns rows colors chars-per-pixel */
"64 64 9 1 ",
"  c #690226",
". c #6F2538",
"X c #AF0E48",
"o c #AB145C",
"O c #F53041",
"+ c #FF634E",
"@ c #FFEF37",
"# c #FFC16C",
"$ c None",
/* pixels */
"$$$$$$$$$$$$$$$$$$$$$$$$$$$$$$$$$$$$$$$$$$$$$$$$$$$$$$$$$$$$$$$$",
"$$$$$$$$$$$$$$$$$$$$$$$$$$$$$$$$$$$$$$$$$$$$$$$$$$$$$$$$$$$$$$$$",
"$$$$$$$$$$$$$$$$$$$$$$$$$$$$$$$$$$$$$$$$$$$$$$$$$$$$$$$$$$$$$$$$",
"$$$$$$$$$$$$$$$$$$$$$$$$$$$$$$$$$$$$$$$$$$$$$$$$$$$$$$$$$$$$$$$$",
"$$$$$$$$$$$$$$$$$$$$$$$$$$$$$$$$$$$$$$$$$$$$$$$$$$$$$$$$$$$$$$$$",
"$$$$$$$$$$$$$$$$$$$$$$$$$$$$$$$$$$$$$$$$$$$$$$$$$$$$$$$$$$$$$$$$",
"$$$$$$$$$$$$$$$$$$$$$$$$$$$$$$$$$$$$$$$$$$$$$$$$$$$$$$$$$$$$$$$$",
"$$$$$$$$$$$$$$$$$$$$$$$$$$$$$$$$$$$$$$$$$$$$$$$$$$$$$$$$$$$$$$$$",
"$$$$$$$$$$$$$$$$$$$$$$$$$$$$$$$$$$$$$$$$$$$$$$$$$$$$$$$$$$$$$$$$",
"$$$$$$$$$$$$$$$$$$$$$$$$$$$$$$$$$$$$$$$$$$$$$$$$$$$$$$$$$$$$$$$$",
"$$$$$$$$$$$$$$$$$$$$$$$$$$$$$$$$$$$$$$$$$$$$$$$$$$$$$$$$$$$$$$$$",
"$$$$$$$$$$$$$$$$$$$$$$$$$$$$$$$$$$$$$$$$$$$$$$$$$$$$$$$$$$$$$$$$",
"$$$$$$$$$$$$$$$$$$$$$$$$$$$$$$$$$$$$$$$$$$$$$$$$$$$$$$$$$$$$$$$$",
"$$$$$$$$$$$$$$$$$$$$$$$$$$$$$$$$$$$$$$$$$$$$$$$$$$$$$$$$$$$$$$$$",
"$$$$$$$$$$$$$$$$$$$$$$$$$$$$$$$$$$$$$$$$$$$$$$$$$$$$$$$$$$$$$$$$",
"$$$$$$$$$$$$$$$$$$$$$$$$$$$$$$$$$$$$$$$$$$$$$$$$$$$$$$$$$$$$$$$$",
"$$$$$$$$$$$$$$$$$$$$$$$$$$$$$$$$$$$$$$$$$$$$$$$$$$$$$$$$$$$$$$$$",
"$$$$$$$$$$$$$$$$$$$$$$$$$$$$$$$$$$$$$$$$$$$$$$$$$$$$$$$$$$$$$$$$",
"$$$$$$$$$$$$$$$$$$$$$$$$$$$$$$$$$$$$$$$$$$$$$$$$$$$$$$$$$$$$$$$$",
"$$$$$$$$$$$$$$$$$$$$$$$$$$$$$$$$$$$$$$$$$$$$$$$$$$$$$$$$$$$$$$$$",
"$$$$$$$$$$$$$$$$$$$$$$$$$$$$$$$$$$$$$$$$$$$$$$$$$$$$$$$$$$$$$$$$",
"$$$$$$$$$$$$$$$$$$$$$$$$$$$$$$$$$$$$$$$$$$$$$$$$$$$$$$$$$$$$$$$$",
"$$$$$$$$$$$$$$$$$$$$$$$$$$$$$$$$$$$$$$$$$$$$$$$$$$$$$$$$$$$$$$$$",
"$$$$$$$$$$$$$$$$$$$$$$$$$$$$$$$$$$$$$$$$$$$$$$$$$$$$$$$$$$$$$$$$",
"$$$$$$$$$$$$$$$$$$$$$$$$$$$$$$$$$$$$$$$$$$$$$$$$$$$$$$$$$$$$$$$$",
"$$$$$$$$$$$$$$$$$$$$$$$$$$$$$$$$$$$$$$$$$$$$$$$$$$$$$$$$$$$$$$$$",
"$$$$$$$$$$$$$$$$$$$$$$$$$$$$$$$$$$$$$$$$$$$$$$$$$$$$$$$$$$$$$$$$",
"$$$$$$$$$$$$$$$$$$$$$$$$$$$$$$$$$$$$$$$$$$$$$$$$$$$$$$$$$$$$$$$$",
"$$$$$$$$$$$$$$$$$$$$$$$$$$$$$$$$$$$$$$$$$$$$$$$$$$$$$$$$$$$$$$$$",
"$$$$$$$$$$$$$$$$$$$$$$$$$$$$$$$$$$$$$$$$$$$$$$$$$$$$$$$$$$$$$$$$",
"$$$$$$$$$$$$$$$$$$$$$$$$$$$$$$$$$$$$$$$$$$$$$$$$$$$$$$$$$$$$$$$$",
"$$$$$$$$$$$$$$$$$$$$$$$$$$$$$$$$$$$$$$$$$$$$$$$$$$$$$$$$$$$$$$$$",
"$$$$$$$$$$$$$$$$$$$$$$$$$$$$$$$$$$$$$$$$$$$$$$$$$$$$$$$$$$$$$$$$",
"$$$$$$$$$$$$$$$$$$$$$$$$$$$$$$$$$$$$$$$$$$$$$$$$$$$$$$$$$$$$$$$$",
"$$$$$$$$$$$$$$$$$$$$$$$$$$$$$$$$###########$$$$$$$$$$$$$$$$$$$$$",
"$$$$$$$$$$$$$$$$$$$$$$$$$$$#####OOOOOOOOOOO###$$$$$$$$$$$$$$$$$$",
"$$$$$$$$$$$$$$$$$$$$$$$$###OOOOOOOOOOOOOOOOOOO##$$$$$$$$$$$$$$$$",
"$$$$$$$$$$$$$$$$$$$$$$##++OOOOOOOOOOOOOOOOOOOOOO##$$$$$$$$$$$$$$",
"$$$$$$$$$$$$$$$$$$$$##+++OOOOOOOOOOOOOOOOOOOOOO++O##$$$$$$$$$$$$",
"$$$$$$$$$$$$$$$$$$##++++OOOOOOOOOOOOOOOOOOOOOO++++OO#$$$$$$$$$$$",
"$$$$$$$$$$$$$$$$##++++++OOOOOO.O......OOOOOOOO+++++OO#$$$$$$$$$$",
"$$$$$$$$$$$$$$$#++++++++OOO...O........OOOOOOO.++++OOO#$$$$$$$$$",
"$$$$$$$$$$$$$$#+OO++++OOO..OOooooXXX....OOOOOOO.++OOOOO#$$$$$$$$",
"$$$$$$$$$$$$$#OOOO+++OOO.OOOoooXXXXXX....OOOOOOO.@@OOOO#$$$$$$$$",
"$$$$$$$$$$$$#OOOOO+++OO.OOOooXXXXXXXXX...OOOOOOO.@@@OOOO#$$$$$$$",
"$$$$$$$$$$$#OOOOOOO++OO.OOooXXXXXXXXXXX..OOOOOOO.@@@OOOO#$$$$$$$",
"$$$$$$$$$$#OOOO..OO++O.+.OoXXXXXoXXXXXX.OOO OOOO..@@OOOOO#$$$$$$",
"$$$$$$$$$#OOOO.OO.O.++.+..oXXXXoXooXXXX...OOOOOO#..@OOOOO#$$$$$$",
"$$$$$$$$$#OOO.XOOOOO.++...oXoooXXXooXXX...OOOOO#X+..OOOOOO#$$$$$",
"$$$$$$$$#OOO.X#+OOOO.....XXoXXXoXXooXXX.........+...OOOOOO#$$$$$",
"$$$$$$$$#OOO..+.OOOOO...ooXXXXXooXXooX.............OOOOOOOO#$$$$",
"$$$$$$$$#OOOO.....OO...++oXXXXXXXoXXoooooo........OOOOOOOOO#$$$$",
"$$$$$$$#OOOOOO........+.X.XXXXXXXXoooXXXXXo.......OOOOOOOOO#$$$$",
"$$$$$$$#OOOOOO........+XXoXXXXXXXXXXXXXXXXXo.......OOOOOOOO##$$$",
"$$$$$$##OOO.O.......ooo.oXXXXXXXXXXXXXXXXXXXo....#..OOOOOOO##$$$",
"$$$$$$#OOO........ooXXXooXXXXXXXXXXXXXXXXXXooo.......OOOOOO##$$$",
"$$$$$$#OOO.......oXXXXXXXooXXXXXXXXXXXXXXX++XXo.......OOOOO##$$$",
"$$$$$##OOO.#....oXXXXXXXoXooXXXXXXooXXXXX.X +XXo.......OOOO##$$$",
"$$$$$##OOO......oX#XXXXXXXXXoXXXXooXXXXXX.#X+XXoo.......OO##$$$$",
"$$$$$##OOOO....oXXXXXXXXXXXXXoXXXoXXXXXXXX..XXXoo.......OO##$$$$",
"$$$$$##OOOO....ooXXXXXXXXXXXXooXoXXXXXXXXXXXXXXoo.......O###$$$$",
"$$$$$##OOOOO...ooXXXXXXXXXXXXXoXoXXXXXXXXXXXXXXoo......O####$$$$",
"$$$$$$##OOOOO..oooXXXXXXXXXXXXoXoXXXXXXXXXXXXXXo.......#####$$$$",
"$$$$$$$##OOOOOOOooooooXXXXXXXXoXXoXXXXXXXXXXXXoo.....######$$$$$"
};
