/* XPM */
static char *result[] = {
/* columns rows colors chars-per-pixel */
"64 64 8 1 ",
"  c #6F2538",
". c #AF0E48",
"X c #AB145C",
"o c #F53041",
"O c #FF634E",
"+ c #FFEF37",
"@ c #FFC16C",
"# c None",
/* pixels */
"################################################################",
"################################################################",
"################################################################",
"################################################################",
"################################################################",
"################################################################",
"################################################################",
"################################################################",
"################################################################",
"################################################################",
"################################################################",
"################################################################",
"################################################################",
"################################################################",
"################################################################",
"################################################################",
"################################################################",
"################################################################",
"################################################################",
"################################################################",
"################################################################",
"################################################################",
"################################################################",
"################################################################",
"################################################################",
"################################################################",
"################################################################",
"################################################################",
"################################################################",
"################################################################",
"################################################################",
"################################################################",
"###########################@@@@@@@@@@@@@########################",
"#######################@@@@ooooooooooo@@@@@#####################",
"#####################@@@ooooooooooooooooooo@@###################",
"###################@@OOOooooooooooooooooooooo@##################",
"#################@@OOOOooooooooooooooooooooOOO@#################",
"################@OOOOOoo       oooooooooooOOOOO@################",
"###############@OOOOOo   oooooo     ooooo OOOOOo@###############",
"##############@OoOOOoo ooooooXX..    ooooooOOOOo@@##############",
"#############@oooOOoo ooooooX.....     oooooO++oo@##############",
"############@ooooOOoooooooXX.......    ooooo +++oo@#############",
"###########@oooooOOo OooXXX........     oooo +++oo@@############",
"##########@oo   o OOO ooXXX.........    oooo  ++ooo@############",
"#########@@oo o o  O   o.XX.XX......    oooo@  +ooo@############",
"#########@o  oo.oo     ...XX.XXX...     ooo@.O  oooo@###########",
"########@oo oo.@Oo    .........XX...        O    ooo@###########",
"########@o  oooOoo    ..........XX...            oooo@##########",
"#######@oo   ooooo    ......XX...X....          ooooo@##########",
"#######@oo   oooooo   OO.....XX..XX...         oooooo@@#########",
"######@@ooo    o     O . ......X.X.XXXX      oooooooo@@#########",
"######@oooo          O..X.........XX...XX    ooooooooo@#########",
"######@ooooo       .X.  .........XX.....XX      oooooo@#########",
"#####@@ooooo @    ..............XX........  @    ooooo@#########",
"#####@ooooo      ...............XX....OOX.        oooo@@########",
"#####@oooo       ...XXX..........X... . OX        oooo@@########",
"#####@oooo       X@X..XXX............ @.O.X        ooo@@########",
"#####@@ooo      XXXX.....X.......X....  ...X       ooo@@########",
"#####@@oo      XX.........X.....X..........X       ooo@#########",
"#####@@oo      X..........XX...XX...........X     oooo@#########",
"#####@@ooo    X............X...X............X     ooo@@#########",
"#####@@@ooo   XX..........XX...X............X    ooo@@##########",
"######@@oooo  XXXX.........XX..X............X   ooo@@@##########",
"######@@@ooooooXXXXX......XX....X...........X  ooo@@@###########"
};
